<?xml version="1.0" encoding="UTF-8"?>
<svg id="Illustration" xmlns="http://www.w3.org/2000/svg" xmlns:xlink="http://www.w3.org/1999/xlink" viewBox="0 0 2746.42 2789.28">
  <defs>
    <style>
      .cls-1 {
        fill: url(#linear-gradient-38);
      }

      .cls-1, .cls-2, .cls-3, .cls-4, .cls-5, .cls-6, .cls-7, .cls-8, .cls-9, .cls-10, .cls-11, .cls-12, .cls-13, .cls-14, .cls-15, .cls-16, .cls-17, .cls-18, .cls-19, .cls-20, .cls-21, .cls-22, .cls-23, .cls-24, .cls-25, .cls-26, .cls-27, .cls-28, .cls-29, .cls-30, .cls-31, .cls-32, .cls-33, .cls-34, .cls-35, .cls-36, .cls-37, .cls-38, .cls-39, .cls-40, .cls-41, .cls-42, .cls-43, .cls-44, .cls-45 {
        stroke-width: 0px;
      }

      .cls-2 {
        fill: url(#linear-gradient-12);
      }

      .cls-3 {
        fill: url(#linear-gradient-17);
      }

      .cls-4 {
        fill: url(#linear-gradient-19);
      }

      .cls-5 {
        fill: url(#linear-gradient-33);
      }

      .cls-6 {
        opacity: .85;
      }

      .cls-6, .cls-7, .cls-10, .cls-22, .cls-44 {
        fill: #fff;
      }

      .cls-7 {
        opacity: .94;
      }

      .cls-8 {
        fill: url(#linear-gradient-21);
      }

      .cls-9 {
        fill: url(#linear-gradient-6);
      }

      .cls-10 {
        opacity: .47;
      }

      .cls-11 {
        fill: url(#linear-gradient-15);
      }

      .cls-12 {
        fill: url(#linear-gradient-11);
      }

      .cls-13 {
        fill: url(#linear-gradient-5);
      }

      .cls-14 {
        fill: url(#linear-gradient-31);
      }

      .cls-15 {
        fill: url(#linear-gradient-34);
      }

      .cls-16 {
        fill: url(#linear-gradient-40);
      }

      .cls-17 {
        fill: url(#linear-gradient-13);
      }

      .cls-18 {
        fill: url(#linear-gradient-23);
      }

      .cls-19 {
        fill: url(#linear-gradient-25);
      }

      .cls-20 {
        fill: url(#linear-gradient-16);
      }

      .cls-21 {
        fill: url(#linear-gradient-22);
      }

      .cls-23 {
        fill: url(#linear-gradient-35);
      }

      .cls-46, .cls-42 {
        opacity: .3;
      }

      .cls-24 {
        fill: url(#linear-gradient-32);
      }

      .cls-25 {
        fill: url(#linear-gradient-20);
      }

      .cls-26 {
        fill: url(#linear-gradient-14);
      }

      .cls-27 {
        fill: url(#linear-gradient-2);
      }

      .cls-28 {
        fill: url(#linear-gradient-7);
      }

      .cls-29 {
        fill: url(#linear-gradient-39);
      }

      .cls-30 {
        fill: url(#linear-gradient-3);
      }

      .cls-31 {
        fill: url(#linear-gradient-9);
      }

      .cls-32 {
        fill: url(#linear-gradient-27);
      }

      .cls-33 {
        fill: url(#linear-gradient-36);
      }

      .cls-34 {
        fill: url(#linear-gradient-8);
      }

      .cls-35 {
        fill: url(#linear-gradient-24);
      }

      .cls-36 {
        fill: url(#linear-gradient-26);
      }

      .cls-37 {
        fill: url(#linear-gradient-18);
      }

      .cls-38 {
        fill: url(#linear-gradient-30);
      }

      .cls-39 {
        fill: url(#linear-gradient-29);
      }

      .cls-40 {
        fill: url(#linear-gradient-28);
      }

      .cls-41 {
        fill: url(#linear-gradient-10);
      }

      .cls-42 {
        fill: url(#linear-gradient);
      }

      .cls-43 {
        fill: url(#linear-gradient-4);
      }

      .cls-44 {
        opacity: .56;
      }

      .cls-45 {
        fill: url(#linear-gradient-37);
      }
    </style>
    <linearGradient id="linear-gradient" x1="3103.52" y1="3603.66" x2="648.29" y2="554.43" gradientUnits="userSpaceOnUse">
      <stop offset="0" stop-color="#b37cff"/>
      <stop offset="1" stop-color="#f895e7"/>
    </linearGradient>
    <linearGradient id="linear-gradient-2" x1="3179.1" y1="941.75" x2="1824.93" y2="2430.22" gradientTransform="translate(-274.63 69.47) rotate(7.75)" xlink:href="#linear-gradient"/>
    <linearGradient id="linear-gradient-3" x1="3492.74" y1="1227.06" x2="2138.55" y2="2715.55" gradientTransform="translate(-274.63 69.47) rotate(7.75)" xlink:href="#linear-gradient"/>
    <linearGradient id="linear-gradient-4" x1="4874.17" y1="-1891" x2="-256.72" y2="2482.38" gradientUnits="userSpaceOnUse">
      <stop offset="0" stop-color="#cb236d"/>
      <stop offset="1" stop-color="#4c246d"/>
    </linearGradient>
    <linearGradient id="linear-gradient-5" x1="5622.52" y1="-1013.03" x2="491.62" y2="3360.36" xlink:href="#linear-gradient-4"/>
    <linearGradient id="linear-gradient-6" x1="84.26" y1="2271.93" x2="4538.44" y2="-2444.86" xlink:href="#linear-gradient-4"/>
    <linearGradient id="linear-gradient-7" x1="889.85" y1="3032.68" x2="5344.05" y2="-1684.13" xlink:href="#linear-gradient-4"/>
    <linearGradient id="linear-gradient-8" x1="-1641.1" y1="1479.39" x2="-1207.16" y2="1479.39" gradientTransform="translate(-1729.37 938.59) rotate(123.02) scale(1 -1)" xlink:href="#linear-gradient"/>
    <linearGradient id="linear-gradient-9" x1="-1186.07" y1="1365.1" x2="-1160.72" y2="1365.1" gradientTransform="translate(-1729.37 938.59) rotate(123.02) scale(1 -1)" xlink:href="#linear-gradient"/>
    <linearGradient id="linear-gradient-10" x1="-1054.52" y1="1558.76" x2="-1037.13" y2="1558.76" gradientTransform="translate(-1729.37 938.59) rotate(123.02) scale(1 -1)" xlink:href="#linear-gradient"/>
    <linearGradient id="linear-gradient-11" x1="-1480.38" y1="1756.58" x2="-1033.41" y2="1756.58" gradientTransform="translate(-1729.37 938.59) rotate(123.02) scale(1 -1)" xlink:href="#linear-gradient"/>
    <linearGradient id="linear-gradient-12" x1="-1524.94" y1="1850.79" x2="-1499.92" y2="1850.79" gradientTransform="translate(-1729.37 938.59) rotate(123.02) scale(1 -1)" xlink:href="#linear-gradient"/>
    <linearGradient id="linear-gradient-13" x1="3.94" y1="1457.39" x2="670.55" y2="-17.24" xlink:href="#linear-gradient"/>
    <linearGradient id="linear-gradient-14" x1="-1899.23" y1="1840.82" x2="-1886.87" y2="1840.82" gradientTransform="translate(-1729.37 938.59) rotate(123.02) scale(1 -1)" xlink:href="#linear-gradient"/>
    <linearGradient id="linear-gradient-15" x1="-1904.24" y1="1701.86" x2="-1661.82" y2="1701.86" gradientTransform="translate(-1729.37 938.59) rotate(123.02) scale(1 -1)" xlink:href="#linear-gradient"/>
    <linearGradient id="linear-gradient-16" x1="-1796.05" y1="1934.26" x2="-1519.37" y2="1934.26" gradientTransform="translate(-1729.37 938.59) rotate(123.02) scale(1 -1)" xlink:href="#linear-gradient"/>
    <linearGradient id="linear-gradient-17" x1="-1826.47" y1="1951.56" x2="-1807.55" y2="1951.56" gradientTransform="translate(-1729.37 938.59) rotate(123.02) scale(1 -1)" xlink:href="#linear-gradient"/>
    <linearGradient id="linear-gradient-18" x1="215.82" y1="1553.17" x2="882.43" y2="78.54" xlink:href="#linear-gradient"/>
    <linearGradient id="linear-gradient-19" x1="1268.04" y1="1779.86" x2="3922.98" y2="-2663.25" gradientUnits="userSpaceOnUse">
      <stop offset="0" stop-color="#fdf53f"/>
      <stop offset="1" stop-color="#d93c65"/>
    </linearGradient>
    <linearGradient id="linear-gradient-20" x1="1533.33" y1="1900.33" x2="4139.28" y2="-2460.78" xlink:href="#linear-gradient-19"/>
    <linearGradient id="linear-gradient-21" x1="7305.99" y1="2624.1" x2="6688.02" y2="3296.28" gradientTransform="translate(-6484.35)" gradientUnits="userSpaceOnUse">
      <stop offset="0" stop-color="#2b3582"/>
      <stop offset="1" stop-color="#150e42"/>
    </linearGradient>
    <linearGradient id="linear-gradient-22" x1="7105.41" y1="2674.02" x2="7160.3" y2="2674.02" gradientTransform="translate(-6484.35)" gradientUnits="userSpaceOnUse">
      <stop offset="0" stop-color="#f9b776"/>
      <stop offset="1" stop-color="#f47960"/>
    </linearGradient>
    <linearGradient id="linear-gradient-23" x1="7354.65" y1="1863.93" x2="6828.81" y2="2576.63" xlink:href="#linear-gradient-21"/>
    <linearGradient id="linear-gradient-24" x1="7167.36" y1="2496.64" x2="6549.38" y2="3168.83" xlink:href="#linear-gradient-21"/>
    <linearGradient id="linear-gradient-25" x1="6907.58" y1="2671.21" x2="6954.97" y2="2671.21" xlink:href="#linear-gradient-22"/>
    <linearGradient id="linear-gradient-26" x1="7260.94" y1="1794.78" x2="6735.1" y2="2507.49" xlink:href="#linear-gradient-21"/>
    <linearGradient id="linear-gradient-27" x1="590.65" y1="1477.66" x2="1428.97" y2="33.33" xlink:href="#linear-gradient-19"/>
    <linearGradient id="linear-gradient-28" x1="-3548.88" y1="915.23" x2="-3452.03" y2="1191.94" gradientTransform="translate(-2464.75) rotate(-180) scale(1 -1)" xlink:href="#linear-gradient-22"/>
    <linearGradient id="linear-gradient-29" x1="-3631.66" y1="944.2" x2="-3534.81" y2="1220.91" gradientTransform="translate(-2464.75) rotate(-180) scale(1 -1)" xlink:href="#linear-gradient-22"/>
    <linearGradient id="linear-gradient-30" x1="-3557.26" y1="1120.99" x2="-3630.21" y2="973.83" gradientTransform="translate(-2464.75) rotate(-180) scale(1 -1)" xlink:href="#linear-gradient-22"/>
    <linearGradient id="linear-gradient-31" x1="416.28" y1="1376.45" x2="1254.6" y2="-67.88" xlink:href="#linear-gradient-19"/>
    <linearGradient id="linear-gradient-32" x1="6717.64" y1="1639.19" x2="7072.53" y2="1639.19" xlink:href="#linear-gradient-22"/>
    <linearGradient id="linear-gradient-33" x1="858.45" y1="1214.24" x2="675.63" y2="1712.83" gradientTransform="matrix(1,0,0,1,0,0)" xlink:href="#linear-gradient-21"/>
    <linearGradient id="linear-gradient-34" x1="4505.13" y1="8654.19" x2="4327.85" y2="9119.54" gradientTransform="translate(-6484.35)" gradientUnits="userSpaceOnUse">
      <stop offset="0" stop-color="#53d8ff"/>
      <stop offset="1" stop-color="#3840f7"/>
    </linearGradient>
    <linearGradient id="linear-gradient-35" x1="4509.91" y1="8656.01" x2="4332.63" y2="9121.36" xlink:href="#linear-gradient-34"/>
    <linearGradient id="linear-gradient-36" x1="7046.18" y1="1601.98" x2="7156.75" y2="1601.98" xlink:href="#linear-gradient-22"/>
    <linearGradient id="linear-gradient-37" x1="6990.15" y1="1259.79" x2="7130.46" y2="1259.79" xlink:href="#linear-gradient-22"/>
    <linearGradient id="linear-gradient-38" x1="-225.8" y1="3029.26" x2="-278.23" y2="2856.33" gradientTransform="translate(-1169.26 -1239.66) rotate(-41.75)" xlink:href="#linear-gradient-22"/>
    <linearGradient id="linear-gradient-39" x1="-273.1" y1="2727.95" x2="-229.24" y2="2978.11" gradientTransform="translate(-1169.26 -1239.66) rotate(-41.75)" xlink:href="#linear-gradient-21"/>
    <linearGradient id="linear-gradient-40" x1="-279.39" y1="3028.46" x2="-326.57" y2="2872.87" gradientTransform="translate(-1169.26 -1239.66) rotate(-41.75)" xlink:href="#linear-gradient-22"/>
  </defs>
  <path class="cls-42" d="m2428.07,2401.16c-56.4,59.37-109.76,97.66-151.92,127.91-495.58,355.58-1081.97,251.93-1206.6,226.62-184.03-37.38-539.77-109.63-796.95-412.08C-116.5,1886.03-55.91,1165.12,245.9,689.25c55.21-87.05,346.83-570.17,939.54-647.65,358.7-46.89,776.84,47.68,1079.64,301.37,635.61,532.51,590.36,1608.28,162.99,2058.19Z"/>
  <g>
    <path class="cls-27" d="m1877.51,2696.05c-4.77-.65-9.05-3.17-11.92-7.03-41.83-56.37-345.98-497.52,58.8-900.77,384.26-382.81,558.44-461.41,581.61-686.33,2.7-26.27,38.21-32.57,49.9-8.89,87.31,176.97,223.35,589.92-226.83,860.97-496.6,298.99-455.9,626.75-431.89,719.89,3.17,12.31-7.08,23.89-19.67,22.17h0Z"/>
    <path class="cls-30" d="m1939.1,2704.43c-11.3-1.54-20.25-10.25-21.99-21.52-11.86-76.71-40.97-363.37,170.21-439.38,232.48-83.68,420.17,132.83,591.06-36.63,8.99-8.92,24.11-1.15,21.97,11.33-15.22,88.52-82.96,293.56-384.38,334.82-322.62,44.16-358.93,81.17-352.41,127.08,2.01,14.15-10.28,26.23-24.45,24.3h0Z"/>
    <path class="cls-10" d="m2494.77,1331.22c-3.94,16.69-9.18,32.34-15.43,47.89-6.14,15.53-13.21,30.67-20.92,45.48-15.26,29.73-33.58,57.85-53.63,84.64-40.38,53.45-89.23,100.4-143.07,140.21-26.85,19.79-55.56,37.98-83.94,54.42-27.63,16.03-54.22,33.96-79.68,53.38-50.97,38.83-97.18,83.89-137.99,133.29-81.3,98.88-139,218.22-158,345.27-9.69,63.38-9.81,128.28-1.08,192.19,8.63,63.99,26.87,126.66,50.92,187.07,1.3,3.22-.26,6.89-3.48,8.18-3.09,1.25-6.62-.18-8.04-3.15-28.13-59.7-49.14-123.18-60.77-188.72-5.95-32.74-9.46-65.98-10.47-99.36-.8-33.37.6-66.88,4.81-100.09,8.08-66.48,26.83-131.6,53.84-192.91,27.09-61.33,62.87-118.62,104.67-170.88,41.78-52.33,90.26-99.15,143.27-140.05,26.56-20.4,54.32-39.28,83.31-56.24,28.38-16.28,55.31-32.83,81.4-51.66,52.08-37.2,100.2-80.14,141.6-129.15,20.96-24.29,39.94-50.29,57.28-77.39,17-27.15,32.88-55.81,44.32-85.43l.15-.38c1.14-2.96,4.46-4.43,7.42-3.29,2.71,1.05,4.17,3.92,3.52,6.67Z"/>
    <path class="cls-10" d="m1925.71,2652.4c.99-2.78.68-5.36.59-8.01l-.25-7.91-.18-15.8c.02-10.53.25-21.07.71-31.59.94-21.05,2.73-42.07,5.55-62.99,5.74-41.77,15.21-83.41,32.07-122.64,16.67-38.95,41.92-76.18,78.56-100.5,18.25-11.94,38.85-20.44,60.19-24.76,21.32-4.49,43.23-5.16,64.66-3.28,83.98,9.74,166.3,25.84,248.83,38.92,41.11,6.13,82.8,11.6,123.16,6.08,10.03-1.47,19.91-3.66,29.51-6.74,9.5-3.31,18.83-7.2,27.55-12.31,17.55-10.02,32.99-23.72,46.78-38.93l.04-.05c1.9-2.09,5.14-2.25,7.23-.35,2.07,1.87,2.24,5.05.43,7.15-13.97,16.09-29.95,30.97-48.61,42.17-9.27,5.69-19.26,10.13-29.46,13.92-10.29,3.56-20.87,6.14-31.54,7.93-42.99,6.3-85.6.94-127.18-4.76-41.7-5.93-82.88-13.67-124.2-20.35-41.19-6.71-82.87-13.19-123.89-18-20.25-1.96-40.73-1.48-60.47,2.5-19.78,3.82-38.68,11.45-55.59,22.29-34.1,21.71-58.84,56.26-75.63,93.66-17,37.59-27.09,78.28-33.5,119.34-3.15,20.57-5.31,41.31-6.62,62.12-.65,10.4-1.06,20.82-1.27,31.24l-.11,15.63.1,7.81c.07,2.58-.05,5.24,1.22,7.69,1.21,2.33.3,5.2-2.03,6.41-2.33,1.21-5.2.3-6.41-2.03-.63-1.21-.68-2.57-.26-3.76l.03-.09Z"/>
  </g>
  <g>
    <g>
      <path class="cls-43" d="m1486.91,31.67c-126.53-1-254.16,19.07-367.08,65.92-262.85,109.06-485.93,397.64-398.63,692.41,28.36,95.75,13.46,201.4,108.85,243.01,51.61,22.52,192.17,35.92,245.61,18.17,142.04-47.16,235.41-176.23,158.15-319.36-24.74-45.84-56.76-87.71-78.12-135.21-21.36-47.5-31.1-103.89-9.32-151.21,42.75-92.88,184.78-122.4,276.88-119.62,108.71,3.29,207.2,57.06,265.7,149.29,72.91,114.95,91.38,254.78,80.71,388.21-11.42,142.78-71.62,251.82-161.84,361.35-77.68,94.3-163.22,184.82-214.85,295.56-47.4,101.66-62.89,214.3-65.03,325.51-.41,21.56-107.61,224.69-107.15,286.75.07,8.77,121.58,37.81,130.35,37.91,45.75.51,175.34,1.96,223.03,2.49,9.81.11,17.89-7.73,18-17.54,3.39-301.93,96.27-589.79,331.36-792.57,85.54-73.79,177.67-133.87,244.19-227,94.81-132.74,141.58-263.37,128.08-427.2-12.33-149.62-61.6-299.32-159.12-415.41-104.82-124.77-258.24-202.69-417.7-236.31-74.36-15.68-153.01-24.53-232.08-25.15Z"/>
      <path class="cls-13" d="m1720.25,2511.33c0,138.84-76.96,261.68-215.8,261.68-29.99,0-132,.28-158.67-9.36-96.79-34.97-97.14-109.33-97.14-218.17,0-138.84,46.88-275.39,185.73-275.39s285.89,102.4,285.89,241.25Z"/>
    </g>
    <g>
      <path class="cls-9" d="m1366.69.04c-126.53-1-254.16,19.07-367.08,65.92-262.85,109.06-485.93,397.64-398.63,692.41,28.36,95.75,93.93,216.29,189.32,257.9,51.61,22.52,111.7,21.02,165.14,3.28,142.04-47.16,235.41-176.23,158.16-319.36-24.74-45.84-56.76-87.71-78.12-135.21-21.36-47.5-31.1-103.89-9.32-151.21,42.75-92.88,184.78-122.4,276.88-119.62,108.71,3.29,207.2,57.06,265.7,149.29,72.91,114.96,91.38,254.78,80.71,388.21-11.42,142.78-71.62,251.82-161.84,361.35-77.68,94.3-163.22,184.82-214.85,295.56-47.4,101.66-62.89,214.3-65.03,325.51-.41,21.56,6.84,246.66,7.3,308.72.07,8.77,7.13,15.85,15.89,15.95,45.75.51,175.34,1.96,223.03,2.49,9.81.11,17.89-7.73,18-17.54,3.39-301.93,96.27-589.79,331.36-792.57,85.54-73.79,177.67-133.87,244.19-227,94.81-132.74,141.58-263.37,128.08-427.2-12.33-149.62-61.59-299.32-159.12-415.41-104.82-124.77-258.24-202.69-417.7-236.31C1524.41,9.51,1445.76.66,1366.69.04Z"/>
      <circle class="cls-28" cx="1379.8" cy="2513.84" r="251.4"/>
    </g>
    <path class="cls-22" d="m684.19,729.49c-1.48,0-2.81-1.02-3.15-2.53-17.62-79.55-20.2-204.12,67.52-345.82,85.62-138.31,205.73-230.86,356.98-275.07,161.68-47.26,353.65-37.14,570.57,30.07,1.7.53,2.65,2.33,2.13,4.04-.53,1.7-2.33,2.65-4.04,2.13-215.69-66.83-406.4-76.94-566.85-30.04-149.68,43.75-268.55,135.36-353.31,272.28-86.58,139.86-84.07,262.65-66.71,341.03.39,1.74-.71,3.46-2.45,3.85-.24.05-.47.08-.7.08Z"/>
    <path class="cls-22" d="m737.07,857.48c-.99,0-1.98-.46-2.61-1.32-.76-1.04-18.88-26.07-35.72-70.16-.64-1.67.2-3.53,1.86-4.17,1.67-.63,3.53.2,4.17,1.86,16.54,43.29,34.73,68.41,34.91,68.66,1.05,1.44.74,3.46-.7,4.51-.57.42-1.24.62-1.9.62Z"/>
    <path class="cls-22" d="m1463.92,2350.9c-.49,0-.99-.11-1.46-.35-25.76-13.07-53.57-19.69-82.66-19.69-1.78,0-3.23-1.44-3.23-3.23s1.44-3.23,3.23-3.23c30.12,0,58.91,6.86,85.58,20.39,1.59.81,2.22,2.75,1.42,4.34-.57,1.12-1.7,1.77-2.88,1.77Z"/>
    <path class="cls-22" d="m1275.69,2671.47c-.62,0-1.25-.18-1.8-.55-52.3-35.33-83.52-94.05-83.52-157.08,0-69.87,38.27-133.85,99.87-166.97,1.57-.85,3.52-.25,4.37,1.32.84,1.57.25,3.53-1.31,4.37-59.51,31.99-96.47,93.79-96.47,161.28,0,60.88,30.16,117.61,80.68,151.73,1.48,1,1.86,3,.87,4.48-.62.92-1.64,1.42-2.68,1.42Z"/>
  </g>
  <g>
    <g>
      <g class="cls-46">
        <path class="cls-34" d="m543.53,470.33c-2.64,3.27-7.44,3.77-10.7,1.13-6.34-5.14-13.01-10.07-19.8-14.68-3.44-2.33-4.37-6.98-2.11-10.44.03-.04.05-.08.08-.12,2.36-3.48,7.09-4.39,10.57-2.03,7.15,4.84,14.17,10.04,20.84,15.45,3.05,2.47,3.69,6.83,1.6,10.05-.14.22-.3.44-.47.65Zm-65.11-33.68c-7.35-3.63-14.93-6.98-22.54-9.96-3.91-1.53-5.84-5.95-4.31-9.86,1.55-3.92,5.95-5.84,9.86-4.31,8,3.13,15.98,6.66,23.72,10.48,3.77,1.86,5.31,6.42,3.45,10.19-.14.27-.28.54-.45.79-2.07,3.19-6.25,4.39-9.74,2.67Zm-60.72-21.94c-7.96-1.9-16.09-3.47-24.19-4.68-4.15-.62-7.02-4.49-6.4-8.65.62-4.15,4.49-7.02,8.65-6.4,8.52,1.27,17.09,2.93,25.47,4.93,4.09.97,6.61,5.08,5.64,9.17-.21.87-.56,1.67-1.02,2.38-1.7,2.62-4.93,4.02-8.15,3.25Zm-64.1-7.81c-8.19-.07-16.48.21-24.63.84-4.19.32-7.85-2.81-8.17-7-.32-4.19,2.82-7.84,7-8.17,8.59-.66,17.31-.96,25.93-.89,4.2.04,7.58,3.47,7.54,7.67-.01,1.5-.46,2.9-1.22,4.07-1.37,2.11-3.75,3.49-6.45,3.47Zm-64.24,6.67c-7.98,1.75-16,3.86-23.84,6.28-4.02,1.24-8.28-1.01-9.52-5.02-1.24-4.02,1.01-8.28,5.02-9.51,8.24-2.55,16.68-4.77,25.08-6.61,4.1-.9,8.16,1.7,9.06,5.81.45,2.07.02,4.12-1.05,5.77-1.05,1.62-2.72,2.84-4.75,3.29Zm-61.16,20.72c-7.41,3.47-14.76,7.31-21.85,11.39-3.64,2.1-8.29.85-10.39-2.79-2.1-3.64-.85-8.29,2.79-10.39,7.46-4.3,15.2-8.34,23-11.99,3.81-1.78,8.33-.14,10.12,3.66,1.16,2.47.87,5.25-.51,7.38-.75,1.15-1.81,2.11-3.15,2.74Zm-171.46,224.53c-4.15-.63-7.02-4.5-6.39-8.66,1.28-8.51,2.96-17.08,4.98-25.47.98-4.09,5.09-6.6,9.18-5.62,4.08.98,6.6,5.09,5.62,9.17-1.92,7.97-3.5,16.1-4.72,24.19-.17,1.11-.57,2.12-1.14,3.01-1.58,2.42-4.47,3.84-7.52,3.38Zm116.45-190.79c-6.45,5.03-12.76,10.4-18.75,15.97-3.08,2.86-7.89,2.68-10.75-.4-2.86-3.08-2.67-7.88.4-10.75,6.31-5.86,12.95-11.52,19.74-16.81,3.31-2.58,8.09-1.99,10.68,1.32,2.05,2.63,2.1,6.18.38,8.83-.45.69-1.02,1.32-1.7,1.85Zm-100.88,126.34c-3.91-1.54-5.83-5.96-4.29-9.87,3.16-8.01,6.7-15.98,10.53-23.71,1.85-3.78,6.43-5.3,10.2-3.44,3.76,1.87,5.3,6.43,3.44,10.2-3.64,7.34-7.01,14.92-10.01,22.53-.19.49-.43.94-.7,1.36-1.93,2.97-5.74,4.28-9.17,2.93Zm54.8-81.16c-5.16,6.34-10.11,12.99-14.71,19.76-2.36,3.48-7.09,4.38-10.57,2.01-3.43-2.33-4.35-6.97-2.1-10.43.03-.04.06-.09.09-.13,4.85-7.13,10.06-14.13,15.48-20.81,2.65-3.26,7.44-3.75,10.7-1.1,3.05,2.47,3.68,6.82,1.58,10.04-.15.23-.31.45-.48.66Z"/>
        <path class="cls-31" d="m61.1,708.77c.82-1.26,1.27-2.77,1.22-4.38-.12-3.92-.17-7.91-.13-11.86.04-4.2-3.34-7.64-7.54-7.68-4.2-.04-7.65,3.33-7.68,7.54-.04,4.15,0,8.35.14,12.47.13,4.2,3.64,7.5,7.84,7.37,2.59-.08,4.83-1.45,6.15-3.46Z"/>
      </g>
      <g class="cls-46">
        <path class="cls-41" d="m158.33,919.35c2-3.08,1.53-7.24-1.28-9.78-2.91-2.63-5.81-5.37-8.63-8.13-3-2.94-7.82-2.9-10.76.1-2.96,3.01-2.9,7.82.1,10.76,2.96,2.91,6.02,5.79,9.08,8.56,3.12,2.82,7.93,2.58,10.75-.54.28-.31.52-.63.74-.96Z"/>
        <path class="cls-12" d="m597.05,873.78c-2.46,3.41-7.21,4.18-10.62,1.71-3.41-2.46-4.17-7.21-1.71-10.62,4.68-6.49,9.16-13.27,13.37-20.25,2.15-3.59,6.85-4.75,10.44-2.59,3.6,2.17,4.76,6.85,2.59,10.44-1.82,3.02-3.69,6-5.59,8.94-2.72,4.19-5.57,8.35-8.47,12.36Zm23.01-54.19c-3.86-1.66-5.64-6.14-3.97-10,3.19-7.41,6.11-15.03,8.66-22.66,1.32-3.98,5.64-6.13,9.63-4.8,3.98,1.33,6.13,5.64,4.8,9.63-2.69,8.03-5.75,16.05-9.11,23.85-.17.4-.38.79-.61,1.14-1.98,3.05-5.93,4.32-9.39,2.83Zm-49.52,86.07c-5.85,6.12-12.03,12.08-18.39,17.7-3.15,2.78-7.96,2.49-10.74-.66-2.78-3.15-2.48-7.95.66-10.74,6.04-5.34,11.92-10.99,17.47-16.81,2.9-3.04,7.72-3.15,10.76-.25,2.69,2.57,3.08,6.63,1.13,9.64-.25.39-.55.77-.88,1.12Zm70.19-147.95c-4.13-.77-6.85-4.75-6.07-8.88,1.49-7.92,2.65-15.99,3.46-24,.42-4.18,4.15-7.23,8.34-6.8,4.18.42,7.22,4.15,6.8,8.33-.85,8.43-2.08,16.94-3.65,25.27-.19,1.01-.57,1.93-1.09,2.74-1.63,2.51-4.67,3.92-7.79,3.33Zm-121.44,190.89c-7.04,4.68-14.39,9.13-21.83,13.22-3.68,2.02-8.31.68-10.33-3-2.03-3.68-.68-8.31,3-10.33,7.07-3.88,14.04-8.11,20.73-12.55,3.5-2.33,8.22-1.37,10.55,2.13,1.73,2.61,1.65,5.89.04,8.36-.55.84-1.28,1.59-2.17,2.19Zm-59.42,30.66c-7.92,3.04-16.05,5.77-24.19,8.14-4.04,1.17-8.26-1.15-9.43-5.18-1.17-4.04,1.15-8.26,5.18-9.43,7.73-2.25,15.46-4.85,22.98-7.73,3.92-1.51,8.32.46,9.83,4.38.91,2.36.55,4.9-.73,6.87-.85,1.3-2.09,2.36-3.65,2.95Zm-64.69,16.98c-8.39,1.24-16.94,2.14-25.38,2.68-4.19.27-7.81-2.92-8.07-7.11-.27-4.2,2.92-7.81,7.11-8.07,8.03-.51,16.14-1.36,24.12-2.54,4.16-.61,8.02,2.26,8.64,6.41.28,1.91-.17,3.76-1.14,5.26-1.15,1.77-3.02,3.05-5.27,3.38Zm-66.85,2.46c-8.46-.62-17-1.62-25.36-2.95-4.15-.66-6.98-4.56-6.31-8.71.66-4.14,4.56-6.97,8.71-6.31,7.94,1.27,16.05,2.21,24.09,2.8,4.19.31,7.34,3.96,7.03,8.15-.1,1.32-.53,2.54-1.2,3.58-1.46,2.25-4.07,3.66-6.94,3.45Zm-65.8-12.29c-8.1-2.47-16.2-5.31-24.07-8.46-3.9-1.56-5.8-5.99-4.24-9.89,1.56-3.89,5.98-5.8,9.89-4.24,7.48,2.99,15.17,5.7,22.87,8.04,4.02,1.22,6.28,5.48,5.06,9.49-.21.7-.52,1.35-.9,1.93-1.8,2.77-5.28,4.14-8.6,3.13Zm-61.43-26.41c-5.43-3.07-10.83-6.35-16.05-9.75-1.89-1.23-3.76-2.47-5.62-3.74-3.47-2.36-4.47-7.1-2-10.57,2.36-3.47,7.1-4.37,10.57-2.01,1.76,1.2,3.54,2.39,5.34,3.55,4.96,3.23,10.09,6.34,15.26,9.26,3.66,2.07,4.94,6.71,2.87,10.37-.08.14-.16.27-.24.4-2.17,3.35-6.61,4.46-10.12,2.47Z"/>
        <path class="cls-2" d="m653.37,689.13c.82-1.27,1.28-2.79,1.22-4.42-.15-4.12-.39-8.31-.71-12.46-.33-4.19-3.99-7.32-8.17-7-4.19.33-7.32,3.98-7,8.17.31,3.94.53,7.92.68,11.83.15,4.2,3.68,7.48,7.88,7.33,2.57-.09,4.8-1.46,6.11-3.46Z"/>
      </g>
      <g>
        <path class="cls-17" d="m557.94,600.22c-.46-1.44-1.79-2.44-3.31-2.47l-43.27-.95c-10.39-17.33-23.63-33.13-39.46-46.62l6.17-42.81c.22-1.5-.54-2.97-1.89-3.67l-46.16-23.75c-1.35-.69-2.99-.46-4.09.59l-31.25,29.9c-20.18-5.05-40.72-6.64-60.87-5.02l-25.92-34.66c-.91-1.21-2.49-1.72-3.93-1.26l-49.43,15.84c-1.44.46-2.44,1.79-2.47,3.31l-.95,43.27c-17.33,10.39-33.13,23.63-46.62,39.46l-42.81-6.17c-1.5-.22-2.98.54-3.67,1.89l-23.76,46.16c-.69,1.35-.46,2.99.59,4.09l29.9,31.25c-5.05,20.18-6.64,40.72-5.02,60.87l-34.66,25.92c-1.21.91-1.72,2.49-1.26,3.93l15.84,49.43c.46,1.44,1.79,2.44,3.31,2.47l43.27.95c10.39,17.33,23.63,33.13,39.46,46.62l-6.17,42.81c-.22,1.5.54,2.98,1.89,3.67l46.16,23.75c1.35.69,2.99.46,4.09-.59l31.25-29.9c20.18,5.05,40.72,6.63,60.87,5.02l25.92,34.66c.91,1.21,2.49,1.72,3.93,1.26l49.43-15.84c1.44-.46,2.44-1.79,2.47-3.31l.95-43.27c17.33-10.39,33.13-23.63,46.62-39.46l42.81,6.17c1.5.22,2.97-.54,3.67-1.89l23.75-46.16c.69-1.35.46-2.99-.59-4.09l-29.9-31.25c5.05-20.18,6.63-40.72,5.02-60.87l34.66-25.92c1.21-.91,1.72-2.49,1.26-3.93l-15.84-49.43Z"/>
        <path class="cls-44" d="m387.95,728.99c-19.03,21.58-52.06,23.66-73.65,4.63-10.46-9.22-16.69-21.95-17.57-35.86-.88-13.91,3.72-27.33,12.94-37.78,19.03-21.58,52.06-23.66,73.65-4.63,19.63,17.31,23.13,46.22,9.27,67.54-1.37,2.11-2.92,4.16-4.64,6.1Zm-79.07-32c.67,10.67,5.45,20.43,13.47,27.5,16.55,14.59,41.88,12.99,56.47-3.55,14.6-16.55,12.99-41.88-3.55-56.47-16.55-14.59-41.88-12.99-56.47,3.55-1.32,1.5-2.52,3.08-3.59,4.73-4.65,7.15-6.87,15.57-6.33,24.24Z"/>
        <path class="cls-44" d="m455.2,764.85c2.38-3.66,4.59-7.47,6.62-11.4h0c.64-1.24,1.26-2.49,1.85-3.75,2.95-6.21,5.4-12.64,7.31-19.2.03-.09.05-.18.08-.27.07-.25.15-.51.22-.76.14-.49.28-.99.41-1.49.35-1.31-.2-2.64-1.28-3.34-.26-.17-.55-.3-.87-.39-1.62-.44-3.29.53-3.73,2.15-2.25,8.35-5.41,16.51-9.4,24.27-19.81,38.51-57.39,62.04-97.61,65.75-22.37,2.07-45.57-1.99-66.98-13.01-3.76-1.93-7.39-4.04-10.88-6.31-23.51-15.28-40.91-38-49.58-65.06-9.96-31.09-7.22-64.19,7.72-93.22,30.86-59.94,104.68-83.58,164.59-52.74,3.69,1.9,7.28,3.98,10.74,6.23,15,9.75,27.69,22.67,37.13,37.88.24.39.56.71.93.95.96.62,2.23.68,3.26.03,1.43-.89,1.87-2.76.98-4.19-9.91-15.97-23.24-29.54-38.99-39.77-3.63-2.36-7.39-4.55-11.27-6.54-62.91-32.38-140.43-7.52-172.79,55.37-15.68,30.47-18.56,65.23-8.1,97.86,9.1,28.41,27.36,52.26,52.05,68.3,3.67,2.38,7.48,4.6,11.42,6.63,30.47,15.68,65.23,18.56,97.86,8.1,28.42-9.11,52.27-27.38,68.31-52.07Z"/>
      </g>
    </g>
    <g>
      <g class="cls-46">
        <path class="cls-26" d="m853.58,361.23c1.11-1.7,1.02-4-.38-5.62-2.6-3.03-5.32-6.02-8.1-8.89-1.8-1.86-4.78-1.91-6.64-.11-1.88,1.8-1.91,4.78-.11,6.64,2.65,2.73,5.24,5.58,7.72,8.47,1.69,1.97,4.65,2.19,6.63.51.35-.3.64-.64.88-1.01Z"/>
        <path class="cls-11" d="m827.34,336.46c-1.63,2.02-4.59,2.34-6.61.71-5.1-4.11-10.47-8-15.96-11.57-1.16-.75-2.33-1.49-3.51-2.23-2.2-1.37-2.88-4.26-1.51-6.47,1.38-2.03,4.26-2.88,6.47-1.51,1.24.77,2.46,1.54,3.67,2.33,5.76,3.74,11.39,7.82,16.74,12.13,1.89,1.52,2.29,4.22,1,6.22-.09.13-.18.26-.28.39Zm-47.09-24.41c-7.21-3.33-14.68-6.25-22.23-8.67-2.47-.79-3.83-3.44-3.04-5.91.79-2.46,3.44-3.83,5.91-3.04,7.9,2.53,15.74,5.59,23.3,9.09,2.36,1.09,3.38,3.88,2.29,6.24-.1.21-.21.4-.33.59-1.25,1.93-3.76,2.69-5.91,1.7Zm-45.36-14.53c-7.79-1.47-15.76-2.46-23.68-2.94-2.59-.16-4.56-2.39-4.4-4.98.16-2.6,2.38-4.56,4.98-4.4,8.31.51,16.67,1.55,24.84,3.09,2.55.48,4.23,2.94,3.75,5.49-.12.62-.35,1.19-.68,1.69-1.01,1.55-2.88,2.42-4.81,2.06Zm-47.54-2.94c-7.93.49-15.9,1.48-23.67,2.94-2.55.48-5.01-1.2-5.48-3.75-.48-2.54,1.2-5,3.75-5.48,8.16-1.53,16.51-2.57,24.83-3.08,2.59-.16,4.82,1.81,4.98,4.4.06,1.04-.22,2.03-.75,2.85-.78,1.21-2.11,2.04-3.65,2.13Zm-46.82,8.76c-7.56,2.4-15.05,5.3-22.25,8.6-2.36,1.08-5.15.05-6.23-2.31-1.08-2.36-.05-5.15,2.31-6.23,7.55-3.46,15.4-6.49,23.32-9.02,2.47-.78,5.12.58,5.9,3.05.44,1.4.2,2.85-.54,3.99-.57.88-1.44,1.57-2.52,1.92Zm-43.28,19.86c-6.75,4.17-13.29,8.79-19.46,13.76-2.02,1.63-4.98,1.31-6.61-.72-1.62-2.02-1.31-4.97.72-6.61,6.47-5.2,13.34-10.06,20.42-14.43,2.21-1.36,5.1-.68,6.47,1.53.99,1.6.9,3.56-.06,5.03-.37.56-.86,1.06-1.47,1.44Zm-37.09,29.83c-5.5,5.68-10.72,11.78-15.5,18.13-1.56,2.07-4.51,2.48-6.58.92-2.07-1.56-2.46-4.48-.93-6.58,5.02-6.66,10.49-13.05,16.26-19.01,1.81-1.86,4.78-1.91,6.65-.11,1.64,1.59,1.87,4.08.67,5.93-.16.25-.35.49-.57.71Zm-45.45,61.9c-2.39-1.01-3.51-3.77-2.49-6.16,2.8-6.62,6.01-13.19,9.53-19.53.53-.97,1.07-1.92,1.62-2.87,1.23-2.27,4.17-3.02,6.42-1.71,2.25,1.3,3.01,4.17,1.72,6.42-.52.89-1.02,1.79-1.53,2.71-3.37,6.06-6.44,12.34-9.11,18.65-.11.26-.24.51-.39.73-1.22,1.88-3.64,2.66-5.77,1.76Z"/>
      </g>
      <g class="cls-46">
        <path class="cls-20" d="m867.76,600.74c-4.55,6.81-9.56,13.4-14.88,19.59-1.69,1.96-4.66,2.19-6.63.5-1.97-1.69-2.16-4.66-.5-6.63,5.08-5.9,9.85-12.19,14.19-18.68,1.44-2.16,4.36-2.74,6.52-1.3,2.14,1.43,2.73,4.32,1.33,6.47-.01.02-.02.04-.04.05Zm6.11-19.18c-2.31-1.17-3.24-4-2.06-6.31,3.53-6.96,6.67-14.21,9.34-21.54.89-2.42,3.58-3.7,6.03-2.8,2.44.89,3.69,3.58,2.81,6.02-2.8,7.68-6.09,15.28-9.79,22.57-.08.15-.16.3-.25.44-1.29,1.99-3.9,2.72-6.06,1.62Zm-38.15,56.42c-6.07,5.51-12.52,10.7-19.18,15.41-2.12,1.5-5.05,1-6.55-1.12-1.5-2.12-1-5.04,1.12-6.55,6.36-4.5,12.51-9.45,18.3-14.7,1.92-1.74,4.89-1.6,6.63.32,1.47,1.62,1.6,3.97.46,5.72-.22.33-.48.64-.78.92Zm55.61-101.14c-2.53-.58-4.11-3.11-3.52-5.63,1.75-7.61,3.05-15.39,3.86-23.15.27-2.58,2.59-4.45,5.16-4.19,2.58.27,4.46,2.58,4.19,5.16-.85,8.14-2.21,16.31-4.05,24.28-.13.55-.35,1.06-.64,1.51-1.05,1.61-3.02,2.47-4.99,2.02Zm-95.69,129.51c-7.2,3.88-14.7,7.36-22.32,10.35-2.42.95-5.14-.25-6.09-2.66-.95-2.42.24-5.14,2.66-6.09,7.27-2.84,14.43-6.16,21.29-9.87,2.28-1.23,5.13-.38,6.37,1.91.84,1.56.71,3.4-.2,4.79-.41.64-.99,1.19-1.71,1.57Zm-45.72,17.93c-7.93,2.05-16.06,3.63-24.15,4.71-2.57.34-4.93-1.46-5.27-4.04-.34-2.57,1.46-4.94,4.04-5.28,7.72-1.03,15.47-2.54,23.04-4.5,2.51-.65,5.08.86,5.72,3.38.34,1.33.08,2.67-.61,3.74-.62.95-1.58,1.68-2.76,1.99Zm-48.7,6.47c-8.2.09-16.47-.32-24.59-1.22-2.58-.29-4.44-2.61-4.15-5.19.29-2.58,2.61-4.43,5.19-4.15,7.74.86,15.63,1.26,23.44,1.16,2.6-.03,4.72,2.05,4.75,4.65.01.96-.27,1.86-.75,2.61-.83,1.27-2.26,2.12-3.89,2.14Z"/>
        <path class="cls-3" d="m901.33,486.86c.49-.76.77-1.67.76-2.65-.07-4.02-.27-8.06-.57-12-.2-2.59-2.46-4.52-5.05-4.32-2.58.21-4.52,2.46-4.32,5.05.29,3.76.48,7.61.55,11.45.05,2.6,2.19,4.66,4.79,4.61,1.62-.03,3.03-.88,3.85-2.14Z"/>
      </g>
      <g>
        <path class="cls-37" d="m837.7,423.98c-.31-.97-1.2-1.63-2.21-1.65l-28.95-.64c-6.95-11.6-15.81-22.17-26.41-31.19l4.13-28.64c.14-1-.36-1.99-1.27-2.46l-30.89-15.89c-.9-.47-2-.31-2.73.4l-20.91,20.01c-13.5-3.38-27.25-4.44-40.73-3.36l-17.34-23.19c-.61-.81-1.66-1.15-2.63-.84l-33.08,10.6c-.97.31-1.63,1.2-1.65,2.21l-.64,28.95c-11.6,6.95-22.17,15.81-31.19,26.41l-28.64-4.13c-1-.14-1.99.36-2.46,1.27l-15.9,30.89c-.46.9-.3,2,.4,2.73l20.01,20.91c-3.38,13.5-4.44,27.25-3.36,40.73l-23.19,17.34c-.81.61-1.15,1.66-.84,2.63l10.6,33.08c.31.97,1.2,1.63,2.21,1.65l28.95.64c6.95,11.6,15.81,22.17,26.4,31.19l-4.13,28.64c-.15,1,.36,1.99,1.27,2.45l30.89,15.9c.9.46,2,.3,2.73-.4l20.91-20.01c13.5,3.38,27.25,4.44,40.73,3.36l17.34,23.19c.61.81,1.66,1.15,2.63.84l33.08-10.6c.97-.31,1.63-1.2,1.65-2.21l.64-28.95c11.6-6.95,22.17-15.81,31.19-26.41l28.64,4.13c1,.14,1.99-.36,2.46-1.27l15.9-30.89c.46-.9.31-2-.4-2.73l-20.01-20.91c3.38-13.5,4.44-27.25,3.36-40.73l23.19-17.34c.81-.61,1.15-1.66.84-2.63l-10.6-33.08Z"/>
        <path class="cls-44" d="m724.42,510.56c-6.28,7.13-14.96,11.38-24.43,11.97-9.47.6-18.61-2.53-25.73-8.81-14.7-12.96-16.11-35.42-3.16-50.17,12.97-14.7,35.47-16.11,50.16-3.15,7.12,6.28,11.37,14.95,11.97,24.43.48,7.7-1.49,15.18-5.62,21.54-.95,1.46-2.01,2.86-3.19,4.2Zm-43.95-3.89c5.24,4.62,11.96,6.92,18.93,6.48,6.97-.44,13.35-3.57,17.97-8.8h0c4.61-5.24,6.92-11.96,6.48-18.93-.44-6.97-3.57-13.35-8.8-17.97-10.81-9.53-27.36-8.49-36.9,2.32-.86.98-1.63,2-2.32,3.06-6.94,10.69-5.19,25.17,4.64,33.85Z"/>
        <path class="cls-44" d="m771.23,535.51c1.62-2.49,3.13-5.09,4.52-7.79,2.76-5.36,4.98-11,6.59-16.79.07-.26.14-.52.21-.78.54-2.02-.31-4.08-1.97-5.16-.4-.26-.86-.47-1.35-.6-2.51-.68-5.07.82-5.76,3.32-1.46,5.42-3.51,10.7-6.09,15.71h0c-.14.28-.29.55-.43.82-6.21,11.79-15.13,21.59-25.94,28.79-5.87,3.91-12.3,7.05-19.16,9.31-.06.02-.11.04-.17.06-.17.05-.34.11-.51.17-20.13,6.45-41.56,4.67-60.35-5-2.43-1.25-4.78-2.61-7.04-4.08-15.22-9.89-26.48-24.6-32.1-42.12-6.45-20.13-4.67-41.56,5-60.34,9.67-18.77,26.08-32.69,46.2-39.14,20.13-6.45,41.56-4.67,60.35,5,2.39,1.23,4.71,2.58,6.95,4.03,9.71,6.31,17.93,14.68,24.04,24.53.38.61.87,1.1,1.43,1.46,1.48.96,3.44,1.05,5.04.05,2.2-1.37,2.89-4.26,1.51-6.47-6.84-11.02-16.03-20.38-26.89-27.44-2.51-1.63-5.1-3.14-7.78-4.51-21.03-10.82-45-12.81-67.52-5.59-22.51,7.22-40.88,22.75-51.69,43.79-10.82,21.02-12.81,45-5.59,67.52,6.28,19.6,18.88,36.05,35.91,47.12,2.53,1.64,5.16,3.17,7.88,4.57,40.7,20.95,90.27,7.18,114.69-30.41Z"/>
      </g>
    </g>
  </g>
  <g>
    <polygon class="cls-4" points="1805.23 854.49 1668.59 994.27 1832.5 950.48 1805.23 854.49"/>
    <path class="cls-25" d="m2618.3,912.35l-776.43,37.68c-19.94.97-36.64-14.94-36.64-34.9v-319.43c0-34.72,27.58-63.16,62.28-64.23l699.77-21.65c52.11,0,94.35,42.24,94.35,94.35v262.7c0,24.29-19.07,44.31-43.33,45.48Z"/>
    <path class="cls-6" d="m1865.09,937.2c-12.37,0-24.04-4.66-33.06-13.27-9.59-9.15-14.87-21.49-14.87-34.74v-287.9c0-33.93,27.2-61.33,61.93-62.38l677.53-20.46c51.35,0,93.09,40.75,93.09,90.84v248.21c0,23.88-19.13,43.5-43.56,44.66l-738.72,34.99c-.78.04-1.56.06-2.34.06Zm691.58-415.37l-677.48,20.46c-32.9.99-58.67,26.91-58.67,59.01v287.9c0,12.32,4.91,23.8,13.83,32.3,8.92,8.51,20.62,12.86,32.92,12.29l738.72-34.99.08,1.68-.08-1.68c22.62-1.07,40.35-19.21,40.35-41.29v-248.21c0-48.23-40.23-87.47-89.67-87.47Z"/>
    <path class="cls-7" d="m2554.4,580.07l-620.85,23.24c-6.1.23-10.9,4.27-10.69,9l.23,5.46c.2,4.68,5.23,8.28,11.26,8.06l620.87-22.67c6.1-.22,10.91-4.27,10.71-9l-.26-6.02c-.2-4.69-5.23-8.29-11.27-8.06Z"/>
    <path class="cls-7" d="m2498.84,737.24l-620.85,23.12c-6.1.23-10.89,4.41-10.68,9.31l.24,5.65c.21,4.85,5.24,8.59,11.27,8.37l620.88-22.53c6.1-.22,10.9-4.4,10.69-9.31l-.27-6.24c-.21-4.86-5.25-8.59-11.29-8.37Z"/>
    <path class="cls-7" d="m2571.38,802.99l-692.12,26.13c-6.8.26-12.16,4.5-11.95,9.45l.24,5.71c.21,4.9,5.8,8.65,12.53,8.4l692.14-25.54c6.8-.25,12.17-4.49,11.96-9.45l-.27-6.3c-.21-4.9-5.81-8.66-12.54-8.4Z"/>
    <path class="cls-7" d="m2214.01,672.73l-338.39,9.86c-3.32.1-5.81,4.66-5.54,10.16l.31,6.34c.27,5.45,3.14,9.77,6.43,9.68l338.42-9.21c3.33-.09,5.81-4.65,5.54-10.16l-.35-7c-.27-5.45-3.14-9.77-6.43-9.68Z"/>
    <path class="cls-7" d="m2586.87,661.04l-319.84,9.17c-3.14.09-5.48,4.65-5.2,10.15l.32,6.34c.27,5.45,3,9.77,6.1,9.69l319.88-8.51c3.14-.08,5.48-4.64,5.21-10.15l-.35-7c-.27-5.45-3-9.78-6.11-9.69Z"/>
  </g>
  <g>
    <path class="cls-8" d="m626.3,2674.17s-6.4,36.23-9.54,72.1c-1.23,14.02,9.58,26.19,23.64,26.77,47.76,1.99,149.92,5.86,186.58,4.22,5.51-.25,9.11-5.89,7.08-11.01h0c-1.71-4.29-5.01-7.77-9.21-9.7l-168.76-77.56-29.8-4.82Z"/>
    <path class="cls-21" d="m621.06,2652.88l5.14,43.34s29.56,13.76,49.75-1.73l-12.24-48.3-42.65,6.69Z"/>
    <path class="cls-18" d="m624.92,1838.13c-2.22,11.32-11.92,564.76,47.24,812.77.97,4.05-1.09,8.22-4.94,9.79-9.07,3.71-26.86,9.08-48.18,9.79-6.6.22-12.52-4.07-14.38-10.41-16.91-57.54-97.94-345.85-108.51-621.26-11.81-307.75,0-10.48,0-10.48l6.93-190.23,121.85.02Z"/>
    <path class="cls-35" d="m432.17,2693.07s-10.19,18.29-20.05,66.89c-1.78,8.78,4.35,17.18,13.27,18.05,15.77,1.55,40.05,3.55,59.5,3.41,8.97-.06,15.96-7.87,14.88-16.77-2.15-17.74-8.87-46.85-29.6-69.53l-38-2.06Z"/>
    <path class="cls-19" d="m423.23,2637.33l12.02,65.54s11.88,8.84,35.38,2.43l-5.73-70.51-41.66,2.55Z"/>
    <path class="cls-36" d="m390.77,1855.11c-48.38,292,10.5,721.7,30.35,805.8,1.22,5.15,5.37,9.09,10.59,9.96,8.86,1.47,23.46,2.67,37.84-1.51,4.96-1.44,8.44-5.91,8.64-11.07,2.66-67.99-2.13-485.42,42.95-650.38,2.28-8.36,7.39-15.65,14.45-20.67l87.5-62.21,6.71-100.55-239.04,30.63Z"/>
    <g>
      <path class="cls-32" d="m699.07,1301.83c-145-2.4-304.98,38.07-304.98,38.07-43.22,252.19-7.56,543.07-7.56,543.07,112.25,29.44,238.88-18,238.88-18,18.66-105.41,105.71-402.07,105.71-402.07,70.85-8.79,129.21-29.23,177.27-56.26-36.66-42.49-53.94-96.57-61.45-128.53-51.27,15.93-103.14,24.44-147.86,23.7Z"/>
      <path class="cls-40" d="m1127.37,1088.26c-14.24-17.2-32.27-9.07-32.27-9.07-21.34,90.13-133.22,163.21-248.16,198.93,7.51,31.96,24.79,86.03,61.45,128.53,190.76-107.25,218.98-318.4,218.98-318.4Z"/>
    </g>
    <g>
      <path class="cls-39" d="m1123.91,1092.63c1.49,4.74-15.77,11.95-25.93-7.43-.36-9.29-6-49.08-.45-56.64,29.56-40.3,86.86-90.81,86.86-90.81,9.68,9.56,1.71,18.94,1.71,18.94l-27.8,28.96c5.81,10.51,12.91,19.38,16.23,32.09,2.52,9.62.98,19.91-3.88,28.67-4.88,8.79-11.54,20.22-17.83,29.16-11.91,16.93-28.9,17.05-28.9,17.05Z"/>
      <path class="cls-38" d="m1146.13,1004.45l-25.33,21.48-7.95,21.38,22.59,25.06s7.59-42.42,13.24-51.61c5.64-9.18,2.72-13.62-2.54-16.31Z"/>
    </g>
    <path class="cls-14" d="m449.7,1480.3l-55.61-140.4s-135.44,92.02-157.71,208.7c25.59,1.88,72.16,8.54,117.74,31.56,10.02-55.09,95.59-99.85,95.59-99.85Z"/>
    <path class="cls-24" d="m568.06,1612.41s-152.06,85.94-203.37,12.56c-10.65-15.24-13.2-30.38-10.57-44.82-45.58-23.01-92.15-29.67-117.74-31.56-6.72,35.17-3.16,72.58,17.5,110.39,89.87,164.4,334.3-9.09,334.3-9.09l-20.12-37.49Z"/>
    <g>
      <path class="cls-5" d="m549.79,1721.13l82.99-289.81c.94-3.29,3.75-5.69,7.15-6.09,15.04-1.75,58.6-6.68,108.91-10.93,60.59-5.13,130.96-9.28,173.01-5.75,5.98.5,9.59,6.83,6.93,12.2-23.91,48.38-122.27,245.16-171.52,309.62-1.63,2.14-4.16,3.38-6.84,3.36l-192.55-1.79c-5.6-.05-9.62-5.43-8.07-10.81Z"/>
      <path class="cls-15" d="m757.44,1389.17l60.17-10.03c3.2-.53,5.83,2.53,4.81,5.61l-5.96,18.05c-.52,1.57-1.89,2.71-3.53,2.93l-57.9,7.73c-2.99.4-5.46-2.32-4.78-5.26l3.69-15.76c.4-1.7,1.78-2.99,3.5-3.28Z"/>
      <path class="cls-23" d="m712.39,1440.11l4.96-25.82c.5-2.59,2.64-4.55,5.26-4.81l121.53-12.33c4.09-.42,7.37,3.33,6.41,7.33l-7.73,32.17c-.62,2.57-2.86,4.43-5.5,4.57l-118.76,5.98c-3.87.19-6.89-3.28-6.16-7.09Z"/>
      <path class="cls-33" d="m569.84,1651.11s-11.56-47.54-6.9-64.4c4.66-16.87,13.7-38.55,43.81-33.73,30.12,4.82,65.64,17.51,65.64,17.51,0,0-1.79,21.97-24.68,14.88l14.19,10.98s-2.03,17.59-21.36,8.19l13.2,14.56s-8.3,14.45-22.53,5.18c-14.22-9.27-21.04,32.55-61.38,26.83Z"/>
    </g>
    <path class="cls-45" d="m552.2,1184.12l-46.14,133.42c-.76,2.21.14,4.66,2.19,5.79,12.58,6.95,57.89,27.05,112.49-7.57,5.69-3.61,9.56-9.49,10.42-16.17l14.94-115.48h-93.91Z"/>
    <g>
      <path class="cls-1" d="m652.59,1060.56s50.66,95.37,44.17,133.89c-6.49,38.52-69.28,35.76-124.11,4.47l-38.31-102.97,118.25-35.38Z"/>
      <path class="cls-29" d="m575.07,1148.35c2.23-.99,3.05-3.71,1.72-5.75-4.06-6.2-11.67-18.85-14.1-29.93,0,0-9.11-5.83,23.18-13.56,32.29-7.73,80.44-19.72,90.56-47.21,9.87-26.8-16.06-94.18-57.42-40.49-1.57,2.04-4.66,2.09-6.23.04-6.78-8.83-24.61-27.14-49.36-16.04-23.16,10.39-25.77,27.36-25.45,35.92.09,2.52-2.16,4.47-4.63,4-11.71-2.23-39.81-4.15-52.93,24.68-10.8,23.74-3.78,37.19,2.61,43.76,2.07,2.13,1.16,5.64-1.68,6.51-7.7,2.36-17.63,8.88-16.64,26.91,1.38,24.93,29.24,22.73,37.18,21.59,1.3-.19,2.61.26,3.49,1.23,6.8,7.53,37.46,39.5,70.63,43.35,2.87.33,5.1-2.5,4.16-5.24l-14.36-41.74c-.67-1.94.26-4.06,2.13-4.89l7.12-3.15Z"/>
      <path class="cls-16" d="m580.84,1154.28s-36.07-24.75-38.71-3.91c-2.64,20.84,32.48,30.19,49.88,22.42l-11.17-18.51Z"/>
    </g>
  </g>
</svg>