<svg xmlns="http://www.w3.org/2000/svg" xmlns:xlink="http://www.w3.org/1999/xlink" width="1587" zoomAndPan="magnify" viewBox="0 0 1190.25 842.249997" height="1122" preserveAspectRatio="xMidYMid meet" version="1.0"><defs><clipPath id="dcc9c783d3"><path d="M 0.15625 0 L 1189.347656 0 L 1189.347656 841.5 L 0.15625 841.5 Z M 0.15625 0 " clip-rule="nonzero"/></clipPath></defs><g clip-path="url(#dcc9c783d3)"><path fill="#ffffff" d="M 0.15625 0 L 1192.09375 0 L 1192.09375 850.097656 L 0.15625 850.097656 Z M 0.15625 0 " fill-opacity="1" fill-rule="nonzero"/><path fill="#ffffff" d="M 0.15625 0 L 1189.84375 0 L 1189.84375 841.851562 L 0.15625 841.851562 Z M 0.15625 0 " fill-opacity="1" fill-rule="nonzero"/><path fill="#ffffff" d="M 0.15625 0 L 1189.84375 0 L 1189.84375 841.851562 L 0.15625 841.851562 Z M 0.15625 0 " fill-opacity="1" fill-rule="nonzero"/></g><path fill="#94ccd4" d="M 501.660156 469.257812 C 501.660156 469.257812 478.351562 444.554688 478.351562 444.554688 C 478.351562 444.554688 507.511719 390.230469 507.511719 390.230469 C 507.511719 390.230469 519.988281 368.230469 498.617188 356.757812 C 477.242188 345.285156 466.164062 367.175781 466.164062 367.175781 C 466.164062 367.175781 436.320312 421.554688 436.320312 421.554688 C 436.320312 421.554688 418.082031 454.148438 430.460938 466.160156 C 454.804688 489.769531 502.253906 530.199219 502.253906 530.199219 " fill-opacity="1" fill-rule="nonzero"/><path fill="#94ccd4" d="M 575.234375 549.039062 C 575.234375 549.039062 575.234375 675.199219 575.234375 675.199219 C 575.234375 675.199219 545.445312 675.589844 545.445312 698.136719 C 545.445312 698.136719 621.175781 698.136719 621.175781 698.136719 C 621.175781 698.136719 621.175781 549.039062 621.175781 549.039062 " fill-opacity="1" fill-rule="nonzero"/><path stroke-linecap="round" transform="matrix(0.591665, 0, 0, 0.591665, 572.660916, 637.491259)" fill="none" stroke-linejoin="round" d="M -13.647897 -102.503183 C -13.647897 -102.503183 -13.647897 70.961319 -13.647897 70.961319 C -13.647897 70.961319 -64.002383 71.502694 -64.002383 102.49972 C -64.002383 102.49972 63.999816 102.49972 63.999816 102.49972 C 63.999816 102.49972 63.999816 -102.503183 63.999816 -102.503183 " stroke="#183e55" stroke-width="10" stroke-opacity="1" stroke-miterlimit="4"/><path fill="#94ccd4" d="M 675.226562 559.09375 C 675.226562 559.09375 675.226562 676.746094 675.226562 676.746094 C 675.226562 676.746094 645.4375 677.113281 645.4375 698.136719 C 645.4375 698.136719 721.167969 698.136719 721.167969 698.136719 C 721.167969 698.136719 721.167969 559.09375 721.167969 559.09375 " fill-opacity="1" fill-rule="nonzero"/><path stroke-linecap="round" transform="matrix(0.591665, 0, 0, 0.591665, 671.468982, 637.491259)" fill="none" stroke-linejoin="round" d="M -13.647005 -102.503183 C -13.647005 -102.503183 -13.647005 70.961319 -13.647005 70.961319 C -13.647005 70.961319 -64.001491 71.502694 -64.001491 102.49972 C -64.001491 102.49972 64.000708 102.49972 64.000708 102.49972 C 64.000708 102.49972 64.000708 -102.503183 64.000708 -102.503183 " stroke="#183e55" stroke-width="10" stroke-opacity="1" stroke-miterlimit="4"/><path fill="#94ccd4" d="M 734.214844 579.210938 C 734.214844 579.210938 563.757812 579.210938 563.757812 579.210938 C 534.363281 579.210938 510.535156 555.382812 510.535156 525.992188 C 510.535156 525.992188 510.535156 360.269531 510.535156 360.269531 C 510.535156 330.875 534.363281 307.046875 563.757812 307.046875 C 563.757812 307.046875 734.214844 307.046875 734.214844 307.046875 C 763.605469 307.046875 787.433594 330.875 787.433594 360.269531 C 787.433594 360.269531 787.433594 525.992188 787.433594 525.992188 C 787.433594 555.382812 763.605469 579.210938 734.214844 579.210938 Z M 734.214844 579.210938 " fill-opacity="1" fill-rule="nonzero"/><path stroke-linecap="round" transform="matrix(0.591665, 0, 0, 0.591665, 634.785753, 440.762769)" fill="none" stroke-linejoin="round" d="M 138.049641 229.996812 C 138.049641 229.996812 -138.045055 229.996812 -138.045055 229.996812 C -187.726123 229.996812 -227.999148 189.723786 -227.999148 140.04932 C -227.999148 140.04932 -227.999148 -140.046269 -227.999148 -140.046269 C -227.999148 -189.727337 -187.726123 -230.000362 -138.045055 -230.000362 C -138.045055 -230.000362 138.049641 -230.000362 138.049641 -230.000362 C 187.724107 -230.000362 227.997132 -189.727337 227.997132 -140.046269 C 227.997132 -140.046269 227.997132 140.04932 227.997132 140.04932 C 227.997132 189.723786 187.724107 229.996812 138.049641 229.996812 Z M 138.049641 229.996812 " stroke="#183e55" stroke-width="10" stroke-opacity="1" stroke-miterlimit="4"/><path fill="#94ccd4" d="M 772.386719 464.546875 C 772.386719 464.546875 796.558594 484.308594 796.558594 484.308594 C 796.558594 484.308594 768.332031 546.226562 768.332031 546.226562 C 768.332031 546.226562 753.273438 564.292969 774.839844 575.398438 C 796.40625 586.503906 802.96875 566.796875 802.96875 566.796875 C 802.96875 566.796875 827.144531 513.097656 827.144531 513.097656 C 827.144531 513.097656 844.824219 480.195312 832.238281 468.398438 C 807.496094 445.207031 772.050781 406.542969 772.050781 406.542969 " fill-opacity="1" fill-rule="nonzero"/><path stroke-linecap="round" transform="matrix(0.591665, 0, 0, 0.591665, 805.896344, 496.33899)" fill="none" stroke-linejoin="round" d="M -61.204857 -51.772501 C -61.204857 -51.772501 -16.706466 -15.652219 -16.706466 -15.652219 C -16.706466 -15.652219 -64.413495 76.988943 -64.413495 76.988943 C -64.413495 76.988943 -84.86691 114.528684 -48.416521 133.298555 C -11.966132 152.068426 6.123718 114.759759 6.123718 114.759759 C 6.123718 114.759759 54.986122 21.999758 54.986122 21.999758 C 54.986122 21.999758 84.867386 -33.610027 63.595306 -53.548476 C 21.783983 -92.745353 -56.979491 -152.065538 -56.979491 -152.065538 " stroke="#183e55" stroke-width="10" stroke-opacity="1" stroke-miterlimit="4"/><path stroke-linecap="round" transform="matrix(0.591665, 0, 0, 0.591665, 457.217137, 433.6361)" fill="none" stroke-linejoin="round" d="M 70.7248 54.02632 C 70.7248 54.02632 15.74882 8.570618 15.74882 8.570618 C 15.74882 8.570618 65.027157 -83.245277 65.027157 -83.245277 C 65.027157 -83.245277 86.12098 -120.428503 49.994095 -139.812372 C 13.867211 -159.202844 -4.849842 -122.21108 -4.849842 -122.21108 C -4.849842 -122.21108 -55.290156 -30.302754 -55.290156 -30.302754 C -55.290156 -30.302754 -86.122128 24.785462 -65.193359 45.087028 C -24.055454 84.996936 72.117851 159.204937 72.117851 159.204937 " stroke="#183e55" stroke-width="10" stroke-opacity="1" stroke-miterlimit="4"/><path fill="#183e55" d="M 542.25 448.34375 C 542.636719 452.738281 539.390625 456.617188 534.996094 457.003906 C 530.601562 457.390625 526.726562 454.140625 526.335938 449.746094 C 525.949219 445.351562 529.199219 441.476562 533.59375 441.089844 C 537.988281 440.703125 541.863281 443.949219 542.25 448.34375 Z M 542.25 448.34375 " fill-opacity="1" fill-rule="nonzero"/><path fill="#183e55" d="M 632.277344 427.898438 C 632.664062 432.292969 629.417969 436.171875 625.023438 436.558594 C 620.628906 436.945312 616.753906 433.699219 616.363281 429.304688 C 615.976562 424.910156 619.226562 421.03125 623.621094 420.644531 C 628.015625 420.257812 631.890625 423.503906 632.277344 427.898438 Z M 632.277344 427.898438 " fill-opacity="1" fill-rule="nonzero"/><path stroke-linecap="round" transform="matrix(0.591665, 0, 0, 0.591665, 532.806439, 430.49552)" fill="none" stroke-linejoin="round" d="M -17.987177 5.401516 C -17.987177 5.401516 0.525211 -6.858649 17.987858 6.860588 " stroke="#183e55" stroke-width="10" stroke-opacity="1" stroke-miterlimit="4"/><path stroke-linecap="round" transform="matrix(0.591665, 0, 0, 0.591665, 629.844713, 411.098498)" fill="none" stroke-linejoin="round" d="M -21.207686 -0.806883 C -21.207686 -0.806883 4.547244 -7.342997 21.204431 7.340152 " stroke="#183e55" stroke-width="10" stroke-opacity="1" stroke-miterlimit="4"/><path stroke-linecap="round" transform="matrix(0.591665, 0, 0, 0.591665, 578.281726, 461.269236)" fill="none" stroke-linejoin="round" d="M -25.498252 14.498788 C -25.498252 14.498788 -11.501725 -14.49779 25.503243 0.502262 " stroke="#183e55" stroke-width="10" stroke-opacity="1" stroke-miterlimit="4"/></svg>