<?xml version="1.0" encoding="UTF-8"?>
<svg xmlns="http://www.w3.org/2000/svg" xmlns:xlink="http://www.w3.org/1999/xlink" viewBox="0 0 405.85 391.13">
  <defs>
    <style>
      .cls-1 {
        fill: #c4b9fd;
      }

      .cls-1, .cls-2, .cls-3, .cls-4, .cls-5, .cls-6, .cls-7, .cls-8, .cls-9, .cls-10, .cls-11, .cls-12, .cls-13, .cls-14, .cls-15, .cls-16, .cls-17, .cls-18, .cls-19, .cls-20, .cls-21, .cls-22, .cls-23, .cls-24, .cls-25, .cls-26, .cls-27, .cls-28, .cls-29, .cls-30, .cls-31, .cls-32, .cls-33, .cls-34, .cls-35, .cls-36, .cls-37 {
        stroke-width: 0px;
      }

      .cls-2 {
        fill: url(#linear-gradient);
      }

      .cls-3 {
        fill: #886cc3;
      }

      .cls-4 {
        fill: #d0f1ff;
      }

      .cls-5 {
        fill: #ffad97;
      }

      .cls-6 {
        fill: #f2f0ff;
      }

      .cls-38 {
        isolation: isolate;
      }

      .cls-7 {
        fill: #fff4f0;
      }

      .cls-8 {
        fill: #29596d;
      }

      .cls-9 {
        fill: #adad99;
        opacity: .75;
      }

      .cls-9, .cls-30 {
        mix-blend-mode: color-burn;
      }

      .cls-10 {
        fill: #3b2b5a;
      }

      .cls-11 {
        fill: #ffdb80;
      }

      .cls-12 {
        fill: #d0cbf5;
      }

      .cls-13 {
        fill: #6e4cb5;
      }

      .cls-14 {
        fill: #e3deff;
      }

      .cls-15 {
        fill: #b8acfd;
      }

      .cls-16 {
        fill: #3c7e9e;
      }

      .cls-17 {
        fill: #ffe3d5;
      }

      .cls-18 {
        fill: #ba2761;
      }

      .cls-19 {
        fill: #bdb3f5;
      }

      .cls-20 {
        fill: #fff;
      }

      .cls-21 {
        fill: #7254b3;
      }

      .cls-22 {
        fill: #c43b71;
      }

      .cls-23 {
        fill: url(#linear-gradient-2);
      }

      .cls-24 {
        fill: #e6e0ff;
      }

      .cls-25 {
        mix-blend-mode: overlay;
      }

      .cls-25, .cls-33 {
        fill: #dad3fd;
      }

      .cls-26 {
        fill: #a58ade;
      }

      .cls-27 {
        fill: #291e40;
      }

      .cls-28 {
        fill: #ffcb49;
      }

      .cls-29 {
        fill: #fff0eb;
      }

      .cls-30 {
        fill: #3f72df;
        opacity: .1;
      }

      .cls-31 {
        fill: #fec9c9;
      }

      .cls-32 {
        fill: #c8befd;
      }

      .cls-34 {
        fill: #cdc4fd;
      }

      .cls-35 {
        fill: #f05491;
      }

      .cls-36 {
        fill: #ffc73b;
      }

      .cls-37 {
        fill: #d93b79;
      }
    </style>
    <linearGradient id="linear-gradient" x1="162.23" y1="3014.9" x2="162.73" y2="3014.9" gradientTransform="translate(-2895.53 -1268.7) rotate(-113.42) scale(1.45 .69) skewX(-32.55)" gradientUnits="userSpaceOnUse">
      <stop offset="0" stop-color="#3f4ec6"/>
      <stop offset="1" stop-color="#060882"/>
    </linearGradient>
    <linearGradient id="linear-gradient-2" x1="159.97" y1="3013.52" x2="160.32" y2="3013.52" xlink:href="#linear-gradient"/>
  </defs>
  <g class="cls-38">
    <g id="Layer_1" data-name="Layer 1">
      <g>
        <g>
          <path class="cls-9" d="m339.18,315.23c-2.36-1.37-5.45-2.04-8.54-2.04s-6.17.68-8.53,2.04c-2.36,1.35-3.54,3.13-3.54,4.92,0,1.22.56,2.43,1.67,3.52l-19.79,11.42,2.87,1.66,19.58-11.3c2.24,1.1,4.97,1.67,7.75,1.67,3.09,0,6.18-.68,8.54-2.04,2.34-1.37,3.52-3.15,3.52-4.93s-1.18-3.57-3.52-4.92Z"/>
          <g>
            <path class="cls-3" d="m342.71,315.56v4.28c0,1.78-1.18,3.57-3.54,4.92-2.34,1.37-5.43,2.04-8.53,2.04s-6.17-.68-8.53-2.04c-2.36-1.35-3.54-3.13-3.54-4.92v-4.28h24.13Z"/>
            <path class="cls-26" d="m342.71,315.56c0,1.78-1.18,3.57-3.52,4.93-2.36,1.37-5.45,2.04-8.54,2.04s-6.17-.68-8.53-2.04c-2.36-1.37-3.54-3.15-3.54-4.93s1.18-3.57,3.54-4.92c2.36-1.37,5.43-2.04,8.53-2.04s6.18.68,8.54,2.04c2.34,1.35,3.52,3.13,3.52,4.92Z"/>
            <path class="cls-3" d="m341.51,315.56c0,.17,0,.35-.03.5-.04.24-.12.49-.22.72-.43.98-1.34,1.9-2.69,2.67-2.1,1.22-4.92,1.88-7.94,1.88s-5.84-.66-7.94-1.88c-1.34-.78-2.26-1.7-2.67-2.67-.1-.23-.17-.47-.22-.72-.03-.16-.04-.33-.04-.5,0-1.41,1.04-2.79,2.93-3.88,2.1-1.22,4.92-1.88,7.94-1.88s5.84.66,7.94,1.88c1.9,1.09,2.93,2.47,2.93,3.88Z"/>
          </g>
          <path class="cls-21" d="m322.12,320.49v4.27c-2.36-1.35-3.54-3.13-3.54-4.92v-4.28c0,1.78,1.18,3.57,3.54,4.93Z"/>
          <g>
            <path class="cls-26" d="m300.64,332.38l2.19,3.11.25.38,20.13-11.74c.29-.12.47-.42.47-.87s-.18-.95-.47-1.41c-.29-.46-.69-.87-1.14-1.13-.45-.26-.85-.31-1.14-.19-.05.02-.1.05-.14.08l-20.16,11.76Z"/>
            <path class="cls-21" d="m300.26,333.2c0,.44.18.95.47,1.41.29.46.69.87,1.14,1.13.44.26.85.31,1.14.19.29-.12.47-.42.47-.87s-.18-.95-.47-1.41c-.29-.46-.69-.87-1.14-1.13-.44-.26-.85-.31-1.14-.19-.29.12-.47.42-.47.87Z"/>
          </g>
          <path class="cls-21" d="m341.51,315.56c0,.17,0,.35-.03.5-.04.24-.12.49-.22.72-.43.98-1.34,1.9-2.69,2.67v-7.78c1.9,1.09,2.93,2.47,2.93,3.88Z"/>
          <path class="cls-24" d="m341.27,316.78c-.42.98-1.34,1.9-2.68,2.68-2.1,1.21-4.92,1.88-7.94,1.88s-5.84-.67-7.94-1.88c-1.34-.78-2.26-1.7-2.68-2.68.42-.98,1.33-1.91,2.68-2.68,2.1-1.21,4.92-1.88,7.94-1.88s5.84.67,7.94,1.88c1.35.78,2.27,1.7,2.68,2.68Z"/>
        </g>
        <g class="cls-38">
          <path class="cls-34" d="m324.21,226.56c.07-.11.15-2.94.15-2.94l-.16-.18-.08.6.1,2.52Z"/>
          <polygon class="cls-3" points="327.82 218.26 327.81 221.08 327.76 219.83 327.77 217.01 327.82 218.26"/>
          <polygon class="cls-3" points="320.13 221.37 320.12 224.2 318.59 223.32 318.6 220.49 320.13 221.37"/>
          <polygon class="cls-34" points="342.56 220.61 342.55 223.43 341.01 224.3 341.02 221.48 342.56 220.61"/>
          <path class="cls-34" d="m333.11,221.54v2.82c-1.64-.38-3.45-.38-5.08-.03v-2.82c1.64-.36,3.44-.36,5.08.03Z"/>
          <polygon class="cls-34" points="328.04 221.51 328.03 224.34 327.85 224.39 327.86 221.57 328.04 221.51"/>
          <polygon class="cls-3" points="333.31 221.6 333.3 224.43 333.1 224.36 333.11 221.54 333.31 221.6"/>
          <path class="cls-34" d="m327.86,221.57v2.82c-.8.18-1.5.46-2.14.8v-2.82c.65-.34,1.35-.63,2.14-.8Z"/>
          <path class="cls-34" d="m325.73,222.37v2.82c-.64.37-1.11.79-1.46,1.25v-2.82c.36-.46.82-.88,1.46-1.25Z"/>
          <path class="cls-3" d="m336.91,223.68v2.82c-.32-.46-.83-.88-1.47-1.25-.62-.36-1.35-.65-2.14-.83v-2.82c.8.18,1.53.47,2.15.83.64.37,1.15.79,1.46,1.25Z"/>
          <path class="cls-3" d="m337.28,223.8l-.26,2.82c-.25-.94-.43-3.49-.43-3.49l.69.67Z"/>
          <path class="cls-34" d="m323.74,227.95v-2.82c0-.48.16-.97.48-1.41v2.84c-.32.44-.48.91-.48,1.39Z"/>
          <path class="cls-3" d="m337.54,225.28v2.82c0-.5-.17-1.01-.52-1.48v-2.82c.36.47.52.98.52,1.48Z"/>
          <polygon class="cls-3" points="316.48 226.72 316.47 229.55 316.43 226.39 316.44 223.57 316.48 226.72"/>
          <polygon class="cls-3" points="318.61 226.74 318.61 229.56 316.47 229.55 316.48 226.72 318.61 226.74"/>
          <polygon class="cls-3" points="344.86 226.88 344.85 229.7 342.72 229.69 342.72 226.86 344.86 226.88"/>
          <path class="cls-3" d="m320.24,228.97v2.82c-.76-.69-1.29-1.46-1.63-2.23v-2.82c.34.78.88,1.54,1.63,2.23Z"/>
          <path class="cls-34" d="m342.72,226.86v2.82c-.31.77-.84,1.53-1.58,2.22v-2.82c.75-.69,1.28-1.46,1.58-2.22Z"/>
          <polygon class="cls-3" points="322.63 232.11 322.63 234.93 318.71 232.67 318.72 229.85 322.63 232.11"/>
          <polygon class="cls-34" points="324.15 231.23 324.14 234.05 322.63 234.93 322.63 232.11 324.15 231.23"/>
          <polygon class="cls-3" points="338.85 232.19 338.85 235.01 337.32 234.13 337.33 231.31 338.85 232.19"/>
          <polygon class="cls-34" points="342.7 229.98 342.69 232.8 338.85 235.01 338.85 232.19 342.7 229.98"/>
          <path class="cls-3" d="m328.01,232.16v2.82c-1.38-.18-2.66-.49-3.87-.93v-2.82c1.22.45,2.5.75,3.87.93Z"/>
          <path class="cls-34" d="m337.33,231.31v2.82c-1.22.42-2.52.71-3.86.88v-2.82c1.35-.17,2.65-.46,3.86-.88Z"/>
          <polygon class="cls-3" points="328.04 233.4 328.03 236.22 328 234.98 328.01 232.16 328.04 233.4"/>
          <path class="cls-26" d="m341.15,229.08l1.55.89-3.84,2.21-1.53-.88c-1.21.42-2.51.71-3.85.88l.03,1.24-5.47-.03-.03-1.24c-1.37-.18-2.65-.49-3.86-.93l-1.52.88-3.91-2.26,1.52-.88c-.75-.69-1.29-1.46-1.62-2.23h-2.14s-.04-3.17-.04-3.17h2.14c.3-.75.81-1.51,1.55-2.2l-1.53-.88,3.82-2.22,1.55.89c1.19-.43,2.51-.74,3.85-.91l-.05-1.25,5.49.04v1.23c1.35.19,2.65.51,3.87.96l1.52-.88,3.91,2.26-1.54.87c.78.7,1.33,1.46,1.64,2.22l2.16.03.04,3.15h-2.14c-.3.75-.83,1.52-1.57,2.21Zm-7.74-.19c.79-.2,1.52-.47,2.16-.84.62-.36,1.1-.77,1.43-1.21.7-1.05.72-2.11.03-3.04-.42-.57-.93-1-1.57-1.37-.62-.36-1.35-.65-2.14-.83l-.2-.06c-1.63-.38-3.44-.38-5.07-.03l-.18.05c-.79.18-1.5.46-2.13.8-.64.37-1.1.79-1.45,1.25-.72,1.03-.67,2.08-.03,3.04.44.56.91.98,1.55,1.35.64.37,1.39.65,2.14.86l.2.04c1.63.38,3.46.4,5.07.03l.2-.04h0Z"/>
          <polygon class="cls-3" points="333.51 233.43 333.5 236.25 328.03 236.22 328.04 233.4 333.51 233.43"/>
        </g>
        <path class="cls-30" d="m224.12,366.07c-7.99,4.61-7.99,12.09,0,16.71,7.99,4.61,20.94,4.61,28.93,0,7.99-4.61,7.99-12.09,0-16.71-7.99-4.61-20.94-4.61-28.93,0Z"/>
        <path class="cls-11" d="m213.55,56.12c4.25-2.11,8.49-4.23,12.74-6.34,7.76-3.86,16.74-8.26,25.68-7.22,6.72.78,13.62,7.93,14.3,14.71.66,6.57.58,14.26-2.46,20.03-3.07,5.82-5.43,13.55-1.06,18.47,5.68.25,13.1.5,17.76,4.14,5.93,4.54,6.39,13.59,3.61,20.53-2.77,6.93-8,12.54-12.09,18.78-.91,1.39-1.79,2.88-1.97,4.54-.65,6.23,8.24,9.38,9.7,15.47.97,4.03-1.71,8.12-5.02,10.62-3.31,2.49-7.3,3.95-10.69,6.35-4.76,3.38-8.68,9.14-9.4,15.02-.55,4.5.4,7.33-3.94,10.22-7.67,5.1-19.96,1.96-28.12.14-4.64-1.04-9.55-.1-14.24.7-13.59,2.33-24.19,12.66-33.86,22.49-11.09,11.27-22.18,22.55-33.27,33.82-8.31,8.45-16.73,16.99-26.79,23.26-6.71,4.19-7.38-3.19-13.1-3.06-8.61.19-18.55,4.13-26.98,6.01-6.24,1.39-13.25,2.66-18.64-.77-6.79-4.32-7.64-13.78-7.2-21.82.27-4.85.61-10.2-2.38-14.03-2.11-2.7-5.46-4.06-8.66-5.3-4.94-1.92-9.88-3.84-14.82-5.76-4.3-1.67-8.7-3.41-12.12-6.5-3.28-2.96-5.43-6.99-7-11.12-2.75-7.26-2.15-13.56-2.41-21.02-.25-7.01-.86-12.06,4.38-17.8,4.28-4.68,10.14-7.54,15.85-10.33,4.83-2.36,9.72-4.78,13.66-8.45s6.83-8.8,6.56-14.17c-.39-7.77-7.13-14.22-7.17-21.99-.05-8.3,7.78-14.79,15.83-16.76,5.08-1.24,10.39-1.21,15.53-2.21,13.51-2.63,25.26-12.91,29.65-25.96,2.66-7.91,3.24-15.57,8.96-22.09,7.4-8.44,16.76-15.58,27.65-18.32,10.89-2.74,23.41-.46,31.28,7.55,5.51,5.62,8.78,13.83,15.94,17.11,7.89,3.61,17.01-.31,24.78-4.18l9.52-4.74Z"/>
        <g>
          <g>
            <path class="cls-36" d="m239.97,177.09c-.35.07-.72-.1-.88-.44-.19-.4-.03-.88.37-1.07,2.41-1.16,4.96-2.02,7.43-2.84,1.53-.51,3.12-1.04,4.64-1.64,18.17-7.13,29.09-24,35.05-36.9.19-.4.67-.58,1.07-.39.4.19.58.66.39,1.07-6.09,13.17-17.26,30.4-35.93,37.72-1.56.61-3.17,1.15-4.72,1.67-2.42.81-4.93,1.65-7.24,2.77-.06.03-.13.05-.19.06Z"/>
            <path class="cls-36" d="m301.48,119.85c.19-.97.31-1.99.08-2.95-.62-2.58-3.75-3.94-6.34-3.39-2.6.55-4.66,2.52-6.23,4.66-2.7,3.68-2.72,18.67-2.72,18.67,0,0,14.08-11.08,15.22-16.99Z"/>
            <path class="cls-36" d="m301.73,144.57c.71-.39,1.42-.84,1.9-1.49,1.3-1.74.53-4.42-1.17-5.77-1.7-1.35-4.02-1.63-6.19-1.5-3.73.22-13.2,8.03-13.2,8.03,0,0,14.34,3.1,18.67.73Z"/>
            <path class="cls-36" d="m294.37,164.55c.97-.11,1.97-.29,2.81-.8,2.25-1.35,2.61-4.7,1.32-6.99s-3.76-3.65-6.24-4.5c-4.27-1.46-18.43,2.96-18.43,2.96,0,0,14.62,10,20.54,9.33Z"/>
            <path class="cls-36" d="m278.05,182.5c1.04.11,2.11.15,3.1-.18,2.65-.88,3.81-4.27,3-6.95-.81-2.67-3.05-4.67-5.43-6.13-4.09-2.51-19.82-1.22-19.82-1.22,0,0,12.86,13.79,19.15,14.47Z"/>
            <path class="cls-36" d="m258.5,191.28c.88.39,1.81.73,2.77.72,2.58-.03,4.55-2.68,4.6-5.26.05-2.58-1.36-4.96-3.04-6.92-2.89-3.36-17.07-6.67-17.07-6.67,0,0,7.4,15.75,12.74,18.12Z"/>
          </g>
          <path class="cls-36" d="m281.7,128.93c-.36-.77-.79-1.54-1.44-2.09-1.74-1.48-4.59-.84-6.12.85-1.52,1.7-1.96,4.11-1.97,6.39-.02,3.92,7.55,14.34,7.55,14.34,0,0,4.17-14.81,1.97-19.49Z"/>
          <path class="cls-36" d="m255.75,151.72c-.36-.77-.79-1.54-1.44-2.09-1.74-1.47-4.59-.84-6.12.85-1.52,1.7-1.96,4.11-1.97,6.39-.02,3.92,7.55,14.34,7.55,14.34,0,0,4.17-14.81,1.97-19.49Z"/>
          <path class="cls-36" d="m269.66,142.3c-.36-.82-.78-1.64-1.45-2.24-1.79-1.6-4.81-1.02-6.46.72-1.65,1.74-2.18,4.26-2.25,6.66-.13,4.12,7.54,15.29,7.54,15.29,0,0,4.8-15.46,2.62-20.44Z"/>
        </g>
        <g>
          <g>
            <path class="cls-20" d="m180.89,105.93c-.25.26-.65.33-.97.15-.39-.22-.53-.71-.31-1.1,1.31-2.33,2.91-4.49,4.46-6.59.96-1.3,1.96-2.64,2.87-4,10.81-16.25,10.11-36.33,7.61-50.32-.08-.44.22-.85.65-.93.44-.08.85.21.93.65,2.55,14.28,3.26,34.8-7.85,51.49-.93,1.39-1.94,2.75-2.91,4.07-1.52,2.05-3.09,4.17-4.35,6.41-.03.06-.08.11-.12.16Z"/>
            <path class="cls-20" d="m198.53,23.78c-.4-.91-.88-1.81-1.62-2.46-1.99-1.76-5.33-1.09-7.14.85-1.81,1.94-2.38,4.74-2.44,7.39-.11,4.56,8.46,16.87,8.46,16.87,0,0,5.2-17.15,2.75-22.64Z"/>
            <path class="cls-20" d="m212.9,43.9c.36-.73.68-1.5.71-2.31.07-2.17-2.1-3.93-4.26-4.06-2.17-.13-4.23.97-5.94,2.32-2.93,2.31-6.22,14.14-6.22,14.14,0,0,13.53-5.67,15.72-10.09Z"/>
            <path class="cls-20" d="m218.31,64.5c.74-.65,1.44-1.37,1.84-2.26,1.07-2.4-.55-5.35-2.92-6.49s-5.17-.84-7.7-.11c-4.34,1.25-13.41,12.98-13.41,12.98,0,0,17.72-.18,22.18-4.12Z"/>
            <path class="cls-20" d="m215.2,88.56c.91-.5,1.82-1.08,2.44-1.92,1.67-2.24.67-5.68-1.52-7.41s-5.18-2.08-7.96-1.91c-4.79.29-16.94,10.35-16.94,10.35,0,0,18.44,3.94,23.99.89Z"/>
            <path class="cls-20" d="m204.21,106.95c.95-.18,1.9-.44,2.69-1,2.1-1.5,2.2-4.8.76-6.94s-3.96-3.29-6.46-3.93c-4.29-1.1-17.81,4.31-17.81,4.31,0,0,15.08,8.67,20.82,7.56Z"/>
          </g>
          <path class="cls-20" d="m187.52,42.55c-.74-.42-1.53-.81-2.37-.89-2.27-.21-4.25,1.94-4.53,4.2-.28,2.26.74,4.49,2.04,6.37,2.23,3.22,14.4,7.43,14.4,7.43,0,0-5.06-14.53-9.54-17.11Z"/>
          <path class="cls-20" d="m179.29,76.09c-.74-.42-1.53-.81-2.37-.89-2.27-.21-4.25,1.94-4.53,4.2-.28,2.26.74,4.49,2.04,6.37,2.23,3.22,14.4,7.43,14.4,7.43,0,0-5.06-14.53-9.54-17.11Z"/>
          <path class="cls-20" d="m185.3,60.4c-.76-.47-1.58-.89-2.47-1-2.38-.29-4.52,1.92-4.88,4.29-.36,2.37.66,4.74,1.97,6.75,2.26,3.45,14.94,8.22,14.94,8.22,0,0-4.92-15.42-9.56-18.26Z"/>
        </g>
        <g>
          <path class="cls-20" d="m99.33,239.98c.23.35.2.83-.1,1.15-.35.38-.95.41-1.33.05-2.3-2.12-4.33-4.53-6.29-6.86-1.22-1.45-2.48-2.95-3.78-4.35-15.58-16.71-38.64-21.34-55.25-22.27-.52-.03-.91-.48-.89-.99.03-.52.47-.92.99-.89,16.95.96,40.52,5.7,56.52,22.87,1.34,1.43,2.61,2.95,3.85,4.42,1.92,2.29,3.91,4.65,6.13,6.69.06.06.11.12.15.18Z"/>
          <path class="cls-20" d="m10.54,197.66c-1.14.21-2.3.51-3.25,1.18-2.54,1.79-2.68,5.77-.96,8.36,1.72,2.59,4.75,3.99,7.76,4.78,5.17,1.36,21.5-5.07,21.5-5.07,0,0-18.12-10.55-25.05-9.25Z"/>
          <path class="cls-20" d="m37.25,187.57c-.73-.61-1.52-1.18-2.44-1.43-2.45-.67-5.04,1.32-5.78,3.76-.74,2.43-.04,5.08,1.03,7.39,1.84,3.97,14.42,10.91,14.42,10.91,0,0-2.8-16.94-7.24-20.63Z"/>
          <path class="cls-20" d="m27.54,216.47c-.76.8-1.48,1.68-1.83,2.72-.95,2.79,1.17,5.93,3.94,6.96,2.77,1.03,5.88.41,8.63-.67,4.72-1.85,13.66-15.91,13.66-15.91,0,0-19.81,2.03-24.4,6.9Z"/>
          <path class="cls-20" d="m62.26,186.15c-.54-1.01-1.17-2.01-2.08-2.71-2.44-1.87-6.24-.82-8.18,1.57-1.93,2.39-2.36,5.67-2.21,8.73.25,5.28,11.16,18.78,11.16,18.78,0,0,4.59-20.22,1.31-26.37Z"/>
          <path class="cls-20" d="m45.95,222.64c-.81.81-1.58,1.71-1.98,2.78-1.06,2.88,1.05,6.21,3.91,7.35,2.85,1.14,6.11.59,9-.46,4.97-1.79,14.67-16.19,14.67-16.19,0,0-20.68,1.56-25.59,6.51Z"/>
          <path class="cls-20" d="m60.07,236.63c-.91.92-1.79,1.93-2.23,3.14-1.2,3.25,1.19,7,4.41,8.29,3.22,1.29,6.89.66,10.15-.51,5.61-2.02,16.55-18.26,16.55-18.26,0,0-23.33,1.76-28.87,7.34Z"/>
          <path class="cls-20" d="m85.69,193.91c-.33-1.18-.74-2.36-1.53-3.3-2.1-2.51-6.29-2.3-8.85-.27s-3.77,5.33-4.33,8.55c-.97,5.54,7.21,22.1,7.21,22.1,0,0,9.48-19.93,7.5-27.08Z"/>
        </g>
        <g>
          <path class="cls-36" d="m141.19,133.6c.42.03.82-.23.96-.64.16-.49-.1-1.03-.6-1.19-2.97-.99-6.06-1.59-9.05-2.18-1.86-.36-3.78-.74-5.64-1.2-22.16-5.53-37.39-23.47-46.25-37.54-.28-.44-.86-.57-1.3-.29-.44.28-.57.86-.29,1.3,9.05,14.37,24.62,32.68,47.39,38.37,1.9.47,3.85.86,5.73,1.22,2.93.57,5.97,1.17,8.82,2.12.08.03.16.04.23.05Z"/>
          <path class="cls-36" d="m61.16,76.43c-.36-1.1-.66-2.26-.54-3.41.34-3.09,3.75-5.14,6.85-4.89,3.1.25,5.79,2.22,7.94,4.47,3.69,3.86,5.98,21.27,5.98,21.27,0,0-18.01-10.74-20.23-17.43Z"/>
          <path class="cls-36" d="m65.27,104.68c-.89-.35-1.77-.76-2.43-1.44-1.77-1.82-1.28-5.05.49-6.88,1.77-1.82,4.43-2.49,6.96-2.67,4.36-.31,16.53,7.33,16.53,7.33,0,0-16.18,5.76-21.55,3.66Z"/>
          <path class="cls-36" d="m85.86,82.19c.34-1.05.75-2.1,1.5-2.92,1.98-2.18,5.76-1.85,7.99.07,2.24,1.92,3.2,4.95,3.59,7.87.67,5.03-7.3,19.66-7.3,19.66,0,0-7.82-18.31-5.78-24.69Z"/>
          <path class="cls-36" d="m76.15,127.25c-1.15.02-2.33-.04-3.38-.5-2.81-1.23-3.74-5.06-2.59-7.91s3.81-4.81,6.57-6.17c4.74-2.34,21.83.66,21.83.66,0,0-15.47,13.81-22.44,13.92Z"/>
          <path class="cls-36" d="m100.17,95.3c.32-1.1.73-2.21,1.48-3.08,2-2.33,5.94-2.08,8.32-.15,2.38,1.94,3.47,5.06,3.96,8.09.84,5.22-7.06,20.67-7.06,20.67,0,0-8.65-18.85-6.7-25.54Z"/>
          <path class="cls-36" d="m119.25,100.88c.36-1.24.82-2.49,1.67-3.48,2.26-2.63,6.7-2.35,9.39-.16,2.69,2.19,3.92,5.71,4.47,9.13.95,5.88-7.96,23.32-7.96,23.32,0,0-9.76-21.26-7.56-28.81Z"/>
          <path class="cls-36" d="m94.29,143.99c-1.19.29-2.43.5-3.63.26-3.21-.62-5.06-4.39-4.53-7.61.53-3.22,2.84-5.88,5.38-7.93,4.37-3.53,22.82-4.4,22.82-4.4,0,0-12.84,17.94-20.05,19.68Z"/>
        </g>
        <g>
          <g>
            <path class="cls-30" d="m82.07,300.37c-.57.33-.86.77-.87,1.21,0,.44.28.88.85,1.21l111.89,65.07c.57.33,1.33.5,2.09.5s1.52-.17,2.09-.5l151.41-87.42c.58-.34.87-.78.87-1.21,0-.44-.29-.87-.86-1.21l-111.89-65.07c-.57-.33-1.32-.5-2.08-.5-.76,0-1.52.16-2.1.5l-151.41,87.42Z"/>
            <path class="cls-34" d="m87.12,295.57c-.57.33-.86.77-.87,1.21s.28.88.85,1.21l107.85,62.67c.57.33,1.33.5,2.09.5s1.52-.17,2.09-.5l151.41-87.42c.58-.34.87-.78.87-1.21,0-.44-.29-.87-.86-1.21l-107.85-62.67c-.57-.33-1.32-.5-2.08-.5-.76,0-1.52.16-2.1.5l-151.41,87.42Z"/>
            <g>
              <g class="cls-38">
                <path class="cls-34" d="m240.2,75.99c-.12-.06-.3-.09-.45-.09-.3-.03-.64.06-.97.27l-151.39,83.24c-.7.39-1.3,1.54-1.66,2.66-.27.79-.42,1.54-.42,2.09l.36,129.86c0,.24.03.45.09.64.03.18.12.33.21.45.09.12.18.21.3.27l-4.48-2.6c-.36-.21-.61-.67-.61-1.36l-.33-129.83c0-.54.15-1.33.42-2.12.36-1.12.97-2.24,1.66-2.66l151.39-83.24c.57-.33,1.12-.36,1.51-.12l4.36,2.54Z"/>
                <g>
                  <path class="cls-33" d="m241.26,204.18c0,1.33-.94,2.96-2.09,3.63l-151.18,87.27-.24.15c-.57.33-1.12.36-1.48.15-.12-.09-.21-.15-.3-.27-.09-.12-.18-.27-.21-.45-.06-.18-.09-.39-.09-.64l-.36-129.86c0-.54.15-1.3.42-2.09.36-1.12.97-2.27,1.66-2.66l151.39-83.24c.33-.21.67-.3.97-.27.15,0,.3.03.45.09.42.21.7.7.7,1.36l.36,126.83Z"/>
                  <path class="cls-20" d="m87.39,163.58c25.12-14.76,50.39-29.28,75.58-43.93,25.28-14.49,50.49-29.11,75.84-43.48-25.12,14.76-50.39,29.28-75.58,43.93-25.28,14.49-50.49,29.11-75.84,43.48Z"/>
                  <path class="cls-27" d="m89.47,167.19s.1-4.22.14-4.27l147.13-80.76.34,113.69s-147.28,85.02-147.28,85.02l-.34-113.69Z"/>
                </g>
              </g>
              <g class="cls-38">
                <path class="cls-33" d="m351.43,272.03v5.14c0,.45-.27.88-.88,1.21l-151.39,87.42c-.57.33-1.36.51-2.12.48-.79,0-1.48-.15-2.06-.48l-107.87-62.67c-.54-.33-.85-.76-.85-1.18v-5.17c0,.45.27.88.85,1.21l107.84,62.67c.57.33,1.33.48,2.09.48s1.51-.15,2.09-.48l151.42-87.42c.57-.33.88-.79.88-1.21Z"/>
                <polygon class="cls-19" points="107.82 298 242.61 220.18 305.7 257.21 170.91 335.04 107.82 298"/>
              </g>
              <polygon class="cls-20" points="270.38 285.61 270.38 286.46 245.24 300.87 220.85 314.86 220.1 314.42 245.24 300.01 270.38 285.61"/>
              <polygon class="cls-33" points="293.35 299.85 291.35 300.99 268.94 313.83 243.8 328.24 231.96 321.32 220.85 314.86 245.24 300.87 270.38 286.46 282.24 293.36 293.35 299.85"/>
              <polygon class="cls-3" points="294.08 299.43 293.35 299.85 282.24 293.36 270.38 286.46 270.38 285.61 282.24 292.51 294.08 299.43"/>
              <g>
                <g class="cls-38">
                  <polygon class="cls-20" points="245.89 225.44 245.88 226.2 238.98 230.21 238.98 229.45 245.89 225.44"/>
                  <polygon class="cls-3" points="238.98 229.45 238.98 230.21 234.09 227.39 234.1 226.63 238.98 229.45"/>
                  <polygon class="cls-34" points="245.89 225.44 238.98 229.45 234.1 226.63 241 222.62 245.89 225.44"/>
                </g>
                <g class="cls-38">
                  <polygon class="cls-20" points="236.54 230.87 236.53 231.63 229.63 235.64 229.64 234.88 236.54 230.87"/>
                  <polygon class="cls-3" points="229.64 234.88 229.63 235.64 224.75 232.82 224.75 232.06 229.64 234.88"/>
                  <polygon class="cls-34" points="236.54 230.87 229.64 234.88 224.75 232.06 231.65 228.05 236.54 230.87"/>
                </g>
                <g class="cls-38">
                  <polygon class="cls-20" points="256.36 231.48 256.36 232.25 240.11 241.69 240.11 240.93 256.36 231.48"/>
                  <polygon class="cls-3" points="240.11 240.93 240.11 241.69 231.79 236.89 231.79 236.13 240.11 240.93"/>
                  <polygon class="cls-34" points="256.36 231.48 240.11 240.93 231.79 236.13 248.04 226.68 256.36 231.48"/>
                </g>
                <g class="cls-38">
                  <polygon class="cls-3" points="258.93 244.64 258.93 245.4 248.45 239.35 248.46 238.59 258.93 244.64"/>
                  <polygon class="cls-34" points="254.49 244.71 247.58 248.72 239.28 243.93 246.18 239.92 254.49 244.71"/>
                  <polygon class="cls-20" points="254.49 244.71 254.48 245.47 247.58 249.48 247.58 248.72 254.49 244.71"/>
                  <polygon class="cls-3" points="247.58 248.72 247.58 249.48 239.27 244.69 239.28 243.93 247.58 248.72"/>
                  <polygon class="cls-20" points="277.31 243.58 277.31 244.34 267.96 249.77 267.96 249.01 277.31 243.58"/>
                  <polygon class="cls-20" points="267.96 249.01 267.96 249.77 265.92 250.96 265.93 250.2 267.96 249.01"/>
                  <polygon class="cls-3" points="261.06 253.03 261.06 253.79 252.75 248.99 252.76 248.23 261.06 253.03"/>
                  <polygon class="cls-20" points="265.93 250.2 265.92 250.96 261.06 253.79 261.06 253.03 265.93 250.2"/>
                  <polygon class="cls-34" points="277.31 243.58 267.96 249.01 265.93 250.2 261.06 253.03 252.76 248.23 258.93 244.64 248.46 238.59 258.53 232.74 277.31 243.58"/>
                </g>
                <g class="cls-38">
                  <polygon class="cls-20" points="287.79 249.63 287.78 250.39 268.53 261.58 268.53 260.82 287.79 249.63"/>
                  <polygon class="cls-3" points="268.53 260.82 268.53 261.58 260.22 256.78 260.23 256.02 268.53 260.82"/>
                  <polygon class="cls-34" points="287.79 249.63 268.53 260.82 260.23 256.02 279.48 244.83 287.79 249.63"/>
                </g>
                <g class="cls-38">
                  <polygon class="cls-20" points="227.19 236.3 227.18 237.06 220.27 241.08 220.27 240.32 227.19 236.3"/>
                  <polygon class="cls-3" points="220.27 240.32 220.27 241.08 215.38 238.26 215.39 237.5 220.27 240.32"/>
                  <polygon class="cls-34" points="227.19 236.3 220.27 240.32 215.39 237.5 222.3 233.48 227.19 236.3"/>
                </g>
                <g class="cls-38">
                  <polygon class="cls-20" points="217.83 241.74 217.82 242.51 210.92 246.52 210.92 245.76 217.83 241.74"/>
                  <polygon class="cls-3" points="210.92 245.76 210.92 246.52 206.03 243.7 206.04 242.94 210.92 245.76"/>
                  <polygon class="cls-34" points="217.83 241.74 210.92 245.76 206.04 242.94 212.94 238.92 217.83 241.74"/>
                </g>
                <g class="cls-38">
                  <polygon class="cls-20" points="208.48 247.18 208.47 247.94 201.57 251.95 201.57 251.19 208.48 247.18"/>
                  <polygon class="cls-3" points="201.57 251.19 201.57 251.95 196.68 249.13 196.69 248.37 201.57 251.19"/>
                  <polygon class="cls-34" points="208.48 247.18 201.57 251.19 196.69 248.37 203.59 244.36 208.48 247.18"/>
                </g>
                <g class="cls-38">
                  <polygon class="cls-20" points="199.13 252.61 199.12 253.37 192.21 257.39 192.21 256.63 199.13 252.61"/>
                  <polygon class="cls-3" points="192.21 256.63 192.21 257.39 187.32 254.57 187.33 253.81 192.21 256.63"/>
                  <polygon class="cls-34" points="199.13 252.61 192.21 256.63 187.33 253.81 194.24 249.79 199.13 252.61"/>
                </g>
                <g class="cls-38">
                  <polygon class="cls-20" points="189.77 258.05 189.76 258.81 182.86 262.82 182.86 262.06 189.77 258.05"/>
                  <polygon class="cls-3" points="182.86 262.06 182.86 262.82 177.97 260 177.98 259.24 182.86 262.06"/>
                  <polygon class="cls-34" points="189.77 258.05 182.86 262.06 177.98 259.24 184.88 255.23 189.77 258.05"/>
                </g>
                <g class="cls-38">
                  <polygon class="cls-20" points="180.42 263.48 180.41 264.25 173.51 268.26 173.51 267.5 180.42 263.48"/>
                  <polygon class="cls-3" points="173.51 267.5 173.51 268.26 168.62 265.44 168.63 264.68 173.51 267.5"/>
                  <polygon class="cls-34" points="180.42 263.48 173.51 267.5 168.63 264.68 175.53 260.66 180.42 263.48"/>
                </g>
                <g class="cls-38">
                  <polygon class="cls-20" points="171.07 268.92 171.06 269.68 164.15 273.7 164.15 272.94 171.07 268.92"/>
                  <polygon class="cls-3" points="164.15 272.94 164.15 273.7 159.26 270.88 159.27 270.12 164.15 272.94"/>
                  <polygon class="cls-34" points="171.07 268.92 164.15 272.94 159.27 270.12 166.18 266.1 171.07 268.92"/>
                </g>
                <g class="cls-38">
                  <polygon class="cls-20" points="161.71 274.36 161.7 275.12 154.8 279.13 154.8 278.37 161.71 274.36"/>
                  <polygon class="cls-3" points="154.8 278.37 154.8 279.13 149.91 276.31 149.92 275.55 154.8 278.37"/>
                  <polygon class="cls-34" points="161.71 274.36 154.8 278.37 149.92 275.55 156.82 271.54 161.71 274.36"/>
                </g>
                <g class="cls-38">
                  <polygon class="cls-20" points="152.36 279.79 152.35 280.55 145.45 284.56 145.45 283.8 152.36 279.79"/>
                  <polygon class="cls-3" points="145.45 283.8 145.45 284.56 140.56 281.74 140.57 280.98 145.45 283.8"/>
                  <polygon class="cls-34" points="152.36 279.79 145.45 283.8 140.57 280.98 147.47 276.97 152.36 279.79"/>
                </g>
                <g class="cls-38">
                  <polygon class="cls-20" points="143.01 285.22 143 285.99 136.09 290 136.09 289.24 143.01 285.22"/>
                  <polygon class="cls-3" points="136.09 289.24 136.09 290 131.2 287.18 131.21 286.42 136.09 289.24"/>
                  <polygon class="cls-34" points="143.01 285.22 136.09 289.24 131.21 286.42 138.12 282.4 143.01 285.22"/>
                </g>
                <g class="cls-38">
                  <polygon class="cls-20" points="133.66 290.66 133.65 291.42 126.74 295.44 126.74 294.68 133.66 290.66"/>
                  <polygon class="cls-3" points="126.74 294.68 126.74 295.44 121.85 292.62 121.86 291.86 126.74 294.68"/>
                  <polygon class="cls-34" points="133.66 290.66 126.74 294.68 121.86 291.86 128.77 287.84 133.66 290.66"/>
                </g>
                <g class="cls-38">
                  <polygon class="cls-20" points="124.3 296.1 124.29 296.86 117.39 300.87 117.39 300.11 124.3 296.1"/>
                  <polygon class="cls-3" points="117.39 300.11 117.39 300.87 112.5 298.05 112.51 297.29 117.39 300.11"/>
                  <polygon class="cls-34" points="124.3 296.1 117.39 300.11 112.51 297.29 119.41 293.28 124.3 296.1"/>
                </g>
                <g class="cls-38">
                  <polygon class="cls-20" points="237.66 242.35 237.66 243.11 230.74 247.13 230.75 246.37 237.66 242.35"/>
                  <polygon class="cls-3" points="230.75 246.37 230.74 247.13 222.42 242.33 222.43 241.57 230.75 246.37"/>
                  <polygon class="cls-34" points="237.66 242.35 230.75 246.37 222.43 241.57 229.35 237.55 237.66 242.35"/>
                </g>
                <g class="cls-38">
                  <polygon class="cls-20" points="228.3 247.79 228.3 248.55 221.39 252.56 221.4 251.8 228.3 247.79"/>
                  <polygon class="cls-3" points="221.4 251.8 221.39 252.56 213.08 247.76 213.08 247 221.4 251.8"/>
                  <polygon class="cls-34" points="228.3 247.79 221.4 251.8 213.08 247 219.98 242.99 228.3 247.79"/>
                </g>
                <g class="cls-38">
                  <polygon class="cls-20" points="218.95 253.23 218.95 253.99 212.04 258 212.05 257.24 218.95 253.23"/>
                  <polygon class="cls-3" points="212.05 257.24 212.04 258 203.73 253.19 203.73 252.43 212.05 257.24"/>
                  <polygon class="cls-34" points="218.95 253.23 212.05 257.24 203.73 252.43 210.63 248.42 218.95 253.23"/>
                </g>
                <g class="cls-38">
                  <polygon class="cls-20" points="209.6 258.66 209.6 259.42 202.68 263.44 202.69 262.68 209.6 258.66"/>
                  <polygon class="cls-3" points="202.69 262.68 202.68 263.44 194.36 258.64 194.37 257.87 202.69 262.68"/>
                  <polygon class="cls-34" points="209.6 258.66 202.69 262.68 194.37 257.87 201.28 253.86 209.6 258.66"/>
                </g>
                <g class="cls-38">
                  <polygon class="cls-20" points="200.24 264.1 200.24 264.86 193.33 268.87 193.34 268.11 200.24 264.1"/>
                  <polygon class="cls-3" points="193.34 268.11 193.33 268.87 185.01 264.07 185.02 263.31 193.34 268.11"/>
                  <polygon class="cls-34" points="200.24 264.1 193.34 268.11 185.02 263.31 191.92 259.3 200.24 264.1"/>
                </g>
                <g class="cls-38">
                  <polygon class="cls-20" points="189.99 270.05 189.99 270.82 183.07 274.83 183.08 274.07 189.99 270.05"/>
                  <polygon class="cls-3" points="183.08 274.07 183.07 274.83 174.75 270.03 174.76 269.27 183.08 274.07"/>
                  <polygon class="cls-34" points="189.99 270.05 183.08 274.07 174.76 269.27 181.67 265.25 189.99 270.05"/>
                </g>
                <g class="cls-38">
                  <polygon class="cls-20" points="180.63 275.5 180.63 276.26 173.72 280.27 173.73 279.51 180.63 275.5"/>
                  <polygon class="cls-3" points="173.73 279.51 173.72 280.27 165.4 275.47 165.41 274.7 173.73 279.51"/>
                  <polygon class="cls-34" points="180.63 275.5 173.73 279.51 165.41 274.7 172.31 270.69 180.63 275.5"/>
                </g>
                <g class="cls-38">
                  <polygon class="cls-20" points="171.28 280.93 171.28 281.69 164.37 285.7 164.38 284.94 171.28 280.93"/>
                  <polygon class="cls-3" points="164.38 284.94 164.37 285.7 156.05 280.9 156.06 280.14 164.38 284.94"/>
                  <polygon class="cls-34" points="171.28 280.93 164.38 284.94 156.06 280.14 162.96 276.13 171.28 280.93"/>
                </g>
                <g class="cls-38">
                  <polygon class="cls-20" points="161.93 286.36 161.93 287.12 155.01 291.14 155.02 290.38 161.93 286.36"/>
                  <polygon class="cls-3" points="155.02 290.38 155.01 291.14 146.69 286.34 146.7 285.58 155.02 290.38"/>
                  <polygon class="cls-34" points="161.93 286.36 155.02 290.38 146.7 285.58 153.61 281.56 161.93 286.36"/>
                </g>
                <g class="cls-38">
                  <polygon class="cls-20" points="152.57 291.8 152.56 292.56 145.66 296.58 145.67 295.81 152.57 291.8"/>
                  <polygon class="cls-3" points="145.67 295.81 145.66 296.58 137.34 291.77 137.35 291.01 145.67 295.81"/>
                  <polygon class="cls-34" points="152.57 291.8 145.67 295.81 137.35 291.01 144.25 287 152.57 291.8"/>
                </g>
                <g class="cls-38">
                  <polygon class="cls-20" points="143.22 297.24 143.22 298 136.31 302.01 136.32 301.25 143.22 297.24"/>
                  <polygon class="cls-3" points="136.32 301.25 136.31 302.01 127.99 297.21 128 296.44 136.32 301.25"/>
                  <polygon class="cls-34" points="143.22 297.24 136.32 301.25 128 296.44 134.9 292.43 143.22 297.24"/>
                </g>
                <g class="cls-38">
                  <polygon class="cls-20" points="134.77 302.15 134.77 302.91 127.86 306.92 127.87 306.16 134.77 302.15"/>
                  <polygon class="cls-3" points="127.87 306.16 127.86 306.92 119.54 302.12 119.55 301.36 127.87 306.16"/>
                  <polygon class="cls-34" points="134.77 302.15 127.87 306.16 119.55 301.36 126.45 297.34 134.77 302.15"/>
                </g>
                <g class="cls-38">
                  <polygon class="cls-20" points="245.14 250.14 245.13 250.9 238.22 254.92 238.22 254.16 245.14 250.14"/>
                  <polygon class="cls-3" points="238.22 254.16 238.22 254.92 229.91 250.13 229.92 249.37 238.22 254.16"/>
                  <polygon class="cls-34" points="245.14 250.14 238.22 254.16 229.92 249.37 236.83 245.35 245.14 250.14"/>
                </g>
                <g class="cls-38">
                  <polygon class="cls-20" points="235.78 255.58 235.77 256.35 228.87 260.36 228.87 259.6 235.78 255.58"/>
                  <polygon class="cls-3" points="228.87 259.6 228.87 260.36 220.56 255.56 220.57 254.8 228.87 259.6"/>
                  <polygon class="cls-34" points="235.78 255.58 228.87 259.6 220.57 254.8 227.47 250.79 235.78 255.58"/>
                </g>
                <g class="cls-38">
                  <polygon class="cls-20" points="226.43 261.02 226.42 261.78 219.52 265.79 219.52 265.03 226.43 261.02"/>
                  <polygon class="cls-3" points="219.52 265.03 219.52 265.79 211.21 260.99 211.22 260.23 219.52 265.03"/>
                  <polygon class="cls-34" points="226.43 261.02 219.52 265.03 211.22 260.23 218.12 256.22 226.43 261.02"/>
                </g>
                <g class="cls-38">
                  <polygon class="cls-20" points="217.08 266.45 217.07 267.21 210.16 271.23 210.16 270.47 217.08 266.45"/>
                  <polygon class="cls-3" points="210.16 270.47 210.16 271.23 201.85 266.44 201.86 265.67 210.16 270.47"/>
                  <polygon class="cls-34" points="217.08 266.45 210.16 270.47 201.86 265.67 208.77 261.66 217.08 266.45"/>
                </g>
                <g class="cls-38">
                  <polygon class="cls-20" points="206.82 272.41 206.81 273.17 199.91 277.19 199.91 276.43 206.82 272.41"/>
                  <polygon class="cls-3" points="199.91 276.43 199.91 277.19 191.6 272.39 191.61 271.63 199.91 276.43"/>
                  <polygon class="cls-34" points="206.82 272.41 199.91 276.43 191.61 271.63 198.51 267.62 206.82 272.41"/>
                </g>
                <g class="cls-38">
                  <polygon class="cls-20" points="197.47 277.85 197.46 278.61 190.55 282.63 190.55 281.87 197.47 277.85"/>
                  <polygon class="cls-3" points="190.55 281.87 190.55 282.63 182.24 277.83 182.24 277.07 190.55 281.87"/>
                  <polygon class="cls-34" points="197.47 277.85 190.55 281.87 182.24 277.07 189.16 273.05 197.47 277.85"/>
                </g>
                <g class="cls-38">
                  <polygon class="cls-20" points="188.1 283.29 188.1 284.05 181.2 288.06 181.2 287.3 188.1 283.29"/>
                  <polygon class="cls-3" points="181.2 287.3 181.2 288.06 172.89 283.27 172.9 282.5 181.2 287.3"/>
                  <polygon class="cls-34" points="188.1 283.29 181.2 287.3 172.9 282.5 179.8 278.49 188.1 283.29"/>
                </g>
                <g class="cls-38">
                  <polygon class="cls-20" points="178.75 288.72 178.75 289.48 171.85 293.49 171.85 292.73 178.75 288.72"/>
                  <polygon class="cls-3" points="171.85 292.73 171.85 293.49 163.54 288.7 163.55 287.94 171.85 292.73"/>
                  <polygon class="cls-34" points="178.75 288.72 171.85 292.73 163.55 287.94 170.45 283.93 178.75 288.72"/>
                </g>
                <g class="cls-38">
                  <polygon class="cls-20" points="169.41 294.15 169.4 294.92 162.48 298.93 162.49 298.17 169.41 294.15"/>
                  <polygon class="cls-3" points="162.49 298.17 162.48 298.93 154.18 294.14 154.18 293.38 162.49 298.17"/>
                  <polygon class="cls-34" points="169.41 294.15 162.49 298.17 154.18 293.38 161.1 289.36 169.41 294.15"/>
                </g>
                <g class="cls-38">
                  <polygon class="cls-20" points="160.04 299.6 160.04 300.36 153.14 304.37 153.14 303.61 160.04 299.6"/>
                  <polygon class="cls-3" points="153.14 303.61 153.14 304.37 144.83 299.57 144.83 298.81 153.14 303.61"/>
                  <polygon class="cls-34" points="160.04 299.6 153.14 303.61 144.83 298.81 151.74 294.8 160.04 299.6"/>
                </g>
                <g class="cls-38">
                  <polygon class="cls-20" points="151.14 304.77 151.14 305.53 138.34 312.97 138.34 312.21 151.14 304.77"/>
                  <polygon class="cls-3" points="138.34 312.21 138.34 312.97 130.03 308.17 130.04 307.41 138.34 312.21"/>
                  <polygon class="cls-34" points="151.14 304.77 138.34 312.21 130.04 307.41 142.84 299.97 151.14 304.77"/>
                </g>
                <g class="cls-38">
                  <polygon class="cls-20" points="258.61 254.45 258.61 255.21 251.69 259.23 251.7 258.47 258.61 254.45"/>
                  <polygon class="cls-3" points="251.7 258.47 251.69 259.23 243.39 254.43 243.39 253.67 251.7 258.47"/>
                  <polygon class="cls-34" points="258.61 254.45 251.7 258.47 243.39 253.67 250.31 249.65 258.61 254.45"/>
                </g>
                <g class="cls-38">
                  <polygon class="cls-20" points="249.25 259.89 249.25 260.65 242.34 264.66 242.35 263.9 249.25 259.89"/>
                  <polygon class="cls-3" points="242.35 263.9 242.34 264.66 234.04 259.86 234.04 259.1 242.35 263.9"/>
                  <polygon class="cls-34" points="249.25 259.89 242.35 263.9 234.04 259.1 240.95 255.09 249.25 259.89"/>
                </g>
                <g class="cls-38">
                  <polygon class="cls-20" points="239.9 265.32 239.9 266.08 233 270.09 233 269.33 239.9 265.32"/>
                  <polygon class="cls-3" points="233 269.33 233 270.09 224.69 265.3 224.69 264.54 233 269.33"/>
                  <polygon class="cls-34" points="239.9 265.32 233 269.33 224.69 264.54 231.6 260.53 239.9 265.32"/>
                </g>
                <g class="cls-38">
                  <polygon class="cls-20" points="230.55 270.75 230.55 271.51 223.63 275.53 223.64 274.77 230.55 270.75"/>
                  <polygon class="cls-3" points="223.64 274.77 223.63 275.53 215.33 270.74 215.33 269.98 223.64 274.77"/>
                  <polygon class="cls-34" points="230.55 270.75 223.64 274.77 215.33 269.98 222.25 265.96 230.55 270.75"/>
                </g>
                <g class="cls-38">
                  <polygon class="cls-20" points="221.19 276.19 221.19 276.96 214.28 280.97 214.29 280.21 221.19 276.19"/>
                  <polygon class="cls-3" points="214.29 280.21 214.28 280.97 205.98 276.17 205.98 275.41 214.29 280.21"/>
                  <polygon class="cls-34" points="221.19 276.19 214.29 280.21 205.98 275.41 212.89 271.4 221.19 276.19"/>
                </g>
                <g class="cls-38">
                  <polygon class="cls-20" points="210.94 282.15 210.94 282.91 204.02 286.93 204.03 286.17 210.94 282.15"/>
                  <polygon class="cls-3" points="204.03 286.17 204.02 286.93 195.72 282.14 195.72 281.37 204.03 286.17"/>
                  <polygon class="cls-34" points="210.94 282.15 204.03 286.17 195.72 281.37 202.64 277.36 210.94 282.15"/>
                </g>
                <g class="cls-38">
                  <polygon class="cls-20" points="201.58 287.59 201.58 288.35 194.67 292.36 194.68 291.6 201.58 287.59"/>
                  <polygon class="cls-3" points="194.68 291.6 194.67 292.36 186.37 287.57 186.37 286.81 194.68 291.6"/>
                  <polygon class="cls-34" points="201.58 287.59 194.68 291.6 186.37 286.81 193.27 282.8 201.58 287.59"/>
                </g>
                <g class="cls-38">
                  <polygon class="cls-20" points="192.23 293.02 192.23 293.79 185.32 297.8 185.33 297.04 192.23 293.02"/>
                  <polygon class="cls-3" points="185.33 297.04 185.32 297.8 177.02 293 177.02 292.24 185.33 297.04"/>
                  <polygon class="cls-34" points="192.23 293.02 185.33 297.04 177.02 292.24 183.93 288.23 192.23 293.02"/>
                </g>
                <g class="cls-38">
                  <polygon class="cls-20" points="182.88 298.46 182.88 299.22 175.96 303.24 175.97 302.48 182.88 298.46"/>
                  <polygon class="cls-3" points="175.97 302.48 175.96 303.24 167.66 298.44 167.66 297.68 175.97 302.48"/>
                  <polygon class="cls-34" points="182.88 298.46 175.97 302.48 167.66 297.68 174.58 293.66 182.88 298.46"/>
                </g>
                <g class="cls-38">
                  <polygon class="cls-20" points="173.52 303.9 173.51 304.66 166.61 308.67 166.62 307.91 173.52 303.9"/>
                  <polygon class="cls-3" points="166.62 307.91 166.61 308.67 158.31 303.88 158.31 303.11 166.62 307.91"/>
                  <polygon class="cls-34" points="173.52 303.9 166.62 307.91 158.31 303.11 165.21 299.1 173.52 303.9"/>
                </g>
                <g class="cls-38">
                  <polygon class="cls-20" points="164.17 309.33 164.17 310.09 148.81 319.01 148.82 318.25 164.17 309.33"/>
                  <polygon class="cls-3" points="148.82 318.25 148.81 319.01 140.51 314.22 140.51 313.46 148.82 318.25"/>
                  <polygon class="cls-34" points="164.17 309.33 148.82 318.25 140.51 313.46 155.87 304.54 164.17 309.33"/>
                </g>
                <g class="cls-38">
                  <polygon class="cls-20" points="266.09 262.24 266.08 263 259.17 267.02 259.17 266.26 266.09 262.24"/>
                  <polygon class="cls-3" points="259.17 266.26 259.17 267.02 250.86 262.22 250.87 261.46 259.17 266.26"/>
                  <polygon class="cls-34" points="266.09 262.24 259.17 266.26 250.87 261.46 257.78 257.44 266.09 262.24"/>
                </g>
                <g class="cls-38">
                  <polygon class="cls-20" points="256.73 267.68 256.72 268.44 249.82 272.45 249.82 271.69 256.73 267.68"/>
                  <polygon class="cls-3" points="249.82 271.69 249.82 272.45 241.51 267.66 241.52 266.9 249.82 271.69"/>
                  <polygon class="cls-34" points="256.73 267.68 249.82 271.69 241.52 266.9 248.42 262.88 256.73 267.68"/>
                </g>
                <g class="cls-38">
                  <polygon class="cls-20" points="247.38 273.11 247.37 273.87 240.47 277.89 240.47 277.12 247.38 273.11"/>
                  <polygon class="cls-3" points="240.47 277.12 240.47 277.89 232.16 273.09 232.17 272.33 240.47 277.12"/>
                  <polygon class="cls-34" points="247.38 273.11 240.47 277.12 232.17 272.33 239.07 268.32 247.38 273.11"/>
                </g>
                <g class="cls-38">
                  <polygon class="cls-20" points="238.03 278.55 238.02 279.31 231.11 283.33 231.11 282.57 238.03 278.55"/>
                  <polygon class="cls-3" points="231.11 282.57 231.11 283.33 222.8 278.53 222.81 277.77 231.11 282.57"/>
                  <polygon class="cls-34" points="238.03 278.55 231.11 282.57 222.81 277.77 229.72 273.75 238.03 278.55"/>
                </g>
                <g class="cls-38">
                  <polygon class="cls-20" points="227.77 284.51 227.76 285.27 220.86 289.28 220.86 288.52 227.77 284.51"/>
                  <polygon class="cls-3" points="220.86 288.52 220.86 289.28 212.55 284.49 212.56 283.73 220.86 288.52"/>
                  <polygon class="cls-34" points="227.77 284.51 220.86 288.52 212.56 283.73 219.46 279.71 227.77 284.51"/>
                </g>
                <g class="cls-38">
                  <polygon class="cls-20" points="218.42 289.94 218.41 290.7 211.5 294.72 211.5 293.96 218.42 289.94"/>
                  <polygon class="cls-3" points="211.5 293.96 211.5 294.72 203.19 289.93 203.19 289.17 211.5 293.96"/>
                  <polygon class="cls-34" points="218.42 289.94 211.5 293.96 203.19 289.17 210.11 285.15 218.42 289.94"/>
                </g>
                <g class="cls-38">
                  <polygon class="cls-20" points="209.05 295.38 209.05 296.14 202.15 300.16 202.15 299.4 209.05 295.38"/>
                  <polygon class="cls-3" points="202.15 299.4 202.15 300.16 193.84 295.36 193.85 294.6 202.15 299.4"/>
                  <polygon class="cls-34" points="209.05 295.38 202.15 299.4 193.85 294.6 200.75 290.59 209.05 295.38"/>
                </g>
                <g class="cls-38">
                  <polygon class="cls-20" points="199.7 300.82 199.7 301.58 192.8 305.59 192.8 304.83 199.7 300.82"/>
                  <polygon class="cls-3" points="192.8 304.83 192.8 305.59 184.49 300.79 184.5 300.03 192.8 304.83"/>
                  <polygon class="cls-34" points="199.7 300.82 192.8 304.83 184.5 300.03 191.4 296.02 199.7 300.82"/>
                </g>
                <g class="cls-38">
                  <polygon class="cls-20" points="298.26 255.68 298.26 256.44 287.9 262.45 287.91 261.69 298.26 255.68"/>
                  <polygon class="cls-3" points="287.91 261.69 287.9 262.45 279.6 257.66 279.6 256.9 287.91 261.69"/>
                  <polygon class="cls-34" points="298.26 255.68 287.91 261.69 279.6 256.9 289.96 250.88 298.26 255.68"/>
                </g>
                <g class="cls-38">
                  <polygon class="cls-20" points="285.91 262.85 285.91 263.61 279 267.63 279.01 266.87 285.91 262.85"/>
                  <polygon class="cls-3" points="279.01 266.87 279 267.63 270.7 262.83 270.7 262.07 279.01 266.87"/>
                  <polygon class="cls-34" points="285.91 262.85 279.01 266.87 270.7 262.07 277.61 258.06 285.91 262.85"/>
                </g>
                <g class="cls-38">
                  <polygon class="cls-20" points="276.56 268.29 276.56 269.05 269.64 273.07 269.65 272.31 276.56 268.29"/>
                  <polygon class="cls-3" points="269.65 272.31 269.64 273.07 261.34 268.27 261.34 267.51 269.65 272.31"/>
                  <polygon class="cls-34" points="276.56 268.29 269.65 272.31 261.34 267.51 268.26 263.49 276.56 268.29"/>
                </g>
                <g class="cls-38">
                  <polygon class="cls-20" points="267.2 273.73 267.2 274.49 260.29 278.5 260.3 277.74 267.2 273.73"/>
                  <polygon class="cls-3" points="260.3 277.74 260.29 278.5 251.99 273.7 251.99 272.94 260.3 277.74"/>
                  <polygon class="cls-34" points="267.2 273.73 260.3 277.74 251.99 272.94 258.89 268.93 267.2 273.73"/>
                </g>
                <g class="cls-38">
                  <polygon class="cls-20" points="257.4 279.42 257.4 280.18 206.27 309.89 206.28 309.13 257.4 279.42"/>
                  <polygon class="cls-3" points="206.28 309.13 206.27 309.89 197.97 305.1 197.97 304.34 206.28 309.13"/>
                  <polygon class="cls-34" points="257.4 279.42 206.28 309.13 197.97 304.34 249.1 274.63 257.4 279.42"/>
                </g>
                <g class="cls-38">
                  <polygon class="cls-20" points="190.36 306.25 190.35 307.01 183.43 311.03 183.44 310.27 190.36 306.25"/>
                  <polygon class="cls-3" points="183.44 310.27 183.43 311.03 175.13 306.23 175.13 305.47 183.44 310.27"/>
                  <polygon class="cls-34" points="190.36 306.25 183.44 310.27 175.13 305.47 182.05 301.45 190.36 306.25"/>
                </g>
                <g class="cls-38">
                  <polygon class="cls-20" points="203.83 310.55 203.83 311.31 196.91 315.33 196.92 314.57 203.83 310.55"/>
                  <polygon class="cls-3" points="196.92 314.57 196.91 315.33 188.61 310.54 188.61 309.78 196.92 314.57"/>
                  <polygon class="cls-34" points="203.83 310.55 196.92 314.57 188.61 309.78 195.53 305.76 203.83 310.55"/>
                </g>
                <g class="cls-38">
                  <polygon class="cls-20" points="180.99 311.69 180.99 312.45 174.09 316.46 174.09 315.7 180.99 311.69"/>
                  <polygon class="cls-3" points="174.09 315.7 174.09 316.46 165.78 311.67 165.78 310.91 174.09 315.7"/>
                  <polygon class="cls-34" points="180.99 311.69 174.09 315.7 165.78 310.91 172.69 306.9 180.99 311.69"/>
                </g>
                <g class="cls-38">
                  <polygon class="cls-20" points="194.47 315.99 194.47 316.76 187.56 320.77 187.57 320.01 194.47 315.99"/>
                  <polygon class="cls-3" points="187.57 320.01 187.56 320.77 179.26 315.97 179.26 315.21 187.57 320.01"/>
                  <polygon class="cls-34" points="194.47 315.99 187.57 320.01 179.26 315.21 186.16 311.2 194.47 315.99"/>
                </g>
                <g class="cls-38">
                  <polygon class="cls-20" points="172.09 316.86 172.09 317.62 159.29 325.06 159.29 324.3 172.09 316.86"/>
                  <polygon class="cls-3" points="159.29 324.3 159.29 325.06 150.98 320.27 150.99 319.51 159.29 324.3"/>
                  <polygon class="cls-34" points="172.09 316.86 159.29 324.3 150.99 319.51 163.79 312.07 172.09 316.86"/>
                </g>
                <g class="cls-38">
                  <polygon class="cls-20" points="185.12 321.43 185.12 322.19 178.21 326.2 178.22 325.44 185.12 321.43"/>
                  <polygon class="cls-3" points="178.22 325.44 178.21 326.2 169.91 321.4 169.91 320.64 178.22 325.44"/>
                  <polygon class="cls-34" points="185.12 321.43 178.22 325.44 169.91 320.64 176.82 316.63 185.12 321.43"/>
                </g>
                <g class="cls-38">
                  <polygon class="cls-20" points="176.67 326.34 176.67 327.1 169.76 331.11 169.77 330.35 176.67 326.34"/>
                  <polygon class="cls-3" points="169.77 330.35 169.76 331.11 161.46 326.31 161.46 325.55 169.77 330.35"/>
                  <polygon class="cls-34" points="176.67 326.34 169.77 330.35 161.46 325.55 168.37 321.54 176.67 326.34"/>
                </g>
              </g>
              <path class="cls-20" d="m197.04,361.16c.94.01,1.85-.29,2.62-.82l2.41-1.41,4.82-2.82,9.63-5.64,19.31-11.2,38.62-22.4,38.71-22.25,19.35-11.12,9.7-5.53,4.85-2.76,2.42-1.38c.73-.48,1.87-.78,1.94-1.81-.06,1.04-1.21,1.35-1.92,1.84l-2.41,1.41-4.82,2.82-9.63,5.64-19.31,11.2-38.62,22.4-38.71,22.25-19.35,11.12-9.7,5.53-4.85,2.76-2.42,1.38c-.77.52-1.7.82-2.63.79Z"/>
              <path class="cls-3" d="m227.41,217.59l-113.46,65.51c-1.43.83-3.75.83-5.18,0l118.64-68.5c1.43.83,1.43,2.16,0,2.99Z"/>
            </g>
          </g>
          <path class="cls-3" d="m197.04,361.14v5.14c-.79,0-1.48-.15-2.06-.48l-107.87-62.67c-.54-.33-.85-.76-.85-1.18v-5.17c0,.45.27.88.85,1.21l107.84,62.67c.57.33,1.33.48,2.09.48Z"/>
          <path class="cls-3" d="m86.27,295.38l-4.48-2.6c-.36-.21-.61-.67-.61-1.36l-.33-129.83c0-.54.15-1.33.42-2.12l4.45,2.45v.15c-.27.79-.42,1.54-.42,2.09l.36,129.86c0,.24.03.45.09.64.03.18.12.33.21.45.09.12.18.18.3.27Z"/>
          <path class="cls-19" d="m87.12,297.98c18.13,10.18,36.06,20.69,54.1,31.03,17.91,10.55,35.92,20.93,53.74,31.64-18.13-10.18-36.06-20.69-54.1-31.03-17.91-10.56-35.92-20.93-53.74-31.64Z"/>
          <path class="cls-19" d="m85.66,164.29c.3,21.64.23,43.29.35,64.93-.13,21.64-.05,43.29-.35,64.93-.31-21.64-.23-43.29-.35-64.93.13-21.64.05-43.29.35-64.93Z"/>
        </g>
        <g>
          <g>
            <path class="cls-15" d="m264.41,165.86l-75.96,43.85c-1.22.71-2.21.29-2.21-.94v-107.48c0-1.22.99-2.79,2.21-3.49l75.96-43.85c1.22-.71,2.21-.29,2.21.94v107.48c0,1.22-.99,2.79-2.21,3.49Z"/>
            <path class="cls-29" d="m188.65,110.98c0-.25.41-1.05,1.01-1.4l74.64-43.09-.1,95.88c0,.24-.42,1.06-1,1.4l-74.66,43.1.12-95.89Z"/>
            <path class="cls-3" d="m264.33,59.74c0,1.02-.82,2.32-1.84,2.91s-1.84.24-1.84-.78.82-2.32,1.84-2.91,1.84-.24,1.84.78Z"/>
            <path class="cls-3" d="m259.63,62.47c0,1.02-.82,2.32-1.84,2.91-1.02.59-1.84.24-1.84-.78s.82-2.32,1.84-2.91c1.02-.59,1.84-.24,1.84.78Z"/>
            <path class="cls-3" d="m254.94,65.21c0,1.02-.82,2.32-1.84,2.91-1.02.59-1.84.24-1.84-.78s.82-2.32,1.84-2.91c1.02-.59,1.84-.24,1.84.78Z"/>
          </g>
          <g>
            <g>
              <g>
                <path class="cls-15" d="m244.23,114.88c0,1.57-1.28,3.62-2.92,4.57-1.6.92-2.85.33-2.85-1.24s1.25-3.6,2.85-4.53c1.64-.95,2.92-.4,2.92,1.2Z"/>
                <path class="cls-15" d="m252.78,109.95c0,1.57-1.28,3.62-2.92,4.57-1.6.92-2.85.33-2.85-1.24s1.25-3.6,2.85-4.53c1.64-.95,2.92-.4,2.92,1.2Z"/>
              </g>
              <path class="cls-15" d="m252.78,99.37c0,1.57-1.28,3.62-2.92,4.57-1.6.92-2.85.33-2.85-1.24s1.25-3.6,2.85-4.53c1.64-.95,2.92-.4,2.92,1.2Z"/>
              <path class="cls-15" d="m241.17,102.72l-39.21,22.64c-1.6.92-2.85,2.93-2.85,4.53s1.25,2.16,2.85,1.24l39.21-22.64c1.64-.95,2.92-3,2.92-4.57s-1.28-2.14-2.92-1.2Z"/>
              <path class="cls-15" d="m252.78,121.46c0,1.57-1.28,3.62-2.92,4.57-1.6.92-2.85.33-2.85-1.24s1.25-3.6,2.85-4.53c1.64-.95,2.92-.4,2.92,1.2Z"/>
              <path class="cls-15" d="m241.17,124.81l-39.21,22.64c-1.6.92-2.85,2.93-2.85,4.53s1.25,2.16,2.85,1.24l39.21-22.64c1.64-.95,2.92-3,2.92-4.57s-1.28-2.14-2.92-1.2Z"/>
              <path class="cls-15" d="m252.78,109.95c0,1.57-1.28,3.62-2.92,4.57-1.6.92-2.85.33-2.85-1.24s1.25-3.6,2.85-4.53c1.64-.95,2.92-.4,2.92,1.2Z"/>
              <path class="cls-15" d="m232.52,118.76l-30.42,17.56c-1.68.97-2.98,3.01-2.98,4.61s1.31,2.13,2.98,1.16l30.42-17.56c1.72-.99,3.06-3.08,3.06-4.65s-1.34-2.11-3.06-1.12Z"/>
            </g>
            <g>
              <g>
                <path class="cls-15" d="m244.23,149.01c0,1.57-1.28,3.62-2.92,4.57-1.6.92-2.85.33-2.85-1.24s1.25-3.6,2.85-4.53c1.64-.95,2.92-.4,2.92,1.2Z"/>
                <path class="cls-15" d="m252.78,144.08c0,1.57-1.28,3.62-2.92,4.57-1.6.92-2.85.33-2.85-1.24s1.25-3.6,2.85-4.53c1.64-.95,2.92-.4,2.92,1.2Z"/>
              </g>
              <path class="cls-15" d="m252.78,133.5c0,1.57-1.28,3.62-2.92,4.57-1.6.92-2.85.33-2.85-1.24s1.25-3.6,2.85-4.53c1.64-.95,2.92-.4,2.92,1.2Z"/>
              <path class="cls-15" d="m241.17,136.85l-39.21,22.64c-1.6.92-2.85,2.93-2.85,4.53s1.25,2.16,2.85,1.24l39.21-22.64c1.64-.95,2.92-3,2.92-4.57s-1.28-2.14-2.92-1.2Z"/>
              <path class="cls-15" d="m252.78,155.59c0,1.57-1.28,3.62-2.92,4.57-1.6.92-2.85.33-2.85-1.24s1.25-3.6,2.85-4.53c1.64-.95,2.92-.4,2.92,1.2Z"/>
              <path class="cls-15" d="m241.17,158.94l-39.21,22.64c-1.6.92-2.85,2.93-2.85,4.53s1.25,2.16,2.85,1.24l39.21-22.64c1.64-.95,2.92-3,2.92-4.57s-1.28-2.14-2.92-1.2Z"/>
              <path class="cls-15" d="m252.78,144.08c0,1.57-1.28,3.62-2.92,4.57-1.6.92-2.85.33-2.85-1.24s1.25-3.6,2.85-4.53c1.64-.95,2.92-.4,2.92,1.2Z"/>
              <path class="cls-15" d="m232.52,152.89l-30.42,17.56c-1.68.97-2.98,3.01-2.98,4.61s1.31,2.13,2.98,1.16l30.42-17.56c1.72-.99,3.06-3.08,3.06-4.65s-1.34-2.11-3.06-1.12Z"/>
            </g>
          </g>
        </g>
        <g>
          <g class="cls-38">
            <path class="cls-16" d="m287.99,243.12l-26.01-15.12c8.36-4.82,14.11-5.35,19.18-4.15l26.01,15.12c-5.07-1.2-10.82-.68-19.18,4.15Z"/>
            <path class="cls-16" d="m264.21,247.51l-26.01-15.12c2.62,1.53,6.03.93,10.04-1.39l26.01,15.12c-4.01,2.32-7.41,2.91-10.04,1.39Z"/>
            <g>
              <path class="cls-8" d="m290.03,207.91c.03,10.45-1.42,18.54-4.12,24.76-2.7,6.22-6.64,10.56-11.67,13.46l-13-7.55-13-7.58c5-2.87,8.97-7.21,11.67-13.43,2.7-6.22,4.15-14.34,4.12-24.79-.03-6.13-.54-10.9-1.53-14.4-.99-3.52-2.47-5.74-4.37-6.84l13,7.55,13,7.55c1.9,1.11,3.38,3.35,4.37,6.84.99,3.49,1.5,8.26,1.53,14.42Z"/>
              <path class="cls-16" d="m285.91,232.67c-2.7,6.22-6.64,10.56-11.67,13.46l-13.95-6.22-12.06-8.92c5-2.87,8.97-7.21,11.67-13.43l26.01,15.1Z"/>
            </g>
            <path class="cls-16" d="m294.26,174.04c-5.03-2.92-11.92-2.02-20.22,2.78-17.97,10.39-29.41,32-29.33,57.35.03,13.94,3.41,22.52,9.23,25.89l-26.04-15.1c-5.79-3.41-9.17-11.98-9.23-25.89-.06-25.38,11.39-46.99,29.36-57.35,8.29-4.8,15.19-5.71,20.22-2.78l26.01,15.1Z"/>
            <path class="cls-4" d="m287.99,243.12c8.36-4.82,14.11-5.35,19.18-4.15l-7.94,16.56c-6.84-4-13.18-5.26-25.61,1.92-17.31,10-28.83,2.54-28.9-23.27-.07-25.37,11.36-46.97,29.34-57.36,18-10.39,29.43-2.55,29.5,23.28.05,18.87-6.64,32.38-15.57,43.02Zm-13.74,3.01c10.02-5.79,15.84-17.32,15.78-38.22-.06-20.68-5.83-25.64-15.94-19.8-10.01,5.78-15.93,17.48-15.87,38.27.06,20.79,6.23,25.41,16.03,19.74h0Z"/>
            <path class="cls-8" d="m244.72,234.18c.01,6.97.87,12.6,2.44,16.91,1.58,4.31,3.88,7.3,6.79,8.99l-13.02-7.55-13.02-7.55c-2.9-1.7-5.19-4.7-6.76-9.01-1.58-4.31-2.43-9.93-2.46-16.89-.03-12.69,2.82-24.44,7.92-34.31l26.01,15.13c-5.1,9.87-7.94,21.61-7.89,34.29Z"/>
          </g>
          <g class="cls-38">
            <polygon class="cls-8" points="228.38 282.23 202.36 267.11 198.12 251.64 224.14 266.75 228.38 282.23"/>
            <polygon class="cls-16" points="204.37 266.99 178.35 251.87 195.46 241.99 221.48 257.11 204.37 266.99"/>
            <polygon class="cls-8" points="221.48 257.11 195.46 241.99 186.8 210.06 212.82 225.18 221.48 257.11"/>
            <path class="cls-4" d="m220.96,209.17l21.03,65.2-13.61,7.86-4.24-15.48-22.28,12.86-4.12,20.3-13.32,7.69,20.68-89.28,15.86-9.16Zm-16.6,57.82l17.11-9.88-8.66-31.93-8.45,41.81h0Z"/>
            <polygon class="cls-16" points="205.1 218.33 179.08 203.21 194.95 194.05 220.96 209.17 205.1 218.33"/>
            <polygon class="cls-8" points="184.42 307.61 158.4 292.49 179.08 203.21 205.1 218.33 184.42 307.61"/>
            <polygon class="cls-16" points="162.8 276.88 136.78 261.77 157.48 249.81 183.5 264.93 162.8 276.88"/>
            <polygon class="cls-8" points="150.06 327.44 124.05 312.33 123.83 235.11 149.85 250.23 150.06 327.44"/>
            <polygon class="cls-4" points="187.88 228.27 186.55 239.99 162.73 253.74 162.8 276.88 183.5 264.93 183.53 275.89 162.83 287.84 162.92 320.02 150.06 327.44 149.85 250.23 187.88 228.27"/>
            <polygon class="cls-16" points="149.85 250.23 123.83 235.11 161.86 213.15 187.88 228.27 149.85 250.23"/>
          </g>
        </g>
        <g>
          <g>
            <path class="cls-27" d="m221.91,376.01c.07-.9.64-2.44.64-2.44l4.03-.4,3.58-.36s3.95,4.68,4.92,5.54c.97.85,5.71,5.06,5.23,6.2-.25.59-2.38.68-4.55.56-2-.1-4.02-.37-4.62-.56-.79-.25-4.19-3.21-6.62-5.47l-1.13.11-1.53-1.38.05-1.8Z"/>
            <path class="cls-27" d="m253.08,374.42c-.94.02-3.35-1.44-4.15-1.74-1.56-.62-5.82-3.34-7.43-5.26l-.96.06s-1.79-.97-2.01-1.47c-.22-.5.7-4.52.7-4.52l.49.04,1.67-.9,1.38-.32,3.63-.84c.14,4.76,3.22,6.04,5.62,7.73.24.18.48.34.7.52.32.25.58.52.8.78.77.92,1.05,2.14.87,3.33-.17,1.14-.54,2.56-1.31,2.58Z"/>
            <path class="cls-10" d="m248.42,359.51c0,1.7,0,2.74,0,2.74,0,.75-.51,1.51-1.5,2.08-1.44.83-3.53,1.07-5.33.7-.71-.14-1.36-.37-1.92-.7-1-.57-1.5-1.33-1.5-2.08,0,0-.16-22.66-1.11-24.17-.96-1.51-13.13-5.81-13.13-5.81.36.48,5.84,7.87,6.53,10.2.72,2.41,1.08,31.37,1.08,31.37,0,.76-.51,1.52-1.51,2.09-1.12.64-2.62.93-4.07.86-1.16-.06-2.28-.34-3.17-.86-1.03-.59-1.52-1.37-1.49-2.15.06-1.35-.65-24.6-1.3-25.08-.67-.51-16.26-11.91-18.94-16.09-2.68-4.19,2.6-11.66,2.6-11.66l4.27,1.24.29-.07s14.38-3.59,14.38-3.59c0,0,22.61,10.9,24.33,14.82,1.36,3.11,1.5,19.55,1.5,26.14Z"/>
            <polygon class="cls-13" points="230.17 350.58 230.17 349.37 210.54 338.03 210.54 339.25 230.17 350.58"/>
            <polygon class="cls-33" points="256.9 333.93 256.9 335.15 230.17 350.58 230.17 349.37 256.9 333.93"/>
            <polygon class="cls-32" points="230.17 349.37 243.54 341.65 256.9 333.93 237.28 322.59 210.54 338.03 230.17 349.37"/>
            <path class="cls-35" d="m238.17,321.23l-4.19,4.45-2.15,2.17s-9.21-14.4-10.01-15.21c-.81-.8-.55-5.37,0-16.79.31-6.45.85-9.2,1.26-10.39.3-.87.53-.89.55-.89,2.28.13,4.12,2.55,5.2,6.31,1.07,3.76.08,16.79.08,16.79l9.26,13.56Z"/>
            <path class="cls-22" d="m231.41,326.45c0,1.53.99,2.27,2.36,1.93.34-.06.71-.2,1.11-.43,1.68-.94,3.04-2.84,3.41-4.57.06-.28.11-.51.11-.74.03-.09.03-.17.03-.26,0-1.9-1.53-2.61-3.44-1.5-.43.23-.77.51-1.11.79-.6.54-1.14,1.16-1.53,1.87-.43.68-.71,1.45-.85,2.16-.06.26-.09.48-.09.74Z"/>
            <path class="cls-22" d="m226.49,301.5s-3.09,5.37-3.36,7.51c-.27,2.15-.53,9.54-.53,9.54-.33-2.76-3.09,3.71-12.62,6.98-1.92.66-4.33-.03-6.99-.53,0,0-4.5-5.82-5.26-14.91-.1-1.17-.14-2.41-.1-3.7,0-.36.03-.73.06-1.1.19-2.74.75-5.69,1.85-8.79.08-.21.15-.43.23-.64,0,0,12.05-9.66,23.86-11.28,0,0,.38.25.9.89,1.36,1.7,3.63,6.17,1.97,16.03Z"/>
            <path class="cls-35" d="m223.93,326.87l-3.65,5.55-1.44,2.21s-21.36-6.27-22.17-7.08c-.8-.8-2.15-7.25-1.59-18.67.54-11.41,4.69-13.02,4.69-13.02.48.03.92.15,1.34.38,1.59.82,2.78,2.95,3.63,5.93,1.08,3.76-1.07,18.8-1.07,18.8l20.27,5.91Z"/>
            <path class="cls-31" d="m232.35,323.55c.48.57.74,1.31.77,2.07.03,1.14.28,2.04.62,2.7.43.85.88,1.33,1.16,1.68.57.68,2.44.91,2.44.91,0,0-.45-.91-.74-1.9-.31-1.05-.45-2.16.31-2.24,1.48-.11,4.74,5.62,4.74,5.62l.94-.65,1.08-.77-1.08-4.94c-.14-.62-.57-1.14-1.14-1.42-.88-.37-2.19-.94-3.12-1.22-.14-.06-.26-.09-.34-.11-.91-.23-2.16-1.45-3.01-2.38-.43.23-.77.51-1.11.79-.6.54-1.14,1.16-1.53,1.87Z"/>
            <polygon class="cls-14" points="234.66 331.08 230.17 349.37 256.9 333.93 261.4 315.64 234.66 331.08"/>
            <polygon class="cls-19" points="233.94 330.66 234.66 331.08 261.4 315.64 260.67 315.22 233.94 330.66"/>
            <polygon class="cls-13" points="230.17 349.37 229.44 348.94 233.94 330.66 234.66 331.08 230.17 349.37"/>
            <path class="cls-31" d="m216.89,297.43c-2.76-.92-5.33-4.43-6.61-6.42-.53-.84-.84-1.41-.84-1.41l.53-2.47,1.47-1.26s.71.11,1.68.39c2.05.57,5.29,1.86,5.74,4.28.65,3.57-1.97,6.89-1.97,6.89Z"/>
            <path class="cls-31" d="m218.91,293.3c-3.1.45-8.13-3.55-8.13-3.55l-.32-2.44s-.32.25-1.66-1.33c-.41-2.2-1.08-6.21-2.12-9.88,1.83-4.75,7.51-4.91,10.88-3.93,4.23,1.21,4.81,5.39,5.1,7.61.29,2.21-1.37,13.17-3.75,13.52Z"/>
            <path class="cls-27" d="m223.29,278.81c-.11.64-.17,1.3-.22,1.95-.06.84.13,1.99-.48,2.16.02-.19.02-.4.04-.59.05-.53.27-4.02-.97-3.52-.34.22-.63.33-.96.4-.13.03-.27.05-.43.05-4.22.21-4.52-.59-5.78-.57-.31,0-.58.2-.8.52-.64.85-.96,2.52-.9,3.25.1,1,.08,2.31-.03,2.42-.19.13-.46.26-.73.04-.07-.06-.14-.14-.21-.25-.39-.6.04-3.53-1.45-3.12-1.05.39-1.66,1.49-.66,4.41.35.82.46,2.2.46,2.2l-.72-.02s-.29-2.08-1.89-3.98c-1.16-1.37-1.9-3.05-2.19-4.82-.21-1.36-.23-2.69.12-3.4.32-.65,1.07-1.83,1.97-2.63,1.26-1.13,3.66-2.58,6.89-2.33,0,0,5.33-.21,7.66,2.14.62.62,1.03,1.19,1.29,1.72.23.45.34.87.39,1.25.15,1.11-.27,1.99-.41,2.75Z"/>
          </g>
          <path class="cls-22" d="m218.04,332.87c0,1.9,1.56,2.58,3.46,1.5,1.9-1.08,3.41-3.41,3.52-5.31.03-.09.03-.17.03-.26,0-1.93-1.56-2.61-3.49-1.48-.37.2-.71.48-1.05.77-1.22,1.08-2.13,2.61-2.38,4.03-.06.26-.09.48-.09.74Z"/>
          <path class="cls-31" d="m218.13,332.13c.99.68,2.36,1.59,3.32,2.21.71.45,1.19.74,1.28.74.45,0,2.1.14,3.35.23.97.09,1.87.51,2.53,1.22.2.2.48.37.77.43.48.09.99-.03,1.36-.31.26-.2.48-.45.62-.77l.34-.85c.34-.85.14-1.85-.48-2.53l-3.41-3.49c-.28-.28-.71-.4-1.11-.31,0,0-1.48.34-1.68.37-1.65.34-2.98-.34-4.51-.97-1.22,1.08-2.13,2.61-2.38,4.03Z"/>
        </g>
        <g>
          <path class="cls-5" d="m268.66,297.07v4.33l-16.51-9.53c-1.05-.6-1.87-2.05-1.87-3.25s.84-1.68,1.89-1.07l16.49,9.52Z"/>
          <g class="cls-38">
            <path class="cls-37" d="m250.84,287.42l22.46-13.05c.34-.2.81-.17,1.34.13l-22.46,13.05c-.52-.3-1-.33-1.34-.13Z"/>
            <g>
              <polygon class="cls-35" points="290.43 284.72 290.43 288.04 290.76 287.84 291.12 288.05 291.12 288.35 268.66 301.41 268.66 297.07 291.12 284.02 291.12 284.33 290.76 284.53 290.43 284.72"/>
              <polygon class="cls-37" points="291.12 288.05 287.64 290.07 268.66 301.1 268.66 300.68 290.43 288.04 290.43 287.66 291.12 288.05"/>
              <polygon class="cls-17" points="290.43 284.72 290.43 288.04 268.66 300.68 268.66 297.37 290.43 284.72"/>
            </g>
            <g>
              <path class="cls-18" d="m268.66,297.07v4.33l-16.5-9.52c-1.04-.6-1.88-2.06-1.87-3.25,0-1.19.84-1.68,1.89-1.07l16.49,9.52Z"/>
              <path class="cls-37" d="m268.66,300.68v.42l-16.43-9.5c-.99-.61-1.75-1.94-1.75-3.03,0-.6.23-.97.61-1.06-.17.18-.25.47-.25.84,0,1.1.75,2.42,1.7,3,.05.04,16.12,9.33,16.12,9.33Z"/>
              <path class="cls-5" d="m268.66,297.37v3.31l-16.07-9.29c-.99-.61-1.75-1.94-1.75-3.03,0-.37.09-.66.25-.84.04-.01.09-.03.14-.03.25,0,.5.09.75.23l3.42,1.98,13.26,7.67Z"/>
            </g>
            <polygon class="cls-37" points="291.12 284.02 290.87 284.17 287.64 286.05 268.66 297.07 255.65 289.55 252.43 287.69 252.17 287.55 274.63 274.5 291.12 284.02"/>
          </g>
          <polygon class="cls-35" points="291.12 284.02 291.12 284.33 290.76 284.53 290.43 284.72 268.66 297.37 268.66 297.07 291.12 284.02"/>
        </g>
        <g>
          <g>
            <g>
              <path class="cls-30" d="m399.65,300.97c8.26,4.77,8.26,12.51,0,17.28-8.26,4.77-21.66,4.77-29.92,0-8.26-4.77-8.26-12.51,0-17.28,8.26-4.77,21.66-4.77,29.92,0Z"/>
              <path class="cls-10" d="m365.93,309.85c0,.1,0,.14.02.19.19.38,1.38,1.27,3.61,2.45.91.5,1.99.86,2.95,1.13,1.39.38,2.52.55,2.52.55l.05.65.02.38c.24.19,2.69.94,3.5.94s2.61-1.39,2.64-1.58c.02-.12.02-.7,0-1.13v-.5c0-.17-.02-.36-.02-.55,0-.12-.02-.24-.05-.38-.07-.58-.17-1.2-.29-1.73-.05-.22-.1-.41-.12-.6-.22-.96-.43-1.65-.43-1.65l-3.26-.12-2.83-.1c-.62.1-1.3.1-1.97.07-2.88-.19-4.28-.1-5.1-.03-.58.14-1.22,1.37-1.25,2.02Z"/>
              <path class="cls-31" d="m373.76,307.91c-.02-.12.22-6.1.22-11.88,0-2.89-.06-5.74-.24-7.75-.54-6.05-1.84-17.21-1.84-17.21l8.1.43,2.07.11-.56,3.49s.9,5.92.9,12.1-2.03,5.64-2.22,20.53c.03.51-.28,1.01-.94,1.39-.27.16-.59.29-.91.37-.63.18-1.32.22-1.98.14,0,0-5.94.03-6.05-.95-.11-.94,3.21-.78,3.45-.77Z"/>
              <path class="cls-10" d="m381.91,306.39c0,.1,0,.14.02.19.19.38,1.26,1.59,3.46,2.75.9.5,1.97.85,2.92,1.12,1.38.38,2.49.55,2.49.55l.05.64.02.38c.24.19,2.66.93,3.46.93s2.59-1.38,2.61-1.57c.02-.12.02-.69,0-1.11v-.5c0-.17-.02-.36-.02-.55,0-.12-.02-.24-.05-.38-.07-.57-.17-1.19-.28-1.71-.05-.21-.09-.4-.12-.59-.21-.95-.43-1.64-.43-1.64l-3.23-.12-2.8-.1c-.62.1-1.28.04-1.95.07-2.76.12-3.77-.1-4.97,0-.66.22-1.17,1-1.19,1.64Z"/>
              <path class="cls-31" d="m386.59,305.61c-.08-.66,1.88-.82,3.17-.86.07-1.84.49-13.67-.01-19.24-.54-6.05-1.84-17.21-1.84-17.21l6.89.37,3.28.17-.56,3.49s.9,5.92.9,12.11-2.04,5.63-2.23,20.58c.03.51-.27,1.01-.93,1.39-.21.12-.45.23-.69.3-.5.17-1.06.23-1.62.23,0,0-.4,0-.44,0-1.42-.11-5.82-.51-5.92-1.33Z"/>
              <g>
                <path class="cls-3" d="m344.92,204.45l9.92-5.73c.62-.36,1.61-.36,2.23,0l19.14,11.1,1.63.28v1.09c-.03.22-.17.43-.46.6l-10.35,5.97c-.62.36-1.61.36-2.23,0l-20.31-11.77c-.3-.17-.45-.4-.46-.62v-1.06s.88.15.88.15Z"/>
                <path class="cls-34" d="m377.38,210.75l-10.35,5.97c-.62.36-1.61.36-2.23,0l-20.31-11.77c-.62-.36-.62-.93,0-1.29l10.35-5.97c.62-.36,1.61-.36,2.23,0l20.31,11.77c.62.36.62.93,0,1.29Z"/>
                <path class="cls-27" d="m365.92,216.69c.36,0,.72-.08.97-.23l10.35-5.97c.2-.11.31-.25.31-.38s-.11-.27-.31-.39l-20.31-11.77c-.25-.14-.6-.23-.97-.23s-.72.08-.97.23l-10.35,5.97c-.2.12-.31.26-.31.39s.11.27.31.39l20.31,11.77c.25.14.6.23.97.23Z"/>
                <path class="cls-35" d="m401.08,190.98s2.86.5,3.16,9.57c.3,9.07-1.27,21.28-2.18,22.37-.91,1.09-8.89-1.81-8.89-1.81l6.43-21.27,1.47-8.86Z"/>
                <path class="cls-31" d="m363.43,209.74c0,.07.06.13.14.16.75.39,4.33-.7,4.91-.7,0,0-.22.55,0,1.03.21.48,2.93,2.29,2.93,2.29l1.47-3.43.65-1.52s-2.78-1.64-3.87-1.33c-1.08.3-6.34,2.72-6.22,3.5Z"/>
                <path class="cls-22" d="m370.23,271.13s.59,1.57,7.2,1.9c.08,0,.16,0,.24,0,6.74.32,21.77.03,22.09-4.23.34-4.3-.52-21.35.74-25.56,1.27-4.2,1.28-8.52-.89-12.98-2.16-4.47,3.13-21.17,3.22-28.45.08-7.27-.3-10.93-1.74-10.83-9.61.65-23.5,8.43-23.5,8.43l-2.22,1.66s-2.31,5.8-4.39,9.1c-2.06,3.3,6.04,7.94,5.96,12.16-.08,4.22-4.91,11.64-6.29,20.84-1.37,9.2-.41,27.96-.41,27.96Z"/>
                <path class="cls-31" d="m358.14,219.7c.53,1.64,4.64,3.85,4.64,3.85l2.09-2.88.53-.79c0-.18.38-2.56,0-4.07-.38-1.5-2.06-2.78-2.21-2.51-.15.26-.42.18,0,1.43.41,1.24.25,2.18.25,2.18l-4.05-2.33s-1.77,3.48-1.24,5.12Z"/>
              </g>
            </g>
            <path class="cls-35" d="m362.65,223.55s3.87,3.28,7.51,5.82c2.58,1.8,5.03,3.23,5.92,2.89,2.13-.82,4.63-19.43,4.85-23.58.25-4.15,0-4.74-1.65-7.39-.62-.98-1.35-1.23-2.03-1.16-.24.02-.46.09-.67.17-.89.35-1.54,1.13-1.82,2.05-2.2,7.2-1.86,19.19-1.89,20.97,0,.03-.13-.05-.37-.17-1.5-.88-6.42-4.11-6.42-4.11-.4-.29-1.01-.27-1.72.12-1.24.78-2.13,2.23-2.13,3.37,0,.47.15.82.42,1.01Z"/>
          </g>
          <path class="cls-31" d="m380.26,190.77c.4,1.38,3.06,1.91,3.06,1.91l-2.32-11.29s-1.37,7.25-.74,9.38Z"/>
          <path class="cls-10" d="m381.16,192.31c.09,1.03.26,2.07.73,2.99.98,1.94,3.01,1.98,4.78,2.78,2.2.99,4.32,1.64,6.77,1.54,1.92-.08,7.83-1.16,7.16-4.25-.64-2.96.4-11.59-.86-18.98-1.26-7.39-11.37-7.4-11.37-7.4,0,0-.79,0-1.94.63-4.52,2.5-6.94,9.01-6.39,13.95.15,1.32.54,2.61.75,3.92.24,1.48.24,2.98.34,4.47,0,.12.02.24.03.37Z"/>
        </g>
        <g>
          <path class="cls-35" d="m39.84,266.1c-.02-.67-.43-1.3-1.26-1.78-1.69-.97-4.42-.97-6.11,0-1.69.97-1.69,2.55,0,3.53.51.3,1.13.47,1.78.59l.31,15.82c-8.29-14.3-4.83,3.77-4.83,3.77l7.47,6.68s3.8,1.59,5.15.53c1.35-1.06-2.5-29.14-2.5-29.14Z"/>
          <path class="cls-22" d="m31.82,266.11c.15.44.5.85,1.09,1.17.15.09.29.15.47.21,1.56.7,3.73.62,5.14-.21.38-.21.68-.47.88-.76.47-.65.35-1.44-.29-2.06-.18-.15-.35-.29-.59-.44-1.56-.88-4.05-.88-5.61,0-.97.56-1.35,1.35-1.09,2.08Z"/>
          <g>
            <path class="cls-30" d="m43.96,367.52c9.35,5.4,9.35,14.16,0,19.56-9.35,5.4-24.52,5.4-33.87,0-9.35-5.4-9.35-14.16,0-19.56,9.35-5.4,24.52-5.4,33.87,0Z"/>
            <g>
              <path class="cls-27" d="m10.06,377.14s-.55,2.25-.48,3.92l2.58,1.46,1.16-.65s4.94,4.36,8.86,5.45c2.58.72,5.7.18,7.53-.28.88-.22,1.22-1.29.62-1.97-2.04-2.31-7.3-5.81-8.68-6.8-1.82-1.31-2.2-2.67-2.2-2.67l-9.4,1.55Z"/>
              <path class="cls-27" d="m26.19,367.83s-.78,2.2-.78,3.95l2.72,1.17,1.17-.52s2.19,1.67,3.35,2.77c1.17,1.1,8,4.35,9.48,3.78.84-.33.98-3.63.4-4.74-.58-1.1-6.35-4.22-7.59-6.74l-8.75.32Z"/>
              <g>
                <path class="cls-10" d="m8.89,317.31c-.31-5.45,1.44-11.37,1.44-11.37l10.23.92c0-.17,0-.28,0-.28l10.43-.1,3.65-.04s2.7,19.85,2.3,26.71c-.4,6.87-1.58,33.81-1.58,33.81,0,.74-.49,1.49-1.48,2.05-.63.37-1.38.61-2.18.74-1.7.28-3.6.04-4.94-.74-.99-.56-1.48-1.31-1.48-2.05l.17-25.97s-.37-1.56-.89-3.85c-.29,2.32-.59,4.28-.86,5.39-1.12,4.56-3.85,33.63-3.86,33.63,0,.74-.49,1.49-1.48,2.05-.19.12-.41.22-.63.31-1.97.81-4.72.71-6.49-.31-.99-.57-1.48-1.32-1.47-2.08-.19-7.55.67-18.24,1.39-25.48.52-5.24.42-10.5-.28-15.72-.83-6.22-1.79-14.14-1.99-17.62Z"/>
                <path class="cls-22" d="m6.5,270.29l.49,46.7s5.64,3.37,18.9,2.56c10.42-.64,10.81-6.07,10.5-8.37-.15-1.08-.28-2.15-.33-3.24-.29-6.06-1.04-22.57-.62-24.33.47-1.99,2-6.78-1.64-16.9-.36-1.02-.78-2.08-1.26-3.2,0,0-.76-.18-2.01-.38-2.78-.43-7.96-.91-12.81.38-.92.24-1.79.54-2.6.87-5.47,2.2-8.61,5.92-8.61,5.92Z"/>
                <path class="cls-31" d="m15.98,264.03s2.1,2.14,5.53,5.36c1.14,1.08,2.34,2,3.47,2.53l.86-5.74.97-5.48-.8-.25-8.82.51-1.2,3.07Z"/>
              </g>
              <path class="cls-35" d="m0,292.84c.02,5.66,7.54,25.91,7.54,25.91l5.47-2.86,2.76-1.44s-10.53-19.55-5.66-31.43c4.87-11.87-1.09-14.44-1.09-14.44C.07,270.4-.02,287.18,0,292.84Z"/>
              <path class="cls-22" d="m15.69,316.12c-.1.23-.2.4-.31.57-.07.12-.13.21-.22.31-1.22,1.5-3.17,2.58-4.96,2.75-.22.02-.42.03-.62.02-.21,0-.4-.03-.59-.07-.24-.04-.44-.11-.63-.2-.98-.58-1.24-1.47-.74-2.55.11-.23.24-.45.4-.68.14-.2.3-.39.48-.58.21-.23.46-.45.72-.65.23-.19.49-.37.76-.54.66-.42,1.4-.75,2.14-.94.16-.04.32-.08.48-.11.16-.04.33-.06.5-.08.13-.01.26-.02.39-.01,1.94-.05,2.92,1.13,2.21,2.75Z"/>
              <path class="cls-31" d="m17.24,321.92c-.35-.17-1.1-.98-1.68-1.72-.09-.11-.26-.02-.22.12l1.66,4.94c.13.44.02.91-.27,1.25-.58.68-1.67,1.72-3.05,2.03-.49.11-1.01-.06-1.36-.43-.62-.65-1.64-1.76-1.96-2.38-.47-.91-2.02-4.92-2.16-5.96-.01-.09-.03-.22-.04-.37-.06-.73-.11-2.01-.15-3.13.14-.2.3-.39.48-.58.21-.23.46-.45.72-.65.23-.19.49-.37.76-.54.66-.42,1.4-.75,2.14-.94l3.13,2.18c.16.11.31.24.45.38.32.33.56.74.7,1.18l1.31,4.22c.09.28-.2.52-.47.4Z"/>
              <path class="cls-31" d="m29.03,260.59l1.62,4.11c.24.59.62,1.09,1.18,1.41.26.18,1.56,1.38,1.56,1.38,1.56.7,3.73.62,5.14-.21.38-.21.68-.47.88-.76-.09-.59-.18-1.32-.29-2.06-.21-1.23-.41-2.44-.47-2.82-.03-.09-.03-.18-.06-.26-.41-1.32-2.03-4.73-2.53-5.52-.35-.59-1.47-1.62-2.11-2.23-.38-.35-.91-.47-1.41-.32-1.32.38-2.35,1.53-2.88,2.23-.26.35-.35.85-.18,1.26l2,4.82c.06.12-.12.23-.21.12-.62-.68-1.44-1.44-1.79-1.59-.26-.12-.56.15-.44.44Z"/>
              <g>
                <path class="cls-10" d="m34.23,256.75c-.09-.13-.2-.26-.33-.33l-3.83-2.2-3.83-2.2c-.13-.08-.25-.09-.33-.05l-.59.3.45.58v4.78c0,.13.05.28.14.41.09.13.2.26.33.33l3.83,2.2,2.89,1.66.67.89.6-.3c.09-.04.14-.12.14-.25v-5.41c0-.13-.05-.28-.14-.41Z"/>
                <g>
                  <path class="cls-3" d="m33.31,263.07l-1.91-1.1-1.91-1.1-1.91-1.1-1.91-1.1c-.06-.04-.13-.09-.18-.14-.06-.06-.11-.12-.15-.19-.04-.07-.08-.14-.1-.21-.04-.21-.04-1.56-.04-1.56v-4.06c.47-.2,2.39.9,2.39.9l1.91,1.1,1.91,1.1,1.91,1.1c.07.04.13.09.18.14.06.06.11.12.15.19.04.07.08.14.1.21.04.21.04,1.56.04,1.56v4.06c-.03.41-.41.24-.47.2Z"/>
                  <path class="cls-27" d="m25.89,252.93v5.39c0,.14.12.32.26.41l6.59,3.8c.14.08.26.03.26-.11v-5.39c0-.14-.11-.32-.26-.41l-6.59-3.8c-.14-.08-.26-.03-.26.11Z"/>
                  <path class="cls-2" d="m25.67,255.72v-.44c-.27-.15-.27.28-.27.28.22.24.27.22.27.15Z"/>
                  <path class="cls-10" d="m33.28,260.68c-.12-.07-.22-.22-.22-.34,0,0,0-.8.06-.92.06-.04.16-.02.28.06s.22.22.22.35c0,0,0,.8-.13.94-.06,0-.13-.03-.21-.07Zm-.15-1.15v.8c0,.1.08.23.19.29.15.08.2.07.24,0v-.8c0-.1-.08-.23-.19-.29-.09-.05-.14-.06-.18-.06-.02,0-.03,0-.06.07Z"/>
                  <path class="cls-23" d="m25.52,257.95c.1.06.18.02.18-.07s-.08-.22-.18-.28c-.1-.06-.18-.02-.18.07s.08.22.18.28Z"/>
                </g>
              </g>
              <path class="cls-31" d="m16.96,259.01c.12.23.2,1.87.22,1.95.2.39,1.53.3,1.53.3.65,2.02,1.35,2.38,1.35,2.38,1.63,1.12,3.97,1.37,5.8,1.37.63,0,1.19-.02,1.64-.05.66-.05,1.07-.11,1.07-.11,1.63-1.45,2.34-5.46,2.66-8.93.15-1.61.99-3.03,1.08-4.67.07-1.3-.32-2.68-1.31-3.52-.95-.8-2.26-.98-3.5-1.04-2.94-.14-5.9.19-8.74.99-1.18.33-2.4.79-3.14,1.77-.58.77-.79,1.77-.74,2.74.11,2.4,1.42,4.55,2.08,6.82Z"/>
              <path class="cls-10" d="m31.15,248.05s.66,4.67.17,7.36c0,0,2.59-2.87,1.16-9.26-1.43-6.38-13.39-6.07-16.49-3.79-3.09,2.29-4.64,5.39-3.76,9.41.87,4.02,5.08,7.64,4.77,9.72,0,0,1.24-1.19.02-4.96-1.23-3.77,2.15-3.18,2.21-1.78.06,1.39-.06,2.96-.06,2.96l1.21.63s.85-3.12-.06-5.66c-.9-2.54-.54-3.23.5-2.95,1.04.28,8.5,2.8,10.34-1.68Z"/>
            </g>
          </g>
        </g>
        <g>
          <g>
            <path class="cls-34" d="m107.2,353.82l3.31-1.91,4.6,2.66,4.45-2.57,3.04,1.76-4.45,2.57,4.6,2.66-3.31,1.91-4.6-2.66-4.48,2.59-3.04-1.76,4.48-2.59-4.6-2.66Z"/>
            <path class="cls-34" d="m130.7,365.49c-8.67,5.01-22.79,5.01-31.46,0-8.67-5.01-8.67-13.16,0-18.16,8.67-5.01,22.79-5.01,31.46,0,8.67,5.01,8.67,13.16,0,18.16Zm-29.58-17.08c-7.64,4.41-7.64,11.58,0,15.99,7.63,4.41,20.06,4.41,27.69,0,7.64-4.41,7.64-11.58,0-15.99-7.64-4.41-20.06-4.41-27.7,0Z"/>
          </g>
          <g>
            <g>
              <path class="cls-34" d="m146.1,197.7c-.3-17.52-14.6-31.64-32.19-31.64s-31.96,14.18-32.2,31.75c0,.3.06,19.71.06,20.03,0,17.77,14.4,45.65,32.17,45.65s32.17-27.88,32.17-45.65c0-.49,0-19.96,0-20.14Z"/>
              <ellipse class="cls-10" cx="90.73" cy="200.5" rx="6.6" ry="11.67" transform="translate(-102.3 94.81) rotate(-36.95)"/>
              <path class="cls-22" d="m98.13,206.33c-.62,7.31-8.08,41.6-16.42,38.99-8-2.51-2.15-31.62.54-47.5.7-4.12,4.13-5.84,8.31-3.42,4.18,2.41,7.93,7.78,7.57,11.94Z"/>
              <path class="cls-6" d="m155.41,138.35c0,.88-.03,1.73-.08,2.58-.24,3.59-.93,7.05-2.02,10.33-.32.96-.67,1.89-1.06,2.82-3.49,8.33-9.69,15.22-17.51,19.62-5.88,3.3-12.67,5.19-19.88,5.19-7.69,0-14.85-2.13-20.97-5.83-8.2-4.95-14.48-12.72-17.54-21.96-1.17-3.62-1.86-7.43-2-11.39-.03-.45-.03-.9-.03-1.36,0-3.14.35-6.17,1.04-9.1.27-1.09.56-2.16.88-3.22,1.06-3.27,2.53-6.39,4.34-9.26.35-.53.69-1.06,1.06-1.6.11-.16.21-.35.35-.51.03-.05.05-.11.11-.16.53-.72,1.09-1.44,1.68-2.13,1.92-2.32,4.1-4.39,6.47-6.2.03-.05.08-.08.13-.11,2.34-1.78,4.87-3.3,7.59-4.55.16-.08.29-.13.45-.19,4.74-2.16,9.98-3.35,15.49-3.49.32-.03.64-.03.98-.03,1.92,0,3.78.13,5.64.4,3.49.48,6.81,1.38,9.93,2.71,1.3.53,2.58,1.14,3.81,1.84,3.22,1.73,6.18,3.91,8.78,6.47,1.06,1.01,2.05,2.08,3.01,3.22.13.13.24.27.37.43.93,1.17,1.84,2.4,2.64,3.67.64,1.01,1.22,2,1.73,3.03.16.27.29.53.43.8.64,1.28,1.2,2.61,1.7,3.94.53,1.46.98,2.95,1.38,4.5.03.13.05.24.08.37.37,1.68.67,3.41.83,5.14.13,1.33.21,2.66.21,4.02Z"/>
              <path class="cls-22" d="m124.51,102.67c4.71,2.72,4.71,7.13,0,9.85-4.71,2.72-12.35,2.72-17.06,0-4.71-2.72-4.71-7.13,0-9.85,4.71-2.72,12.35-2.72,17.06,0Z"/>
            </g>
            <path class="cls-10" d="m157.94,133.11l-1.65-5.76-7.88,17.73-4.33,6.31c-7.9,4.62-18.15,7.16-28.9,7.16-6.52,0-12.88-.93-18.61-2.71-3.62-1.09-7.03-2.53-10.06-4.29,12.64,13.36,22.47,16.45,26.38,17.11,6.44,1.09,22.73,1.37,30.08-3.22.04-.03.08-.05.12-.07,5.81-3.38,10.23-8.79,12.34-15.17,3.14-9.5,2.5-17.1,2.5-17.1Z"/>
            <path class="cls-22" d="m157.78,135.69c-.59,1.84-1.41,3.57-2.45,5.24-.24.37-.48.72-.72,1.09-2.53,3.62-6.15,6.87-10.78,9.53-1.44.83-2.95,1.6-4.52,2.26-.16.08-.29.13-.45.19-6.95,2.95-15.14,4.55-23.66,4.55-6.52,0-12.88-.93-18.61-2.71-3.62-1.09-7.03-2.53-10.06-4.29.05-.08,2.29-4.66,2.29-4.66,7.05,4.07,16.34,6.33,26.14,6.33s19.08-2.26,26.16-6.33c5.16-2.98,8.84-6.73,10.78-10.94,1.09-2.32,1.62-4.74,1.62-7.24,0-1.3-.16-2.58-.45-3.83-.53-1.54-1.14-3.06-1.86-4.5-.05-.08-.08-.16-.13-.24,5.3,4.66,7.53,10.17,6.71,15.54Z"/>
            <ellipse class="cls-22" cx="132.11" cy="207.73" rx="16.14" ry="9.13" transform="translate(-113.31 188.45) rotate(-53.05)"/>
          </g>
        </g>
        <g>
          <g>
            <path class="cls-15" d="m277.51,28.25l-104.92,60.63c-3.31,1.91-6,.78-6-2.54v-15.32c0-3.31,2.69-7.55,6-9.47L277.51.93c3.31-1.91,6-.78,6,2.54v15.32c0,3.31-2.69,7.55-6,9.47Z"/>
            <path class="cls-29" d="m281.13,4.85v15.3c0,2-1.62,4.55-3.62,5.71l-104.93,60.63c-2,1.15-3.62.47-3.62-1.53v-15.3c0-2,1.62-4.58,3.62-5.73L277.52,3.3c2-1.15,3.62-.45,3.62,1.55Z"/>
            <path class="cls-12" d="m281.13,4.85v15.3c0,2-1.62,4.55-3.62,5.71l-28.37,16.37v-22.56l28.37-16.37c2-1.15,3.62-.45,3.62,1.55Z"/>
          </g>
          <g>
            <g>
              <path class="cls-25" d="m257.1,48.02c-5.06,7.99-13.28,12.73-18.34,10.59-5.06-2.14-5.06-10.35,0-18.34,5.06-7.99,13.28-12.73,18.34-10.59,5.06,2.14,5.06,10.35,0,18.34Z"/>
              <path class="cls-3" d="m238,59.79c-5.47-2.31-5.47-11.21,0-19.84,5.47-8.63,14.37-13.77,19.84-11.46,5.47,2.31,5.47,11.21,0,19.84-5.47,8.63-14.37,13.77-19.84,11.46Zm18.34-28.93c-4.64-1.96-12.19,2.4-16.84,9.72-4.64,7.32-4.64,14.88,0,16.84,4.64,1.96,12.2-2.4,16.84-9.72,4.64-7.32,4.64-14.87,0-16.84Z"/>
            </g>
            <path class="cls-3" d="m267.35,55.14l-11-4.65c-.77-.33-.77-1.58,0-2.79.77-1.22,2.02-1.94,2.79-1.61l11,4.65c.77.33.77,1.58,0,2.79-.77,1.22-2.02,1.94-2.79,1.61Z"/>
          </g>
        </g>
        <g>
          <path class="cls-1" d="m265.91,277.4l1.33,8.26c0,.24.09.47.24.7.17.25.43.49.78.69.1.06.21.11.33.17.61.27,1.38.42,2.11.43.73,0,1.5-.15,2.11-.43.11-.05.22-.11.33-.17.35-.2.61-.44.78-.69.15-.22.23-.46.24-.7l1.33-8.26c0-.72-9.59-.72-9.59,0Z"/>
          <path class="cls-28" d="m277.38,274.24c0,1.46-.47,2.8-1.27,3.93-.23.32-.4.68-.47,1.06l-.39,2.37c-.03.65-.47,1.3-1.34,1.8-.89.51-2.05.77-3.21.77-.56,0-1.13-.06-1.66-.18-.4-.09-.78-.21-1.13-.37-.15-.06-.29-.14-.43-.21-.07-.04-.14-.08-.2-.12-.36-.24-.63-.5-.82-.77-.2-.29-.3-.6-.31-.91l-.12-.74c-.39-2.41-1.04-2.38-1.73-4.72-.62-2.09-.24-4.61,1.71-6.93,5.45-3.96,11.36-.15,11.36,5.03Z"/>
        </g>
        <g>
          <path class="cls-3" d="m345.54,126.62c0,3.59-4.03.9-4.03,3.6v.76l-2.65-1.53v-.87c0-3.81,3.7-1.36,3.7-3.46,0-.98-.71-1.97-1.87-2.64-1-.58-1.98-.68-2.83-.16l-1.85-2.52c1.25-.75,2.85-.65,4.93.55,3.05,1.76,4.61,4.38,4.61,6.27Zm-3.5,8.63c0,.98-.8,1.34-1.83.75-1-.58-1.78-1.85-1.78-2.83s.78-1.36,1.78-.78c1.03.59,1.83,1.86,1.83,2.86Z"/>
          <path class="cls-3" d="m340.77,141.45c-7.25-4.19-13.16-13.5-13.16-20.75s5.9-9.75,13.16-5.56c7.25,4.19,13.15,13.5,13.15,20.75s-5.9,9.75-13.15,5.56Zm0-24.45c-6.23-3.6-11.3-1.45-11.3,4.77s5.07,14.22,11.3,17.82c6.23,3.6,11.3,1.45,11.3-4.77s-5.07-14.22-11.3-17.82Z"/>
        </g>
        <g>
          <path class="cls-15" d="m167.54,169.91c0,.79-.61,1.77-1.5,2.29-.87.5-1.48.23-1.48-.57s.61-1.79,1.48-2.3c.89-.51,1.5-.24,1.5.58Zm-.3,13.46l-2.37,1.37v-9.78l2.37-1.37v9.78Z"/>
          <path class="cls-15" d="m166.05,188.45c-6.48,3.74-11.76,1.51-11.76-4.97s5.27-14.8,11.76-18.55c6.49-3.74,11.76-1.51,11.76,4.97s-5.27,14.81-11.76,18.55Zm0-21.98c-5.63,3.25-10.22,10.48-10.22,16.12s4.58,7.57,10.22,4.32c5.63-3.25,10.22-10.48,10.22-16.12s-4.58-7.57-10.22-4.32Z"/>
        </g>
        <g>
          <path class="cls-20" d="m44.94,163.22c0,1.92-1.09,3.94-4.59,9.29l4.84-2.79-.24,1.83-7.04,4.07v-1.58c3.87-6.16,4.81-7.77,4.81-9.36,0-1.04-.66-1.27-1.63-.71-.89.51-1.48,1.22-2.19,2.45l-1.31-.29c.91-1.7,2.1-3.06,3.66-3.96,2.34-1.35,3.68-.71,3.68,1.05Z"/>
          <path class="cls-20" d="m54.22,163.61l-1.36.79v2.59l-2.1,1.21v-2.59l-4.81,2.78v-1.48l3.29-9.36,1.83-.37-2.89,8.27,2.59-1.49.22-2.97,1.87-1.08v2.84l1.36-.79v1.65Z"/>
          <path class="cls-20" d="m61.57,148.73l-3.92,17.3-1.87.64,3.93-17.3,1.85-.65Z"/>
          <path class="cls-20" d="m70.34,147.09l-4.19,12.43-1.97.5,3.93-11.5-4.77,2.76v-1.66l6.99-4.04v1.51Z"/>
        </g>
        <g>
          <path class="cls-15" d="m298.03,93.88l-75.47,43.57c-1.9,1.1-3.45.45-3.45-1.46v-22.35c0-1.9,1.54-4.34,3.45-5.44l75.47-43.57c1.9-1.1,3.45-.45,3.45,1.46v22.35c0,1.9-1.54,4.34-3.45,5.44Z"/>
          <path class="cls-7" d="m220.98,113.65c0-1.12,1.07-2.99,2.51-3.82l75.47-43.57c.27-.15.49-.24.65-.27,0,.03,0,22.46,0,22.46,0,1.12-1.07,2.99-2.51,3.82l-75.47,43.57c-.27.15-.49.24-.65.27,0-.03,0-22.46,0-22.46Z"/>
          <g>
            <path class="cls-19" d="m280.4,83.08c0,.98-.8,2.27-1.83,2.87-1,.58-1.79.21-1.79-.78s.78-2.26,1.79-2.84c1.03-.59,1.83-.25,1.83.75Z"/>
            <path class="cls-19" d="m272.99,89.44l-41.75,24.1c-.98.56-1.77.23-1.77-.75s.79-2.22,1.77-2.79l41.75-24.1c.98-.56,1.77-.23,1.77.75s-.79,2.22-1.77,2.79Z"/>
            <path class="cls-19" d="m258.74,110.15l-27.51,15.88c-.98.56-1.77.23-1.77-.75s.79-2.22,1.77-2.79l27.51-15.88c.98-.56,1.77-.23,1.77.75s-.79,2.22-1.77,2.79Z"/>
            <path class="cls-19" d="m289.1,92.62l-24.31,14.04c-.98.56-1.77.23-1.77-.75s.79-2.22,1.77-2.79l24.31-14.04c.98-.56,1.77-.23,1.77.75s-.79,2.22-1.77,2.79Z"/>
            <path class="cls-19" d="m291.12,83.12c0,.98-.8,2.27-1.83,2.87-1,.58-1.79.21-1.79-.78s.78-2.26,1.79-2.84c1.03-.59,1.83-.25,1.83.75Z"/>
            <path class="cls-19" d="m248.31,109.93l-17.08,9.86c-.98.56-1.77.23-1.77-.75s.79-2.22,1.77-2.79l17.08-9.86c.98-.56,1.77-.23,1.77.75s-.79,2.22-1.77,2.79Z"/>
            <path class="cls-19" d="m266.18,99.61l-11.34,6.55c-.98.56-1.77.23-1.77-.75s.79-2.22,1.77-2.79l11.34-6.55c.98-.56,1.77-.23,1.77.75s-.79,2.22-1.77,2.79Z"/>
            <path class="cls-19" d="m284.04,89.3l-11.34,6.55c-.98.56-1.77.23-1.77-.75s.79-2.22,1.77-2.79l11.34-6.55c.98-.56,1.77-.23,1.77.75s-.79,2.22-1.77,2.79Z"/>
            <path class="cls-19" d="m289.36,79.67l-4.34,2.5c-.98.56-1.77.23-1.77-.75s.79-2.22,1.77-2.79l4.34-2.5c.98-.56,1.77-.23,1.77.75s-.79,2.22-1.77,2.79Z"/>
          </g>
        </g>
      </g>
    </g>
  </g>
</svg>