<svg width="500" height="500" viewBox="0 0 500 500" fill="none" xmlns="http://www.w3.org/2000/svg">
<g clip-path="url(#clip0_70_672)">
<path d="M500 0H0V500H500V0Z" fill="#F2F1EB"/>
<path d="M155.283 269.141C201.951 269.141 239.783 231.309 239.783 184.641C239.783 137.973 201.951 100.141 155.283 100.141C108.615 100.141 70.7832 137.973 70.7832 184.641C70.7832 231.309 108.615 269.141 155.283 269.141Z" fill="#E2BEE9"/>
<path d="M351.173 152.094C384.336 152.094 411.22 125.21 411.22 92.047C411.22 58.884 384.336 32 351.173 32C318.01 32 291.126 58.884 291.126 92.047C291.126 125.21 318.01 152.094 351.173 152.094Z" fill="#EF9D79"/>
<path d="M421.337 385.199C459.014 347.522 459.014 286.436 421.337 248.759C383.66 211.082 322.574 211.082 284.897 248.759C247.22 286.436 247.22 347.522 284.897 385.199C322.574 422.876 383.66 422.876 421.337 385.199Z" fill="#FFD7D7"/>
<path d="M415.426 277.678C435.864 277.678 452.431 261.11 452.431 240.673C452.431 220.236 435.864 203.668 415.426 203.668C394.989 203.668 378.421 220.236 378.421 240.673C378.421 261.11 394.989 277.678 415.426 277.678Z" stroke="#2F423C" stroke-miterlimit="10" stroke-linecap="round" stroke-linejoin="round"/>
<path d="M132.609 84.7587C138.475 71.0489 132.117 55.1793 118.407 49.3131C104.697 43.4468 88.8274 49.8053 82.9612 63.5151C77.0949 77.2249 83.4533 93.0944 97.1632 98.9607C110.873 104.827 126.742 98.4685 132.609 84.7587Z" stroke="#2F423C" stroke-miterlimit="10" stroke-linecap="round" stroke-linejoin="round"/>
<path d="M442.063 177.241C443.37 170.597 439.044 164.152 432.4 162.845C425.756 161.538 419.311 165.865 418.004 172.509C416.698 179.152 421.024 185.597 427.668 186.904C434.311 188.211 440.757 183.885 442.063 177.241Z" stroke="#2F423C" stroke-miterlimit="10" stroke-linecap="round" stroke-linejoin="round"/>
<path d="M68.035 140.415C69.438 133.791 65.2054 127.283 58.5813 125.88C51.9573 124.478 45.4501 128.71 44.0471 135.334C42.6442 141.958 46.8767 148.465 53.5008 149.868C60.1249 151.271 66.6321 147.039 68.035 140.415Z" stroke="#2F423C" stroke-miterlimit="10" stroke-linecap="round" stroke-linejoin="round"/>
<path d="M364.519 399.873C368.461 409.368 370.639 418.738 368.558 428.165C368.114 430.175 367.495 431.85 366.802 433.267C371.452 430.583 377.206 426.856 383.229 422.012C380.977 419.233 373.205 408.859 372.538 397.184C371.756 383.522 377.107 378.623 381.894 386.536C386.681 394.448 389.882 402.489 389.303 411.154C389.089 414.356 388.288 416.772 387.365 418.552C392.289 414.224 397.249 409.153 401.792 403.299C398.029 400.328 389.518 392.748 386.325 382.714C382.176 369.675 386.142 363.6 392.744 370.077C399.346 376.553 404.443 383.547 406.034 392.084C406.367 393.872 406.447 395.452 406.378 396.851C409.156 392.608 411.679 388.018 413.817 383.062C409.961 380.262 401.113 373.008 397.516 363.073C392.858 350.206 396.583 343.981 403.433 350.193C410.284 356.405 415.652 363.194 417.577 371.662C417.614 371.822 417.634 371.971 417.667 372.128C418.244 370.072 418.757 367.968 419.191 365.806C417.429 364.442 414.976 361.756 413.608 356.76C411.314 348.385 412.848 339.867 415.962 331.159C419.075 322.451 425.295 326.186 427.252 339.729C429.059 352.235 422.433 364.915 421.406 366.789C420.949 368.993 420.421 371.144 419.82 373.24C426.238 367.409 434.515 364.915 443.677 363.738C452.85 362.56 452.345 369.797 441.164 377.688C432.096 384.088 419.935 384.751 415.663 384.773C413.808 388.962 411.679 392.886 409.365 396.57C410.709 395.761 412.371 395.011 414.425 394.446C422.798 392.145 431.317 393.673 440.028 396.78C448.739 399.886 445.009 406.109 431.467 408.077C420.116 409.727 408.626 404.431 405.195 402.669C402.045 406.941 398.676 410.843 395.221 414.355C395.465 414.28 395.694 414.199 395.948 414.129C405.256 411.571 414.726 413.27 424.409 416.723C434.092 420.176 429.946 427.094 414.893 429.281C402.087 431.142 389.121 425.051 385.524 423.185C381.422 426.541 377.429 429.385 373.781 431.752C374.254 431.712 374.734 431.676 375.241 431.662C384.89 431.392 393.684 435.294 402.268 440.953C410.852 446.611 405.179 452.343 390.037 450.887C377.507 449.682 366.614 441.127 363.221 438.205C361.772 439.542 360.634 440.017 360.634 440.017C360.634 440.017 360.494 439.798 360.267 439.419C358.331 440.351 357.163 440.835 357.081 440.868L356.2 438.664C356.278 438.633 357.33 438.2 359.101 437.353C356.455 432.414 351.403 421.301 352.46 410.017C353.88 394.871 360.577 390.378 364.519 399.873Z" fill="#44806E"/>
<path d="M111.743 420.555C123.947 419.471 135.379 420.348 145.352 426.085C147.478 427.308 149.16 428.612 150.524 429.907C149.136 423.661 146.958 415.785 143.607 407.206C139.642 408.772 125.068 413.895 111.557 410.477C95.7459 406.478 92.0909 398.642 102.799 396.032C113.507 393.421 123.793 392.659 133.436 396.417C137 397.806 139.46 399.581 141.153 401.268C137.995 394.122 134.004 386.669 128.975 379.41C124.252 382.625 112.589 389.588 100.04 389.628C83.7319 389.68 78.2449 382.997 87.9699 377.809C97.6939 372.621 107.469 369.329 117.743 370.575C119.895 370.836 121.72 371.311 123.286 371.89C119.456 367.214 115.141 362.703 110.272 358.499C105.71 361.881 94.2959 369.344 81.7149 369.878C65.4209 370.57 59.6759 364.108 69.1899 358.543C78.7029 352.977 88.3419 349.304 98.6569 350.146C98.8519 350.162 99.0289 350.191 99.2189 350.211C97.0879 348.819 94.8789 347.484 92.5769 346.216C90.3959 347.731 86.4649 349.558 80.2959 349.326C69.9539 348.937 60.8199 344.146 52.0349 337.49C43.2499 330.835 49.7199 325.101 65.8169 327.721C80.6809 330.141 92.7259 342.211 94.4879 344.049C96.8309 345.357 99.0869 346.727 101.254 348.16C96.9219 338.777 97.0469 328.476 98.9879 317.639C100.931 306.79 108.978 309.954 113.948 325.487C117.979 338.086 114.382 352.148 112.878 357.012C116.977 360.62 120.676 364.444 124.036 368.392C123.597 366.575 123.339 364.417 123.432 361.879C123.812 351.537 128.597 342.399 135.246 333.608C141.894 324.817 147.634 331.283 145.026 347.382C142.84 360.877 132.708 372.044 129.479 375.314C133.209 380.424 136.439 385.649 139.195 390.833C139.197 390.529 139.186 390.24 139.198 389.926C139.621 378.429 144.939 368.271 152.33 358.499C159.721 348.726 166.101 355.915 163.202 373.811C160.736 389.035 149.172 401.595 145.764 405.017C148.111 410.881 149.916 416.438 151.301 421.432C151.424 420.88 151.556 420.321 151.721 419.74C154.867 408.674 162.449 400.073 171.953 392.339C181.456 384.605 185.942 393.105 178.87 409.797C173.016 423.61 159.394 432.933 154.858 435.745C155.86 437.871 155.992 439.335 155.992 439.335C155.992 439.335 155.693 439.416 155.181 439.538C155.548 442.072 155.68 443.573 155.688 443.679L152.867 443.892C152.86 443.793 152.744 442.441 152.414 440.124C145.853 441.365 131.412 443.132 118.962 437.893C102.251 430.86 99.5389 421.639 111.743 420.555Z" fill="#44806E"/>
<path d="M86.991 401.037C87.359 409.535 89.006 417.322 93.864 423.661C94.9 425.013 95.951 426.051 96.966 426.872C92.541 426.487 86.922 425.707 80.712 424.184C81.428 421.313 83.623 410.815 80.038 401.829C75.843 391.313 70.117 389.513 69.297 397.121C68.478 404.728 68.892 411.877 72.358 418.17C73.639 420.496 75.085 422.027 76.401 423.038C71.195 421.517 65.702 419.451 60.247 416.652C62.028 413.108 65.756 404.446 64.638 395.807C63.185 384.579 58.085 381.413 55.403 388.579C52.72 395.745 51.347 402.772 53.142 409.729C53.518 411.186 54.011 412.398 54.553 413.424C50.985 411.215 47.488 408.657 44.15 405.69C46.061 402.242 50.155 393.706 49.374 384.999C48.363 373.723 43.391 370.359 40.43 377.414C37.468 384.469 35.82 391.437 37.34 398.459C37.368 398.592 37.405 398.711 37.436 398.84C36.284 397.5 35.163 396.102 34.081 394.634C34.924 392.995 35.823 390.123 35.101 385.899C33.89 378.817 29.758 372.969 24.376 367.53C18.994 362.091 15.639 367.068 18.911 377.906C21.933 387.914 31.339 395.101 32.765 396.146C33.879 397.639 35.028 399.066 36.212 400.427C29.36 398.302 22.282 399.329 15.001 401.654C7.71203 403.981 10.624 409.23 21.767 411.233C30.805 412.857 40.154 409.098 43.364 407.62C46.221 410.111 49.19 412.308 52.214 414.26C50.924 414.124 49.415 414.143 47.677 414.439C40.595 415.645 34.743 419.772 29.3 425.149C23.857 430.526 28.831 433.886 39.672 430.622C48.759 427.886 55.52 419.894 57.475 417.373C61.332 419.474 65.223 421.219 69.042 422.643C68.833 422.672 68.633 422.691 68.418 422.728C60.544 424.068 54.04 428.656 47.989 434.634C41.938 440.612 47.468 444.347 59.519 440.718C69.771 437.631 77.359 428.527 79.403 425.869C83.653 426.949 87.642 427.683 91.205 428.181C90.836 428.316 90.464 428.458 90.079 428.624C82.751 431.799 77.524 437.802 73.069 445.048C68.614 452.294 74.873 454.605 85.715 448.215C94.687 442.926 99.859 432.7 101.38 429.322C102.934 429.817 103.954 429.775 103.954 429.775C103.954 429.775 103.982 429.561 104.02 429.198C105.797 429.22 106.842 429.173 106.916 429.169L106.805 427.208C106.736 427.212 105.795 427.255 104.171 427.24C104.426 422.612 104.324 412.512 99.582 404.422C93.217 393.563 86.624 392.539 86.991 401.037Z" fill="#44806E"/>
<path d="M224.897 109.328C220.026 116.549 216.641 123.964 216.783 132.142C216.813 133.886 217.046 135.38 217.383 136.674C213.974 133.663 209.822 129.6 205.636 124.565C207.973 122.637 216.172 115.329 218.691 105.747C221.639 94.5342 218.02 89.5662 212.714 95.3312C207.408 101.096 203.397 107.234 202.42 114.526C202.059 117.221 202.318 119.362 202.785 120.996C199.424 116.574 196.159 111.528 193.371 105.903C196.996 104.069 205.338 99.2072 209.677 91.4122C215.316 81.2822 213.045 75.5712 206.473 79.8382C199.902 84.1052 194.492 89.0552 191.735 95.8762C191.157 97.3052 190.826 98.6042 190.647 99.7772C189.054 95.7862 187.731 91.5512 186.789 87.0752C190.462 85.3992 199.03 80.8632 203.688 73.2192C209.721 63.3182 207.675 57.5222 200.941 61.5282C194.207 65.5342 188.607 70.2682 185.585 76.9762C185.528 77.1032 185.485 77.2232 185.432 77.3482C185.299 75.5432 185.227 73.7102 185.23 71.8422C186.922 71.0062 189.411 69.1882 191.388 65.2702C194.702 58.7012 194.861 51.3712 193.741 43.6162C192.621 35.8612 186.828 37.9162 182.924 48.8332C179.32 58.9142 182.688 70.5582 183.226 72.2872C183.234 74.1942 183.311 76.0692 183.458 77.9112C179.109 71.9902 172.656 68.5262 165.246 66.0072C157.827 63.4862 157.029 69.5802 164.986 78.0142C171.439 84.8542 181.426 87.4502 184.969 88.1872C185.805 91.9782 186.912 95.5952 188.214 99.0422C187.234 98.1442 185.98 97.2422 184.369 96.4272C177.803 93.1082 170.472 92.9432 162.717 94.0582C154.961 95.1722 157.011 100.967 167.925 104.879C177.073 108.159 187.505 105.694 190.65 104.809C192.547 108.887 194.688 112.693 196.966 116.191C196.776 116.088 196.6 115.982 196.4 115.881C189.101 112.191 180.952 112.008 172.33 113.247C163.708 114.486 165.987 120.927 178.119 125.276C188.44 128.976 200.231 126.099 203.532 125.155C206.374 128.632 209.211 131.665 211.842 134.244C211.456 134.131 211.063 134.021 210.645 133.924C202.678 132.077 194.719 133.837 186.639 137.092C178.559 140.346 182.306 146.06 195.124 147.399C205.732 148.506 216.216 143.235 219.525 141.38C220.503 142.734 221.369 143.32 221.369 143.32C221.369 143.32 221.522 143.161 221.774 142.885C223.224 143.985 224.113 144.583 224.176 144.624L225.278 142.942C225.219 142.903 224.418 142.367 223.089 141.365C226.117 137.709 232.182 129.331 233.202 119.783C234.573 106.964 229.768 102.106 224.897 109.328Z" fill="#44806E"/>
<path d="M322.835 179.949C323.569 188.628 322.912 196.753 318.804 203.825C317.928 205.333 316.996 206.525 316.072 207.49C320.516 206.522 326.122 204.997 332.231 202.64C331.13 199.817 327.531 189.441 330.001 179.846C332.891 168.618 338.472 166.043 340.296 173.663C342.12 181.283 342.631 188.597 339.931 195.441C338.933 197.97 337.664 199.714 336.46 200.913C341.55 198.689 346.86 195.874 352.035 192.321C349.764 188.954 344.848 180.642 344.857 171.721C344.869 160.128 349.636 156.247 353.295 163.176C356.954 170.104 359.266 177.063 358.35 184.363C358.158 185.892 357.815 187.188 357.399 188.3C360.735 185.591 363.954 182.537 366.957 179.088C364.566 175.835 359.295 167.699 358.953 158.753C358.51 147.168 363.121 143.103 367.048 149.883C370.976 156.663 373.559 163.525 372.93 170.856C372.918 170.995 372.897 171.12 372.882 171.255C373.878 169.744 374.834 168.178 375.741 166.545C374.671 164.99 373.383 162.19 373.567 157.805C373.874 150.454 377.308 143.975 382.065 137.749C386.822 131.523 390.879 136.14 388.969 147.576C387.204 158.135 378.588 166.662 377.276 167.909C376.339 169.57 375.358 171.17 374.333 172.707C381.016 169.655 388.339 169.775 396.037 171.187C403.744 172.601 401.471 178.311 390.414 181.798C381.446 184.626 371.46 182.027 368.006 180.944C365.429 183.847 362.7 186.465 359.883 188.842C361.176 188.536 362.711 188.358 364.515 188.432C371.866 188.733 378.348 192.162 384.577 196.914C390.807 201.666 386.193 205.727 374.756 203.825C365.169 202.231 357.261 194.995 354.946 192.689C351.302 195.325 347.578 197.606 343.885 199.55C344.101 199.552 344.307 199.546 344.53 199.555C352.702 199.89 359.907 203.701 366.832 208.984C373.757 214.267 368.628 218.781 355.915 216.667C345.099 214.869 336.205 206.61 333.782 204.178C329.606 205.829 325.65 207.095 322.096 208.066C322.488 208.155 322.885 208.251 323.298 208.369C331.155 210.638 337.247 216.054 342.717 222.833C348.187 229.612 342.131 232.776 330.285 227.698C320.483 223.496 313.896 213.784 311.91 210.551C310.396 211.257 309.355 211.347 309.355 211.347C309.355 211.347 309.298 211.134 309.213 210.77C307.41 211.024 306.343 211.113 306.268 211.118L306.125 209.112C306.195 209.107 307.157 209.029 308.805 208.801C307.942 204.133 306.729 193.862 310.49 185.027C315.538 173.17 322.101 171.27 322.835 179.949Z" fill="#44806E"/>
<path d="M237.397 468.024C348.09 468.024 437.824 462.256 437.824 455.141C437.824 448.026 348.09 442.258 237.397 442.258C126.704 442.258 36.9702 448.026 36.9702 455.141C36.9702 462.256 126.704 468.024 237.397 468.024Z" fill="#D3D1CB"/>
<path d="M351.644 275.071C353.402 275.071 354.827 273.646 354.827 271.888V266.318C354.827 264.56 353.402 263.135 351.644 263.135C349.886 263.135 348.461 264.56 348.461 266.318V271.888C348.461 273.646 349.886 275.071 351.644 275.071Z" fill="#FFB192"/>
<path d="M351.644 266.861C357.371 266.861 362.014 261.851 362.014 255.672C362.014 249.492 357.371 244.483 351.644 244.483C345.917 244.483 341.274 249.492 341.274 255.672C341.274 261.851 345.917 266.861 351.644 266.861Z" fill="#FFB192"/>
<path d="M367.3 257.524C367.3 259.444 365.743 261.001 363.823 261.001C361.903 261.001 360.346 259.444 360.346 257.524C360.346 255.604 361.902 254.047 363.823 254.047C365.743 254.047 367.3 255.603 367.3 257.524Z" fill="#FFB192"/>
<path d="M362.262 257.621C362.262 257.621 363.051 254.692 365.642 255.706" stroke="#2F423C" stroke-width="0.5" stroke-miterlimit="10" stroke-linecap="round" stroke-linejoin="round"/>
<path d="M335.712 257.524C335.712 259.444 337.269 261.001 339.189 261.001C341.109 261.001 342.666 259.444 342.666 257.524C342.666 255.604 341.109 254.047 339.189 254.047C337.269 254.047 335.712 255.603 335.712 257.524Z" fill="#FFB192"/>
<path d="M340.75 257.621C340.75 257.621 339.961 254.692 337.37 255.706" stroke="#2F423C" stroke-width="0.5" stroke-miterlimit="10" stroke-linecap="round" stroke-linejoin="round"/>
<path d="M355.991 259.248C355.991 260.548 357.045 261.603 358.346 261.603C359.646 261.603 360.701 260.549 360.701 259.248C360.701 257.947 359.647 256.893 358.346 256.893C357.045 256.893 355.991 257.948 355.991 259.248Z" fill="#F06E8A"/>
<path d="M342.535 259.248C342.535 260.548 343.589 261.603 344.89 261.603C346.191 261.603 347.245 260.549 347.245 259.248C347.245 257.947 346.191 256.893 344.89 256.893C343.59 256.893 342.535 257.948 342.535 259.248Z" fill="#F06E8A"/>
<path d="M351.696 257.307C351.696 257.307 351.851 258.239 352.265 258.446C352.679 258.653 352.625 259.544 351.748 259.481" stroke="#2F423C" stroke-width="0.5" stroke-miterlimit="10" stroke-linecap="round" stroke-linejoin="round"/>
<path d="M357.103 253.259C356.457 252.158 354.921 251.859 353.672 252.592" stroke="#2F423C" stroke-width="0.5" stroke-miterlimit="10" stroke-linecap="round" stroke-linejoin="round"/>
<path d="M346.624 253.259C347.27 252.158 348.806 251.859 350.055 252.592" stroke="#2F423C" stroke-width="0.5" stroke-miterlimit="10" stroke-linecap="round" stroke-linejoin="round"/>
<path d="M362.84 254.116L361.736 255.151C363.217 251.502 350.931 244.418 344.217 248.036C344.217 248.036 344.002 255.703 341.034 254.599C341.034 254.599 338.343 245.146 347.106 242.454C355.87 239.763 363.875 244.662 362.84 254.116Z" fill="#2F423C"/>
<path d="M352.344 271.777C366.366 271.777 369.827 283.166 369.827 283.166L367.816 320.961L333.594 320.342C333.594 320.342 333.099 307.251 332.975 299.748C332.665 281.104 335.538 271.777 352.344 271.777Z" fill="#E2BEE9"/>
<path d="M376.128 444.618L376.361 452.554H346.251C346.251 452.554 346.018 449.753 348.819 446.952C351.62 444.151 363.057 444.151 363.057 444.151L376.128 444.618Z" fill="white"/>
<path d="M348.119 444.618L348.352 452.554H318.242C318.242 452.554 318.009 449.753 320.809 446.952C323.61 444.151 335.047 444.151 335.047 444.151L348.119 444.618Z" fill="white"/>
<path d="M368.124 320.497C368.124 320.497 374.168 340.832 374.475 354.355C374.782 367.878 375.604 445.024 375.604 445.024L352.29 445.105L350.647 358.823L348.182 445.105H326.817C326.817 445.105 327.722 368.565 330.187 350.69C332.652 332.815 334.832 320.341 334.832 320.341L368.124 320.497Z" fill="#2F423C"/>
<mask id="mask0_70_672" style="mask-type:luminance" maskUnits="userSpaceOnUse" x="336" y="271" width="32" height="40">
<path d="M352.344 271.777C366.366 271.777 369.149 278.779 365.648 292.084C362.147 305.388 365.648 310.99 365.648 310.99H338.339C339.685 298.192 340.03 298.148 338.339 291.384C335.538 280.18 335.538 271.777 352.344 271.777Z" fill="white"/>
</mask>
<g mask="url(#mask0_70_672)">
<path d="M346.547 269.537C346.547 271.986 348.846 273.972 351.682 273.972C354.518 273.972 356.817 271.986 356.817 269.537C356.817 267.088 354.518 265.102 351.682 265.102C348.846 265.102 346.547 267.087 346.547 269.537Z" fill="#FFB192"/>
</g>
<path d="M354.094 256.154C354.094 256.807 354.466 257.336 354.926 257.336C355.385 257.336 355.758 256.807 355.758 256.154C355.758 255.501 355.386 254.972 354.926 254.972C354.467 254.972 354.094 255.501 354.094 256.154Z" fill="#2F423C"/>
<path d="M347.924 256.154C347.924 256.807 348.296 257.336 348.755 257.336C349.214 257.336 349.587 256.807 349.587 256.154C349.587 255.501 349.215 254.972 348.755 254.972C348.296 254.972 347.924 255.501 347.924 256.154Z" fill="#2F423C"/>
<path d="M353.679 262.499C353.679 261.967 352.866 261.536 351.862 261.536C350.859 261.536 350.045 261.967 350.045 262.499" stroke="#2F423C" stroke-width="0.5" stroke-miterlimit="10" stroke-linecap="round" stroke-linejoin="round"/>
<path d="M363.478 274.819C363.478 274.819 389.91 290.262 392.278 298.045C394.647 305.828 377.258 328.239 377.258 328.239L366.212 318.592C366.212 318.592 375.712 304.037 373.542 298.974C372.613 296.806 361.136 291.52 361.136 291.52L363.478 274.819Z" fill="#E2BEE9"/>
<path d="M330.343 275.954C331.358 276.292 343.541 278.661 343.541 278.661C343.541 278.661 343.879 325.699 329.328 322.315C314.776 318.93 330.343 275.954 330.343 275.954Z" fill="#E2BEE9"/>
<path d="M334.573 265.125C335.419 263.095 342.208 257.94 342.536 259.248C342.864 260.556 341.341 263.433 341.341 263.433C341.341 263.433 343.71 262.079 344.387 263.095C345.064 264.11 342.018 267.156 342.018 267.156C342.018 267.156 344.556 265.972 345.233 266.987C345.91 268.002 343.033 270.033 343.033 270.033C343.033 270.033 344.894 269.695 345.571 270.541C346.248 271.387 342.864 272.91 342.864 272.91L343.541 278.663L331.189 276.463C331.189 276.461 333.727 267.155 334.573 265.125Z" fill="#FFB192"/>
<path d="M330.343 275.954C331.358 276.292 343.541 278.661 343.541 278.661C343.541 278.661 343.879 325.699 329.328 322.315" stroke="#2F423C" stroke-width="0.5" stroke-miterlimit="10" stroke-linecap="round" stroke-linejoin="round"/>
<path d="M346.446 272.496L348.459 270.329L351.682 273.97L355.117 270.329L357.594 272.187L353.878 276.987L351.644 275.071L349.698 276.677L346.446 272.496Z" fill="#F2F1EB"/>
<path d="M343.371 244.652C343.371 244.652 346.247 240.253 352 239.407C357.753 238.561 364.013 240.084 365.536 239.407C367.059 238.73 362.49 248.544 362.49 248.544L365.197 247.529L362.151 253.789C362.151 253.789 359.275 246.006 354.03 246.344C348.785 246.682 343.371 244.652 343.371 244.652Z" fill="#2F423C"/>
<path d="M368.124 320.497C368.124 320.497 363.802 324.768 366.34 327.687C368.878 330.606 371.543 333.905 371.543 333.905C371.543 333.905 371.162 341.011 372.939 340.504L375.35 334.667C375.35 334.667 376.238 328.449 375.858 327.053C375.477 325.656 368.124 320.497 368.124 320.497Z" fill="#FFB192"/>
<path d="M370.528 326.417C370.528 326.417 373.066 330.351 372.939 331.366C372.812 332.381 371.543 333.904 371.543 333.904" stroke="#2F423C" stroke-width="0.5" stroke-miterlimit="10" stroke-linecap="round" stroke-linejoin="round"/>
<path d="M351.644 275.071V289.151" stroke="#2F423C" stroke-width="0.5" stroke-miterlimit="10" stroke-linecap="round" stroke-linejoin="round"/>
<path d="M83.4281 275.071C81.6701 275.071 80.2451 273.646 80.2451 271.888V266.318C80.2451 264.56 81.6701 263.135 83.4281 263.135C85.1861 263.135 86.6111 264.56 86.6111 266.318V271.888C86.6111 273.646 85.1861 275.071 83.4281 275.071Z" fill="#FFB192"/>
<path d="M83.4281 266.86C89.1553 266.86 93.7981 261.851 93.7981 255.671C93.7981 249.492 89.1553 244.482 83.4281 244.482C77.7009 244.482 73.0581 249.492 73.0581 255.671C73.0581 261.851 77.7009 266.86 83.4281 266.86Z" fill="#FFB192"/>
<path d="M67.772 257.523C67.772 259.443 69.329 261 71.249 261C73.169 261 74.726 259.443 74.726 257.523C74.726 255.603 73.169 254.046 71.249 254.046C69.329 254.046 67.772 255.602 67.772 257.523Z" fill="#FFB192"/>
<path d="M72.8102 257.621C72.8102 257.621 72.0212 254.692 69.4302 255.706" stroke="#2F423C" stroke-width="0.5" stroke-miterlimit="10" stroke-linecap="round" stroke-linejoin="round"/>
<path d="M99.3598 257.523C99.3598 259.443 97.8028 261 95.8828 261C93.9628 261 92.4058 259.443 92.4058 257.523C92.4058 255.603 93.9628 254.046 95.8828 254.046C97.8028 254.046 99.3598 255.602 99.3598 257.523Z" fill="#FFB192"/>
<path d="M94.3218 257.621C94.3218 257.621 95.1108 254.692 97.7018 255.706" stroke="#2F423C" stroke-width="0.5" stroke-miterlimit="10" stroke-linecap="round" stroke-linejoin="round"/>
<path d="M79.0811 259.248C79.0811 260.548 78.0271 261.603 76.7261 261.603C75.4261 261.603 74.3711 260.549 74.3711 259.248C74.3711 257.947 75.4251 256.893 76.7261 256.893C78.0271 256.893 79.0811 257.948 79.0811 259.248Z" fill="#F06E8A"/>
<path d="M92.5362 259.248C92.5362 260.548 91.4822 261.603 90.1812 261.603C88.8802 261.603 87.8262 260.549 87.8262 259.248C87.8262 257.947 88.8802 256.893 90.1812 256.893C91.4822 256.893 92.5362 257.948 92.5362 259.248Z" fill="#F06E8A"/>
<path d="M83.3759 257.306C83.3759 257.306 83.2209 258.238 82.8069 258.445C82.3929 258.652 82.4469 259.543 83.3249 259.48" stroke="#2F423C" stroke-width="0.5" stroke-miterlimit="10" stroke-linecap="round" stroke-linejoin="round"/>
<path d="M77.9692 253.258C78.6152 252.157 80.1512 251.858 81.4002 252.591" stroke="#2F423C" stroke-width="0.5" stroke-miterlimit="10" stroke-linecap="round" stroke-linejoin="round"/>
<path d="M88.4481 253.258C87.8021 252.157 86.2661 251.858 85.0171 252.591" stroke="#2F423C" stroke-width="0.5" stroke-miterlimit="10" stroke-linecap="round" stroke-linejoin="round"/>
<path d="M72.2321 254.116L73.3361 255.151C71.8551 251.502 84.1411 244.418 90.8551 248.036C90.8551 248.036 91.0701 255.703 94.0381 254.599C94.0381 254.599 96.7291 245.146 87.9661 242.454C79.2011 239.763 71.1971 244.662 72.2321 254.116Z" fill="#2F423C"/>
<path d="M82.7281 271.777C68.7061 271.777 65.2451 283.166 65.2451 283.166L67.2561 320.961L101.478 320.342C101.478 320.342 101.973 307.251 102.097 299.748C102.407 281.104 99.5331 271.777 82.7281 271.777Z" fill="#2F423C"/>
<path d="M58.9439 444.618L58.7109 452.554H88.8209C88.8209 452.554 89.0539 449.753 86.2539 446.952C83.4529 444.151 72.0159 444.151 72.0159 444.151L58.9439 444.618Z" fill="#2F423C"/>
<path d="M86.9527 444.618L86.7197 452.554H116.83C116.83 452.554 117.063 449.753 114.262 446.952C111.461 444.151 100.024 444.151 100.024 444.151L86.9527 444.618Z" fill="#2F423C"/>
<path d="M66.9478 320.497C66.9478 320.497 60.9038 340.832 60.5968 354.355C60.2898 367.878 59.4678 445.024 59.4678 445.024L82.7818 445.105L84.4248 358.823L86.8898 445.105H108.254C108.254 445.105 107.349 368.565 104.884 350.69C102.419 332.815 100.239 320.341 100.239 320.341L66.9478 320.497Z" fill="#EF9D79"/>
<mask id="mask1_70_672" style="mask-type:luminance" maskUnits="userSpaceOnUse" x="68" y="271" width="31" height="40">
<path d="M82.728 271.777C68.706 271.777 65.923 278.779 69.424 292.084C72.925 305.388 69.424 310.99 69.424 310.99H96.733C95.388 298.192 95.042 298.148 96.733 291.384C99.533 280.18 99.533 271.777 82.728 271.777Z" fill="white"/>
</mask>
<g mask="url(#mask1_70_672)">
<path d="M88.5249 269.536C88.5249 271.985 86.2259 273.971 83.3899 273.971C80.5539 273.971 78.2549 271.985 78.2549 269.536C78.2549 267.087 80.5539 265.101 83.3899 265.101C86.2259 265.101 88.5249 267.086 88.5249 269.536Z" fill="#FFB192"/>
</g>
<path d="M80.977 256.154C80.977 256.807 80.605 257.336 80.146 257.336C79.687 257.336 79.314 256.807 79.314 256.154C79.314 255.501 79.686 254.972 80.146 254.972C80.605 254.972 80.977 255.501 80.977 256.154Z" fill="#2F423C"/>
<path d="M87.1479 256.154C87.1479 256.807 86.7759 257.336 86.3169 257.336C85.8579 257.336 85.4849 256.807 85.4849 256.154C85.4849 255.501 85.8569 254.972 86.3169 254.972C86.7759 254.972 87.1479 255.501 87.1479 256.154Z" fill="#2F423C"/>
<path d="M81.3931 262.499C81.3931 261.967 82.2061 261.536 83.2101 261.536C84.2131 261.536 85.0271 261.967 85.0271 262.499" stroke="#2F423C" stroke-width="0.5" stroke-miterlimit="10" stroke-linecap="round" stroke-linejoin="round"/>
<path d="M71.5939 274.819C71.5939 274.819 45.1619 290.262 42.7939 298.045C40.4259 305.828 57.8139 328.239 57.8139 328.239L68.8599 318.592C68.8599 318.592 59.3599 304.037 61.5299 298.974C62.4589 296.806 73.9359 291.52 73.9359 291.52L71.5939 274.819Z" fill="#2F423C"/>
<path d="M88.626 272.496L86.6131 270.329L83.39 273.97L79.955 270.329L77.4771 272.187L81.194 276.987L83.428 275.071L85.374 276.677L88.626 272.496Z" fill="white"/>
<path d="M91.7008 244.652C91.7008 244.652 88.7798 238.301 83.0718 239.407C74.1168 241.142 72.4548 238.172 69.5358 239.407C66.6168 240.642 72.9198 253.789 72.9198 253.789C72.9198 253.789 75.7958 246.006 81.0418 246.344C86.2878 246.682 91.7008 244.652 91.7008 244.652Z" fill="#2F423C"/>
<path d="M66.9477 320.497C66.9477 320.497 71.2697 324.768 68.7317 327.687C66.1937 330.606 63.5287 333.905 63.5287 333.905C63.5287 333.905 63.9097 341.011 62.1327 340.504L59.7217 334.667C59.7217 334.667 58.8337 328.449 59.2137 327.053C59.5937 325.657 66.9477 320.497 66.9477 320.497Z" fill="#FFB192"/>
<path d="M64.544 326.417C64.544 326.417 62.006 330.351 62.133 331.366C62.26 332.381 63.529 333.904 63.529 333.904" stroke="#2F423C" stroke-width="0.5" stroke-miterlimit="10" stroke-linecap="round" stroke-linejoin="round"/>
<path d="M95.5788 274.819C95.5788 274.819 122.011 290.262 124.379 298.045C126.748 305.828 109.359 328.239 109.359 328.239L98.3128 318.592C98.3128 318.592 107.813 304.037 105.643 298.974C104.714 296.806 93.2368 291.52 93.2368 291.52L95.5788 274.819Z" fill="#2F423C"/>
<path d="M100.225 320.497C100.225 320.497 95.9028 324.768 98.4408 327.687C100.979 330.606 103.644 333.905 103.644 333.905C103.644 333.905 103.263 341.011 105.04 340.504L107.451 334.667C107.451 334.667 108.339 328.449 107.959 327.053C107.578 325.656 100.225 320.497 100.225 320.497Z" fill="#FFB192"/>
<path d="M102.629 326.417C102.629 326.417 105.167 330.351 105.04 331.366C104.913 332.381 103.644 333.904 103.644 333.904" stroke="#2F423C" stroke-width="0.5" stroke-miterlimit="10" stroke-linecap="round" stroke-linejoin="round"/>
<path d="M168.194 287.245C168.194 287.245 179.69 308.282 185.553 305.063C191.416 301.844 195.209 289.314 195.209 289.314L206.935 295.062C206.935 295.062 199.463 319.778 187.737 321.617C176.011 323.456 166.815 307.247 166.815 307.247L168.194 287.245Z" fill="#FFB192"/>
<path d="M155.203 283.107C141.391 283.107 138.649 290.004 142.098 303.11C145.547 316.215 142.098 321.733 142.098 321.733H168.998C168.998 321.733 167.569 308.137 168.998 302.42C171.757 291.384 171.757 283.107 155.203 283.107Z" fill="white"/>
<path d="M132.442 444.737L132.212 452.554H161.871C161.871 452.554 162.101 449.795 159.342 447.036C156.583 444.277 145.317 444.277 145.317 444.277L132.442 444.737Z" fill="#FFB192"/>
<mask id="mask2_70_672" style="mask-type:luminance" maskUnits="userSpaceOnUse" x="132" y="444" width="30" height="9">
<path d="M132.442 444.737L132.212 452.554H161.871C161.871 452.554 162.101 449.795 159.342 447.036C156.583 444.277 145.317 444.277 145.317 444.277L132.442 444.737Z" fill="white"/>
</mask>
<g mask="url(#mask2_70_672)">
<path d="M130.373 447.956C131.063 447.956 152.215 448.416 154.974 446.806C157.733 445.197 160.722 442.438 160.722 442.438L166.7 455.773L131.523 456.693L127.844 450.485L130.373 447.956Z" fill="#2F423C"/>
</g>
<path d="M160.032 444.737L159.802 452.554H189.461C189.461 452.554 189.691 449.795 186.932 447.036C184.173 444.277 172.907 444.277 172.907 444.277L160.032 444.737Z" fill="#FFB192"/>
<mask id="mask3_70_672" style="mask-type:luminance" maskUnits="userSpaceOnUse" x="159" y="444" width="31" height="9">
<path d="M160.032 444.737L159.802 452.554H189.461C189.461 452.554 189.691 449.795 186.932 447.036C184.173 444.277 172.907 444.277 172.907 444.277L160.032 444.737Z" fill="white"/>
</mask>
<g mask="url(#mask3_70_672)">
<path d="M157.963 447.956C158.653 447.956 179.805 448.416 182.564 446.806C185.323 445.196 188.312 442.438 188.312 442.438L194.29 455.773L159.113 456.693L155.434 450.485L157.963 447.956Z" fill="#2F423C"/>
</g>
<path d="M139.727 321.733C139.727 321.733 134.871 332.298 134.061 348.145C133.252 363.992 133.252 363.992 133.252 363.992L130.824 445.428H155.106C155.106 445.428 152.678 368.394 156.725 368.394C160.772 368.394 159.153 445.428 159.153 445.428H180.197C180.197 445.428 181.816 366.634 179.388 349.026C176.96 331.418 171.294 321.734 171.294 321.734L139.727 321.733Z" fill="#E29417"/>
<path d="M176.011 325.222L160.722 330.929V303.988L176.011 298.281V325.222Z" fill="#2F423C"/>
<path d="M142.559 317.594C143.594 320.468 163.481 313.456 163.481 313.456L165.55 325.182C165.55 325.182 156.583 332.769 139.34 335.528C122.887 338.161 131.619 302.412 139.225 291.499C141.869 287.705 143.87 286.164 143.938 286.096L144.053 305.524L142.559 317.594Z" fill="#FFB192"/>
<path d="M163.481 313.456L171.988 306.788C171.988 306.788 173.023 307.708 171.643 309.547C170.263 311.386 173.827 309.777 175.207 307.708C176.587 305.639 176.816 309.777 176.357 310.582C176.357 310.582 177.852 309.318 177.852 311.617C177.852 313.916 176.932 314.031 176.932 314.031C176.932 314.031 178.082 313.341 177.967 314.951C177.852 316.56 177.277 317.02 177.277 317.02C177.277 317.02 178.082 317.365 177.392 319.089C176.702 320.813 163.022 326.791 163.022 326.791C163.022 326.791 162.676 315.755 163.481 313.456Z" fill="#FFB192"/>
<path d="M163.481 313.456C166.275 311.18 169.064 308.899 171.884 306.656L171.891 306.65C171.954 306.6 172.044 306.607 172.099 306.663C172.573 307.145 172.609 307.832 172.454 308.4C172.303 308.968 171.93 309.478 171.649 309.9C171.587 309.999 171.53 310.137 171.54 310.17C171.549 310.184 171.512 310.121 171.518 310.136C171.524 310.142 171.581 310.142 171.63 310.135C171.85 310.103 172.106 309.995 172.34 309.878C172.815 309.637 173.269 309.332 173.688 308.993C174.106 308.652 174.498 308.275 174.821 307.854C174.978 307.654 175.125 307.403 175.356 307.172L175.551 307.009C175.645 306.967 175.748 306.931 175.848 306.906C176.107 306.907 176.298 307.059 176.393 307.206C176.746 307.794 176.757 308.362 176.801 308.936C176.802 309.518 176.838 310.061 176.567 310.701L176.199 310.395C176.405 310.231 176.61 310.11 176.876 310.03C177.123 309.938 177.524 309.992 177.733 310.242C178.124 310.728 178.073 311.227 178.097 311.686C178.092 312.144 178.055 312.608 177.929 313.07C177.866 313.3 177.775 313.531 177.637 313.748C177.484 313.961 177.333 314.176 176.961 314.266C176.835 314.297 176.708 314.219 176.678 314.094C176.652 313.988 176.703 313.881 176.796 313.832L176.809 313.825C177.001 313.723 177.178 313.654 177.415 313.648C177.644 313.631 177.938 313.778 178.047 313.996C178.258 314.413 178.204 314.793 178.18 315.143C178.145 315.495 178.083 315.847 177.977 316.194C177.854 316.544 177.743 316.871 177.416 317.194L177.364 316.813C177.89 317.129 177.9 317.662 177.881 318.07C177.83 318.5 177.727 318.868 177.536 319.268C176.992 320.007 176.307 320.345 175.646 320.779C174.304 321.584 172.917 322.288 171.523 322.976C168.735 324.353 165.881 325.583 163.021 326.791C165.839 325.488 168.624 324.113 171.385 322.703C172.76 321.989 174.129 321.256 175.433 320.436C176.053 320.023 176.783 319.586 177.156 319.063C177.297 318.766 177.41 318.373 177.443 318.034C177.483 317.699 177.369 317.32 177.188 317.227C177.073 317.168 177.028 317.026 177.087 316.911C177.098 316.889 177.113 316.869 177.13 316.852L177.137 316.845C177.3 316.684 177.456 316.355 177.543 316.06C177.635 315.752 177.69 315.428 177.721 315.1C177.753 314.779 177.754 314.438 177.645 314.239C177.574 314.072 177.305 314.101 177.055 314.236L176.902 313.795C177.116 313.74 177.375 313.322 177.46 312.943C177.566 312.545 177.601 312.114 177.601 311.683C177.596 311.277 177.565 310.797 177.372 310.583C177.24 310.373 176.807 310.531 176.513 310.769C176.408 310.854 176.255 310.837 176.171 310.733C176.112 310.66 176.102 310.562 176.138 310.481L176.146 310.463C176.317 310.077 176.341 309.472 176.328 308.957C176.305 308.439 176.246 307.848 176.018 307.479C175.961 307.389 175.909 307.384 175.884 307.368C175.854 307.388 175.826 307.398 175.79 307.404L175.668 307.51C175.507 307.668 175.362 307.897 175.179 308.133C174.824 308.589 174.408 308.983 173.965 309.339C173.521 309.693 173.047 310.008 172.532 310.265C172.27 310.39 172.01 310.51 171.681 310.558C171.594 310.564 171.508 310.577 171.382 310.535C171.258 310.511 171.112 310.325 171.128 310.195C171.133 309.946 171.229 309.833 171.302 309.696C171.643 309.207 171.944 308.812 172.099 308.302C172.251 307.823 172.194 307.253 171.878 306.918L172.093 306.925C169.24 309.123 166.358 311.286 163.481 313.456Z" fill="#2F423C"/>
<path d="M195.209 289.315C195.209 289.315 197.163 284.372 200.382 283.797C203.601 283.222 206.13 282.302 204.865 283.912C203.601 285.521 202.796 285.751 202.796 285.751C202.796 285.751 214.866 284.716 217.051 284.257C219.235 283.797 217.281 286.556 215.901 287.821C214.521 289.085 215.901 290.12 214.407 291.5C212.912 292.88 209.464 294.949 206.935 295.064C204.406 295.177 194.634 290.234 195.209 289.315Z" fill="#FFB192"/>
<path d="M159.029 273.222H152.759V284.979H159.029V273.222Z" fill="#FFB192"/>
<path d="M155.894 278.265C161.535 278.265 166.109 273.33 166.109 267.243C166.109 261.155 161.535 256.221 155.894 256.221C150.252 256.221 145.679 261.155 145.679 267.243C145.679 273.33 150.252 278.265 155.894 278.265Z" fill="#FFB192"/>
<path d="M140.472 269.067C140.472 270.958 142.005 272.492 143.897 272.492C145.788 272.492 147.322 270.959 147.322 269.067C147.322 267.176 145.789 265.642 143.897 265.642C142.005 265.642 140.472 267.175 140.472 269.067Z" fill="#FFB192"/>
<path d="M145.434 269.162C145.434 269.162 144.657 266.277 142.105 267.276" stroke="#2F423C" stroke-width="0.5" stroke-miterlimit="10" stroke-linecap="round" stroke-linejoin="round"/>
<path d="M171.587 269.067C171.587 270.958 170.054 272.492 168.162 272.492C166.27 272.492 164.737 270.959 164.737 269.067C164.737 267.176 166.27 265.642 168.162 265.642C170.054 265.642 171.587 267.175 171.587 269.067Z" fill="#FFB192"/>
<path d="M166.624 269.162C166.624 269.162 167.401 266.277 169.953 267.276" stroke="#2F423C" stroke-width="0.5" stroke-miterlimit="10" stroke-linecap="round" stroke-linejoin="round"/>
<path d="M149.292 273.083C150.572 273.083 151.611 272.045 151.611 270.764C151.611 269.484 150.572 268.445 149.292 268.445C148.011 268.445 146.973 269.484 146.973 270.764C146.973 272.045 148.011 273.083 149.292 273.083Z" fill="#F06E8A"/>
<path d="M162.546 273.083C163.826 273.083 164.865 272.045 164.865 270.764C164.865 269.484 163.826 268.445 162.546 268.445C161.265 268.445 160.227 269.484 160.227 270.764C160.227 272.045 161.265 273.083 162.546 273.083Z" fill="#F06E8A"/>
<path d="M155.842 268.853C155.842 268.853 155.689 269.771 155.281 269.975C154.873 270.179 154.926 271.056 155.791 270.995" stroke="#2F423C" stroke-width="0.5" stroke-miterlimit="10" stroke-linecap="round" stroke-linejoin="round"/>
<path d="M150.516 264.866C151.152 263.781 152.666 263.487 153.896 264.209" stroke="#2F423C" stroke-width="0.5" stroke-miterlimit="10" stroke-linecap="round" stroke-linejoin="round"/>
<path d="M160.838 264.866C160.202 263.781 158.688 263.487 157.458 264.209" stroke="#2F423C" stroke-width="0.5" stroke-miterlimit="10" stroke-linecap="round" stroke-linejoin="round"/>
<path d="M144.864 265.71L145.952 266.73C145.952 266.73 158.255 266.662 160.634 259.797C160.634 259.797 163.421 267.274 166.344 266.186C166.344 266.186 168.995 256.874 160.363 254.223C151.729 251.572 143.845 256.398 144.864 265.71Z" fill="#2F423C"/>
<path d="M159.037 256.873C162.659 256.873 165.596 253.936 165.596 250.314C165.596 246.691 162.659 243.755 159.037 243.755C155.414 243.755 152.478 246.691 152.478 250.314C152.478 253.936 155.414 256.873 159.037 256.873Z" fill="#2F423C"/>
<mask id="mask4_70_672" style="mask-type:luminance" maskUnits="userSpaceOnUse" x="140" y="283" width="31" height="39">
<path d="M155.203 283.107C141.391 283.107 138.649 290.004 142.098 303.11C145.547 316.215 142.098 321.733 142.098 321.733H168.998C168.998 321.733 167.569 308.137 168.998 302.42C171.757 291.384 171.757 283.107 155.203 283.107Z" fill="white"/>
</mask>
<g mask="url(#mask4_70_672)">
<path d="M161.067 283.797C161.067 286.21 158.802 288.165 156.009 288.165C153.215 288.165 150.951 286.209 150.951 283.797C150.951 281.384 153.216 279.429 156.009 279.429C158.802 279.428 161.067 281.384 161.067 283.797Z" fill="#FFB192"/>
</g>
<path d="M153.48 267.717C153.48 268.36 153.113 268.881 152.661 268.881C152.209 268.881 151.842 268.36 151.842 267.717C151.842 267.074 152.209 266.553 152.661 266.553C153.113 266.553 153.48 267.074 153.48 267.717Z" fill="#2F423C"/>
<path d="M158.739 268.881C159.191 268.881 159.558 268.36 159.558 267.717C159.558 267.074 159.191 266.553 158.739 266.553C158.287 266.553 157.92 267.074 157.92 267.717C157.92 268.36 158.287 268.881 158.739 268.881Z" fill="#2F423C"/>
<path d="M155.678 274.916C156.178 274.916 156.583 274.492 156.583 273.968C156.583 273.444 156.178 273.02 155.678 273.02C155.178 273.02 154.773 273.444 154.773 273.968C154.773 274.492 155.178 274.916 155.678 274.916Z" stroke="#F06E8A" stroke-width="0.6897" stroke-miterlimit="10"/>
<path d="M180.125 140.505C186.562 146.234 189.783 154.116 189.783 164.154C189.783 174.092 186.589 181.67 180.202 186.891C173.814 192.114 165.347 194.723 154.804 194.723L154.675 197.198C154.406 202.374 150.131 206.434 144.947 206.434C139.679 206.434 135.365 202.245 135.211 196.98L134.93 187.421C134.82 183.676 137.826 180.58 141.573 180.58C150.394 180.58 157.185 179.416 161.952 177.082C166.717 174.751 169.1 170.492 169.1 164.307C169.1 159.847 167.808 156.299 165.222 153.661C162.637 151.026 159.112 149.707 154.652 149.707C149.988 149.707 146.364 150.976 143.778 153.509C142.569 154.694 141.643 156.089 141 157.695C139.474 161.501 135.796 164.003 131.695 164.003C124.413 164.003 119.58 156.492 122.558 149.847C122.927 149.023 123.334 148.215 123.779 147.426C126.516 142.559 130.546 138.757 135.87 136.02C141.193 133.282 147.452 131.914 154.652 131.914C165.195 131.912 173.685 134.778 180.125 140.505ZM135.261 239.207C132.776 236.826 131.535 233.86 131.535 230.31C131.535 226.762 132.776 223.796 135.261 221.413C137.745 219.032 140.912 217.839 144.766 217.839C148.516 217.839 151.61 219.032 154.043 221.413C156.476 223.796 157.693 226.762 157.693 230.31C157.693 233.86 156.476 236.826 154.043 239.207C151.61 241.59 148.516 242.781 144.766 242.781C140.912 242.781 137.744 241.591 135.261 239.207Z" fill="#F2F1EB"/>
<path d="M114.417 63.148C115.994 64.551 116.783 66.482 116.783 68.941C116.783 71.375 116.001 73.232 114.436 74.511C112.871 75.79 110.797 76.43 108.215 76.43L108.184 77.036C108.118 78.304 107.071 79.298 105.801 79.298C104.511 79.298 103.454 78.272 103.416 76.982L103.347 74.641C103.32 73.724 104.056 72.965 104.974 72.965C107.135 72.965 108.798 72.68 109.966 72.108C111.133 71.537 111.717 70.494 111.717 68.979C111.717 67.886 111.4 67.017 110.767 66.371C110.134 65.725 109.27 65.402 108.178 65.402C107.035 65.402 106.148 65.713 105.514 66.333C105.218 66.623 104.991 66.965 104.833 67.358C104.459 68.29 103.558 68.903 102.554 68.903C100.77 68.903 99.5861 67.063 100.316 65.435C100.406 65.233 100.506 65.035 100.615 64.842C101.285 63.65 102.273 62.719 103.577 62.048C104.881 61.377 106.414 61.042 108.178 61.042C110.76 61.043 112.84 61.745 114.417 63.148ZM103.427 87.326C102.818 86.743 102.514 86.016 102.514 85.147C102.514 84.278 102.818 83.551 103.427 82.968C104.035 82.385 104.811 82.093 105.755 82.093C106.674 82.093 107.431 82.385 108.027 82.968C108.623 83.552 108.921 84.278 108.921 85.147C108.921 86.017 108.623 86.743 108.027 87.326C107.431 87.91 106.673 88.202 105.755 88.202C104.811 88.202 104.036 87.91 103.427 87.326Z" fill="#EF9D79"/>
<path d="M331.107 107.541C347.388 122.032 355.533 141.967 355.533 167.354C355.533 192.489 347.455 211.655 331.3 224.86C315.144 238.07 293.729 244.67 267.063 244.67L266.738 250.929C266.058 264.021 255.245 274.288 242.135 274.288C228.811 274.288 217.901 263.694 217.509 250.376L216.798 226.2C216.519 216.728 224.122 208.898 233.599 208.898C255.909 208.898 273.085 205.953 285.142 200.051C297.192 194.155 303.221 183.384 303.221 167.74C303.221 156.459 299.952 147.486 293.413 140.814C286.874 134.149 277.96 130.813 266.679 130.813C254.882 130.813 245.717 134.022 239.177 140.429C236.12 143.426 233.778 146.956 232.151 151.016C228.293 160.642 218.988 166.97 208.618 166.97C190.201 166.97 177.976 147.973 185.508 131.167C186.443 129.082 187.472 127.04 188.595 125.043C195.518 112.734 205.712 103.118 219.175 96.1941C232.637 89.2701 248.468 85.8091 266.678 85.8091C293.346 85.8081 314.819 93.0561 331.107 107.541ZM217.635 357.18C211.349 351.158 208.211 343.657 208.211 334.678C208.211 325.705 211.349 318.204 217.635 312.176C223.916 306.153 231.927 303.137 241.676 303.137C251.16 303.137 258.986 306.154 265.14 312.176C271.294 318.204 274.371 325.705 274.371 334.678C274.371 343.658 271.294 351.158 265.14 357.18C258.986 363.208 251.16 366.219 241.676 366.219C231.927 366.219 223.916 363.208 217.635 357.18Z" stroke="#2F423C" stroke-miterlimit="10" stroke-linecap="round" stroke-linejoin="round"/>
<path d="M328.44 99.8741C344.721 114.365 352.866 134.3 352.866 159.687C352.866 184.822 344.788 203.988 328.633 217.193C312.477 230.403 291.062 237.003 264.396 237.003L264.071 243.262C263.391 256.354 252.578 266.621 239.468 266.621C226.144 266.621 215.234 256.027 214.842 242.709L214.131 218.533C213.852 209.061 221.455 201.231 230.932 201.231C253.242 201.231 270.418 198.286 282.475 192.384C294.525 186.488 300.554 175.717 300.554 160.073C300.554 148.792 297.285 139.819 290.746 133.148C284.207 126.483 275.293 123.147 264.012 123.147C252.215 123.147 243.049 126.356 236.51 132.763C233.453 135.76 231.112 139.289 229.484 143.35C225.626 152.976 216.321 159.304 205.951 159.304C187.534 159.304 175.309 140.307 182.841 123.501C183.775 121.416 184.805 119.374 185.928 117.377C192.851 105.068 203.045 95.4521 216.508 88.5281C229.97 81.6041 245.801 78.1431 264.012 78.1431C290.679 78.1411 312.152 85.3891 328.44 99.8741ZM214.968 349.513C208.682 343.491 205.544 335.99 205.544 327.011C205.544 318.038 208.682 310.537 214.968 304.509C221.249 298.486 229.26 295.47 239.009 295.47C248.493 295.47 256.319 298.487 262.473 304.509C268.627 310.537 271.704 318.038 271.704 327.011C271.704 335.991 268.627 343.491 262.473 349.513C256.319 355.541 248.493 358.552 239.009 358.552C229.261 358.552 221.249 355.541 214.968 349.513Z" fill="#E29417"/>
<path d="M371.499 63.8182C376.004 67.8282 378.258 73.3442 378.258 80.3682C378.258 87.3232 376.023 92.6262 371.553 96.2802C367.083 99.9352 361.157 101.761 353.779 101.761L353.689 103.493C353.501 107.115 350.509 109.956 346.881 109.956C343.194 109.956 340.175 107.025 340.067 103.34L339.87 96.6502C339.793 94.0292 341.897 91.8632 344.519 91.8632C350.692 91.8632 355.445 91.0482 358.781 89.4152C362.115 87.7832 363.783 84.8032 363.783 80.4752C363.783 77.3542 362.878 74.8712 361.069 73.0252C359.26 71.1812 356.793 70.2582 353.672 70.2582C350.408 70.2582 347.872 71.1462 346.062 72.9192C345.216 73.7482 344.568 74.7252 344.118 75.8482C343.05 78.5112 340.476 80.2622 337.606 80.2622C332.51 80.2622 329.128 75.0062 331.212 70.3552C331.471 69.7782 331.755 69.2132 332.066 68.6612C333.982 65.2552 336.802 62.5942 340.528 60.6792C344.253 58.7632 348.633 57.8052 353.672 57.8052C361.051 57.8052 366.992 59.8102 371.499 63.8182ZM340.102 132.892C338.363 131.226 337.494 129.15 337.494 126.666C337.494 124.183 338.362 122.108 340.102 120.44C341.84 118.774 344.057 117.939 346.754 117.939C349.378 117.939 351.544 118.774 353.246 120.44C354.949 122.108 355.8 124.183 355.8 126.666C355.8 129.151 354.949 131.226 353.246 132.892C351.543 134.56 349.378 135.393 346.754 135.393C344.056 135.393 341.84 134.56 340.102 132.892Z" stroke="#2F423C" stroke-miterlimit="10" stroke-linecap="round" stroke-linejoin="round"/>
<path d="M425.08 223.414C427.532 225.596 428.758 228.598 428.758 232.421C428.758 236.206 427.542 239.092 425.109 241.08C422.676 243.069 419.452 244.063 415.436 244.063L415.387 245.005C415.285 246.976 413.656 248.522 411.682 248.522C409.676 248.522 408.033 246.927 407.974 244.921L407.867 241.281C407.825 239.855 408.97 238.676 410.397 238.676C413.756 238.676 416.343 238.233 418.158 237.344C419.972 236.456 420.88 234.834 420.88 232.479C420.88 230.78 420.388 229.429 419.403 228.425C418.418 227.421 417.076 226.919 415.377 226.919C413.601 226.919 412.221 227.402 411.236 228.367C410.776 228.818 410.423 229.35 410.178 229.961C409.597 231.41 408.196 232.363 406.635 232.363C403.862 232.363 402.021 229.503 403.155 226.972C403.296 226.658 403.451 226.351 403.62 226.05C404.662 224.197 406.197 222.749 408.225 221.706C410.252 220.663 412.636 220.142 415.378 220.142C419.394 220.141 422.627 221.232 425.08 223.414ZM407.994 261.004C407.047 260.097 406.575 258.968 406.575 257.616C406.575 256.265 407.048 255.135 407.994 254.228C408.94 253.321 410.146 252.867 411.614 252.867C413.042 252.867 414.22 253.321 415.147 254.228C416.074 255.136 416.537 256.265 416.537 257.616C416.537 258.968 416.074 260.098 415.147 261.004C414.22 261.912 413.042 262.365 411.614 262.365C410.146 262.365 408.939 261.911 407.994 261.004Z" fill="#E2BEE9"/>
</g>
<defs>
<clipPath id="clip0_70_672">
<rect width="500" height="500" fill="white"/>
</clipPath>
</defs>
</svg>
